<mxfile host="Electron" modified="2023-12-18T07:56:34.659Z" agent="Mozilla/5.0 (X11; Linux x86_64) AppleWebKit/537.36 (KHTML, like Gecko) draw.io/22.1.2 Chrome/114.0.5735.289 Electron/25.9.4 Safari/537.36" etag="w6PyBte8MI5YwWOfK4gf" version="22.1.2" type="device">
  <diagram name="Page-1" id="wTrMAgs4ftudsZC96H-j">
    <mxGraphModel dx="1362" dy="843" grid="1" gridSize="10" guides="1" tooltips="1" connect="1" arrows="1" fold="1" page="1" pageScale="1" pageWidth="1654" pageHeight="1169" math="0" shadow="0">
      <root>
        <mxCell id="0" />
        <mxCell id="1" parent="0" />
        <mxCell id="vrRyt4MK6rro84GM_9L1-1" value="PIPE" style="shape=cylinder3;whiteSpace=wrap;html=1;boundedLbl=1;backgroundOutline=1;size=15;rotation=90;verticalAlign=middle;horizontal=0;fontSize=32;" vertex="1" parent="1">
          <mxGeometry x="560" y="-210" width="60" height="970" as="geometry" />
        </mxCell>
        <mxCell id="vrRyt4MK6rro84GM_9L1-2" value="MIXTURE: WATER, SOIL, DIRT, NEFT" style="text;html=1;strokeColor=none;fillColor=none;align=center;verticalAlign=middle;whiteSpace=wrap;rounded=0;fontSize=32;" vertex="1" parent="1">
          <mxGeometry x="470" y="150" width="570" height="90" as="geometry" />
        </mxCell>
        <mxCell id="vrRyt4MK6rro84GM_9L1-3" value="SENSOR" style="rounded=0;whiteSpace=wrap;html=1;horizontal=0;fontSize=32;" vertex="1" parent="1">
          <mxGeometry x="980" y="320" width="60" height="170" as="geometry" />
        </mxCell>
        <mxCell id="vrRyt4MK6rro84GM_9L1-4" value="data list" style="shape=cylinder3;whiteSpace=wrap;html=1;boundedLbl=1;backgroundOutline=1;size=15;fontSize=32;" vertex="1" parent="1">
          <mxGeometry x="750" y="520" width="130" height="160" as="geometry" />
        </mxCell>
        <mxCell id="vrRyt4MK6rro84GM_9L1-5" value="" style="shape=image;verticalLabelPosition=bottom;labelBackgroundColor=default;verticalAlign=top;aspect=fixed;imageAspect=0;image=https://www.dijitaliyidir.com/wp-content/uploads/2023/06/kapak-robot-sef.jpg;" vertex="1" parent="1">
          <mxGeometry x="280" y="810" width="413.87" height="274.53" as="geometry" />
        </mxCell>
        <mxCell id="vrRyt4MK6rro84GM_9L1-6" value="" style="shape=image;verticalLabelPosition=bottom;labelBackgroundColor=default;verticalAlign=top;aspect=fixed;imageAspect=0;image=data:image/png,iVBORw0KGgoAAAANSUhEUgAABIsAAABtCAYAAAAh3eHiAAAABHNCSVQICAgIfAhkiAAAIABJREFUeF7snQtclFX+/z9xG4SBkavIIOiA4iAieEFQMe+pqeWa5drdVrdfte1mtZtt/812W9u2zdpq+7W13S+/bm6mblqamZgianghCAQUBATkIlcdbv2/55kZmMszMAODoPs9ryaZZ55zez/nOc85n+d7vueqKG3cT+DABJgAE2ACTIAJMAEmwASYABNgAkyACTABJsAEiIALU2ACTIAJMAEmwASYABNgAkyACTABJsAEmAATYAJGAiwWcVtgAkyACTABJsAEmAATYAJMgAkwASbABJgAE+ggwGIRNwYmwASYABNgAkyACTABJsAEmAATYAJMgAkwgQ4CLBZxY2ACTIAJMAEmwASYABNgAkyACTABJsAEmAAT6CDAYhE3BibABJgAE2ACTIAJMAEmwASYABNgAkyACTCBDgIsFnFjYAJMgAkwASbABJgAE2ACTIAJMAEmwASYABPoIMBiETcGJsAEmAATYAJMgAkwASbABJgAE2ACTIAJMIEOAiwWcWNgAkyACTABJsAEmAATYAJMgAkwASbABJgAE+ggwGIRNwYmwASYABNgAkyACTABJsAEmAATYAJMgAkwgQ4CLBZxY2ACTIAJMAEmwASYABNgAkyACTABJsAEmAAT6CDAYhE3BibABJgAE2ACTIAJMAEmwASYABNgAkyACTCBDgIsFnFjYAJMgAkwASbABJgAE2ACTIAJMAEmwASYABPoIMBiETcGJsAEmAATYAJMgAkwASbABJgAE2ACTIAJMIEOAiwWcWNgAkyACTABJsAEmAATYAJMgAkwASbABJgAE+ggwGIRNwYmwASYABNgAkyACTABJsAEmAATYAJMgAkwgQ4CLBZxY2ACTIAJMAEmwASYABNgAkyACTABJsAEmAAT6CDAYhE3BibABJgAE2ACTIAJMAEmwASYABNgAkyACTCBDgIsFnFjYAJMgAkwASbABJgAE2ACTIAJMAEmwASYABPoIMBiETcGJsAEmAATYAJMgAkwASbABJgAE2ACTIAJMIEOAiwWcWNgAkyACTABJsAEmAATYAJMgAkwASbABJgAE+ggwGIRNwYmwASYABNgAkyACTABJsAEmAATYAJMgAkwgQ4CLBZxY2ACTIAJMAEmwASYABNgAkyACTABJsAEmAAT6CDgxiwuAQEXP8x5cioSAizyysvEy8+cRuMlKAJnwQSYABO44gmEjMTtj0cj2OI1SNX2PXhjc8MVX32uIBNgAkyACTABJsAEmAATcBaBvhGLFCG47pmJGNV0Gh89momidipudCzWrB0O7+OH8eI/ytBqqwbuwVj010So/rMT7+/S2Tqr58ddlEh6dAZShlkn0dqkQ21ZDYoyTuPQN5WobbE+p2dHWlBVVIPSWn1sN5UKwQFs1GWLpSJ6OBJjFUBFGQ6k1tpuK7YS6MHx/sizB8XsvygBwZg0ww+eLbXI2laGKnFPc2ACl4CAQ/dmSxPKC2rQauhevUP8oPK6BIXkLJgAE2ACTIAJMAEmwASYwBVGoG/EouGBGEJz/dacSpQaJpWqKBq0E7zSkzSQH6AQ3bwUCNCESJ+xyQX4/NksFDjjZXR7AzJe+Q4Zhnp7z5uKe5b5DVAK/V8sz6hhSJpHrSX7AtIvkVjUH3n2P2kHSuAXiIR5GqiaSlCyncUiB8jxqb0k4NC9WVWCHc+UGHJ0gfbehVgU18sCcHQmwASYABNgAkyACTABJvBfSKBPxCJrYcgd4SN9CG8DSvIsrIVCwjF/gQuObzqN0jq5K+CCgCmjkRx4Fju2OFdoakxLx6vvVeozpTfRriofqCdoMOdaNVShGsxfVoFX364csOKWHC0+xgSYABNgAkyACTABJsAEmAATYAJMgAkwgd4Q6IO1UCQMaSyEIXc/RAyjrBqqUXTGvLgKv0FQxcTg5idSMP9qFUzVK7fgYKSsnY3bbh9Gy7a84N2bmsrFbW9Ha4vho2uHrqIWBduPYcchvaDlrQ2x8n0hlwwfYwJMgAkwASbABJgAE2ACTIAJMAEmwASYwJVCwPmWRSQMqYcLYai2Uxga5odgJS1Lyz6PEgs/QLrsHHz02BmMWhCLGctTsCapEhfdAbcJCVi1JBBuJaex6+kcnChwmgOhbq5dO2ormugcWkencIenK/1p5Z+FrJ2SIpE8RY3wYSRieQK6BvKVkVOCjG35yC2zitBNnnb8rFASo5FISKAlfgEKKl0LGs+RuHW4AAe+qjDxr+SCUXfPxXUJ7rDXqWvoilm4eaYXGtPS8PKbBksrO4pk+xR3BF89EslJwVCHGPlcRENNA0qzypCVWoSiKpPY7uTj6lnycUXIzYI2Dvf/03wNiY6swV54s8L8PKUSmklqjIoNRGiwF5R+xMeVxL+aepRkleDQ9gLz/ETs3uYplcCxdhCwJAWrrlWh6psMZCg1SI73gYLukxObM7AnR4nk22OREEWNqa4axz+hYxlyPrscy1OU0pgvMjPw3Ks10CyKQfKkAASr3NHa0ICiIz9izyZaWmZ2i7kjYe01mBNtjhpeaix7SW1+sOIk3n48BxVWzd7BdmCRlcNfe9IOTDOJjcM9vwqHdx35WvtdJsqHhSN5SQRiRqrg7U7tqZba0/EC7PmkxIIVdRUaOnfeMGgilVApqQO72ITqwkpk7crBoUy56+hw7SwiONgOgofjpnWxCPfSIfftvfh8v3WZAuYl4bZl1Oc2lGHbhsPINrlH3YIDoU0KgSbaDwEk3Kuo7bi1taCW+iDJx9uX1H6skzQrs1tIMBKuGY6YKBVU4h419GFFmaX4fncRSmsMpzvl3nSQb7CGXljEINSlAYee3oM9BfLxVddOxZoltIS4jNr8E3JtXj5ed0fFi5GJ12oQTW3N34/YtlD/Ts+UqtNVKMgowvFDDbDE25Nr0l99UHf159+ZABNgAkyACTABJsAEBh4Bp4hF4StnYBGJE/rgAtI1SGAJxvwNc/WH3Nz1VkEaLe56Rsw+21CyJRWfpxpmp7om5G5OR25qMGb8MgGTRFLDvZD9wR7sSG24xMvAaBKmFhWgUNeEhjb9nx3/d1di7F2JmJ9g8JpK1kk6qobCV4nwSdEIjwvBoVfTsCfTieKWbzDmPDARCaEGQzBhDQViGhqIsSSoacedxKYXclAk+VdqR4lwtJRAPqKGqWhCZj3JMK+RAkNI8BLxqgoMHrgtquzYVwVG3TkV1yUZ+NCkR9dAKsIgLwT40iciGAEN5ebOy9t0qD5NDsANTcjNjxyA+1Fdm5rIx7XO7PpfrLCcMpEYMmcili0wXDMqbCtdEF27OxQBKmhS6DNhKFJfOYC0HBM1o5d5ohftQDVlHOa4tNHkzwVufn5IWDkBAWVeCA8l0bGd7p+AQEy6JQalORnIFbqlMfQiTykJij/x3likRBvvVRJlqd1qZk7EEOVhvP6vMrMJaW0p+RxzF2opBU8vBIcq4NZOztrPUJsyvS+qLlhNZIXY6nA7MNazh//2qB3I5uUCz1iydlyjQUAHKrou1C41KWrqq0zFIhcEL0jEDdcHdlg+tjZRO/MiXtpw+gyFZksaNv3HiY7ae9IOKk5j27+DcdctwRi1bCzG5hzGCVPBViy7XURCEV3J7A9PmAlF4lqOvT0Jc6KMsKj/aWpBq7s7LdelPog+2oTT+Py5TBTYWkqcMg7LbqLlvUaeJn2YVsQPbcNzL5bo7/Xe3puy17SbgxUlyDo5GqHRJMon+pFYZFSuTOLR5gha6ldFqDhSIiOOdpOHjZ/dIjS46TckVBm6TLHRQqPUD6gQLj4jXVB+xLBRREcavbsm/dYH2WDAh5kAE2ACTIAJMAEmwAQGHgEniEU0sVIq4O3bOQGVqulCYoavRYXJUsfbYD2iVJivgJPerP4sBgnDjOl4YeS1sSTWZGLf/kshGInBuQ8ipkZjxgRRhhYUpZ6xmBC4IPwmg1BUV4m0jzORfoQmzjQ3FJP+scvGYcYkFSaRhUjpEzTRd4ZzbBKFtCsT9EJRUw3S3svAgSNNNKkiUWvSaCy6VYPgiJFYtLwGr5PFjZBSGmmiUwsSi9R+GOJSot+Nzlbbc1eR9Q/92N6EUmdYb2kiMUMIRZRe9odHsJMcVAs+wgpHMcwfo5KGY4ipACJ+aq9B6sbvOkqoupYszJaQg+vCPHz4fJGMEGFRGdoBqfTIWWQdKkNBTi1qDemLN+8Jy+MwI84PKbeMRtHjWR0O13uXZ+/agVtTMTY9eRwF7X6Ys24qEoJpQuhH1hz/j6w5GlRIeTQFSaHB0NDkPPe4sa69y1NKha5N8oVqpL1yHAcyqA150eT3ZwmYT4Ka9wSyWqNdztLKjPm1oODDNHQYWETFYM3D5OD6YgX2PJOBbptKT9qBxWV1+GtP2oFcJi4qJK8g65e6CqSRVVpOTj0a20gY0QQjbpbKTLz0ThqnF4oo74Ltmdj1DVn5SYaJJP7NisH8JSEIXzQBM/L2YJepWCmXr13Het4OGlOPYeeY6STsh2DmreEoontLkofFDpF3kFBCfXNtGp1jWIZrWpzW+lrkfnMG2YcrUFjYJAnk4p72jgpDys2xJBgN1/t4oz7IcgMDRVwMlq0koYi6/EayJN1F/ulyz+jFdLdgP2hnRSM5wCS33vYHdnG0PEmHrLQKzIgOgSqeLEY30a6Ylnr/MDVihFEdlS8rzSmdOyVG/fsSYk9dpq7gJLa9eRIFRhM9EhxDx4QgLsHViqkofW+uSb/1QZbY+TsTYAJMgAkwASbABJjAgCXgBLGoHbmvfolnpCrSEqg1tARqQjtOvLgTOzLFIZoQb6AJsRdNhh+mybClYYiYsF4bg5Srg+FZSkvOnjmJiF8lQPXVdzigGIk5ZLUUN6MIqR9nIyPPcvTeO67eU5Lw8BTLNNrRWFqBjL05SP3GQtUIjcTMqTSqp+3D0/43HakFnZYqrTU1yHjjMBTB05ESMRQJSVnI3WVZWcu87PgeMgyJ4/TiVe5HlOcRIwOyBDqUhU9p6c2aFcE02dcgZjOVW7wQP1ONch1N7FUqDKEX4WZLviyzDFGBVpWQFU81SjqEAsuT7P/urdHveoczp5H6LQlFHVHJAutMJU6Ij/3J2XVm1X/S8b7Mma0VlTj0ZhaG/GkitMEhGKUhsShP5kRHD/WyHejyygxWYDXIJYfvCcEKtJ4uBm0USKEW+SebSCwiK6wQmr0fNxDsZZ5SFd1bkP36EaRmGNpQUwOyP8qGOjaJDNFUiCCLo7Qy59xjl3U7UJJlm64Im/5Cgl6HpQxZe1TRMspDJo2FltwmL1GTRREJy5vJemiXSX9B1pJF27/HNtUMaYlnzMxgWmpYJjvpd6j59aodkNXQB8cQOTwRWq0W8+dU4iMqc/CicUiOICWn6jR2fKQXnM3LpMOJV1Jl7lvqK/OKsONDsqpcS/1NHIks7hXmQiIJUQlLhktCkS4nE++/cBq1JgZ+rRU1OEGiZC69bLAUmRzi4oSTdUeLUbCc+gm/oYjRZqHouElBKf3gxKEIoHq00nLjrAonZCiSIGFSHS5enLQgd3sOCUUm6ZJlZemhAvM21/FzL64JpdFvfZCTsHEyTIAJMAEmwASYABNgAn1PwNy8p7f50cA3dDgJG7oaFBpNEujNsZqMRFBSiSIZ7UQxZiRmTvFC6ebv8M8NmSQmGCar4k09LU17Y0MGjrcNwYxlwyCS6fsgltGRryJPazTBiWrJ4XVrXiHSTYSijjK1N+BkZj19dUFolJ+Zs+6elttbG6x3st1wFic6hKLO1BoPFqFAcHX3h0ZrKDPxLy0RxVBiiPAfZQihK2bg/ueuwe1LOpdsuZE/KX9RpxJrf1I9K7NhfdIgT1gYj/Usud7GaqpDubTcxhMBgdbXtCfJ97YdXGygJTyGjMXfIuhqO5fb6QzHFD7kv8gQepunlEwNWV8dsxCDWkgkPKOfFHuTvyfnhcu5HbSj4EuauMsuqTIhFE1+soRFTEMFDqVamsuJ89pRmkGWRvSXIpL8aTmh+fW6HZC11M4PyKKIlmmGL4lDUlI0Fsyjvor6rkNvk0AiV43uGsXpWlSJJkRLFQMsrUnVBmscNCHrP+ZCkWmyujrniJTdFbXL35sqcEISZ2kJZaJYkmcS6KVHTIK0vhpFh0rQ2GVCPfnRFd4da/R6Et8iTlfXhE7ttz7ICVXjJJgAE2ACTIAJMAEmwAQuDQEnWBaZFDSQdj0TLh1OV6PUMOlQjAyUxIgqWholN8DWHcrE69nCr418hVtJ9djz9FkcUJJlivwpPT7auJ8cOr9tcOjsInyS+ECdEIGUa8OhvT6ZHACn450PKw0Te3cSXgyTabUGN/xumGy+bir9OeJfsXtbb70AqYYa8iwj0UNuPiXEEHobPYp2m1MNFbvQiRx1JADQBdCQ35ThdOwIHSPhKJL8cdDqGPKjEgzVlgbpzODhSmlSVFVQ7RS+jTk1NHEMRAA51L3hNy44tF8sDatGVY35W3pZeL046BYagolzwxFNznP9yXkuucmyCOQfaJCst3LLE7v53vt2IHbgM4a2Fr2o0tpqYqVm+N3N3agu9D5PKT+yjJEm9WaB7qsmUQZaTtqRn+U5jn+/rNtBezUKjBZdXVRdFUHL98TvZGGU8pupSJY7152W6Irj5LPLW7TJXnVizmkHuuOZ5AvOHzddHYiUOwOpUO2o+CoD+7pcJkf9S9xwTEoZinDqM4QTbzdL8Yv87LhaOKlXDKflfOI8WkJbYHyBIMdpQBwjkXD/WdQmkSXUmHCM9KpAtlE8I2EwRgiDQlCSEe17XPx22qQgvwVjyeef5mdJWBRQiKzjlSg5TUv9rO5Vy1x6dk1EKv3WB1lWgb8zASbABJgAE2ACTIAJDFgCThWLFFF6Yai2sKpDJBmiUZEY0YKKPGFxIxdsC0WdZ9OE1oaYJJdij44JR9VVNHDfdRwlNa64a40aAVdrMXFvKtJKKUXhg0mpnx0Jp8Chlm/QLTM1+AW2POzYdxcoxc5KFFqbLtqYZ9KuOYYJjafhXHF+BZlFtF5NuxZJTq5pOZhfIMLJN1FjjQ7ew+hvZQFONBidW9P1IT8kTglnyO/GZyrcsISWxkUPJx8g9BHlr2tAxckKHN99EiecvZxwUhxuvj1c7zyXHDA3Vtai+gI54ZV0GPKrQqZtKjGJdbWc3fagxs5oB22d3qH1ZSQ+Jg6jO/42FtcZeYqqXqR7rasqOwFPR/KXczu4qEOtHf2Nt9SoKJACG0zCbJeB+gO33vYJzmoHwjpmE1lxxiVhrBD3yfn1zi1dOeAmK6QVSVg2U/TlFHTEp6wWjRcNaoarOzmuJyEarjD6Qzey8PQl4VZ8kdssoEtg/fTjyTPIrSBRjHzoxcS7I3u/UOjJTxQtQROin+4HsuR0UlepryEtP/uIdkcMJL901FdrF8TRh36hfqy2hPwm0U5z5rtdGrn0/JpIKfRXH2QsPv/LBJgAE2ACTIAJMAEmMOAJ9FosmvP4LGgG6evpRpMmkaD35ESsiRezX1fJ+bUIGvI9tOYm+qOFnBk/nUGOfG2waWnA8c2Z8OzWg66N+E44rDt+hpagqDHWV4XIcV4kFpnPDir+swdvk2XOQA6tZClU0R6CULUvObkGyqMDEUyi0eEva6C9UY0I2mHnRKbBuTX5YCrJ7/Y1tp3VFVYK6Xj1iB9GJg1FJPkwCibrggAhsE2gDznXjXjjO2yTcaJrZwbmpylDyK+VEIqED6dMbPuwCBVml8YLkx6dhRkRNFnvUQa2I/VHO+iPPG0T6OqXy7gdtNIyQRPxrqtaSr/lHMcLG+1wxN5tQvaf0Nt2oIgJRbhxXW8gCSNRP6I0W74PcIuNxiIhFLXrULDlMHbsIitRUytHhRrLnk+ARhTfmYKj/TicdyZZ+pwgS8xJC8jpvBCI9hehURGIuDjxHNMhN81oaeq8LFFTgV0bdiNjHFkvxdFyxWHUZ6uF0B+MsfQZFZuDDzeeRIUJ8/68Jr1te04kx0kxASbABJgAE2ACTIAJ9CGBXs+fvck7svEFu7Gcbl4KGFZjdRRdQdumS7IR7ZIl4w7IpIrkGPbb031YZTuSbruIRiE4kPWQipY00doD6U1vo9gCXliq+AlfMpdCLGqXfEuIHXPcvMgHEP1l5QRWWBsYjBqM/m+kGlbWoJwcJoeS4+Ih5KvHLToAbjVnkH+wEt6LhiNcS5O/ShJyRFXIyWyJk6vTWlWD7P/QRyoMLZegbcRTVsRAG+JFu/9E0i5yWU7ZetpNGyZW25E/niLsepuEIsulei60DKjTRZNUml6F/mgH/ZFnryB1Rr5i2wFVsbHW0Nh8BklLrYybWDkJnXUyzmoHviGYKwRWF7IoJIdn/hpyQn1rLAo2kENvmX4gNN5gVZOZhW3ba6yt06iPtHWLXazT++Jyo/5fSZZVfc7ImprDR6r2l6D0GvK/FxVKzq6LcEKjBiGiZZwlOJ4lL6g5nIllBLq2VWRFlEofKdDGBdoFsZg5JxDempFISTqNTamdnVtvroll1nZ9d1bbsyszPokJMAEmwASYABNgAkxgIBDo9Xvgz+/fhmd+SZ9HMvXbkp/JwRv/oz/23L/KpIlF7bff6c8R5/1PGjK6cxzb72TcoTCsMOl0JdOCcuEHiIJ3VIDe6XRPy2nwUwPyk9RdqDprsGoKobfNVn54KLYnHQ8WqbSj1niu9JWshUpoYkO+ikI1/gjXuEN3shIVTZXkfLwdKvIlFUxLBKVdis7UoLqP5kD6+lHZsk9j27vk4FYcCKQyd7Vqh5YESqF7PORnyrDMRfjjsRSKpLwMfrT0Kdr+v915OrEd2C6NxS/9kaeNwonlVDZ+6v6wg+2g+wQ7znBaO3Agz9pCWoolzg8JRESgAxF7fKoz2oEC2lvHQUtCuC47G5s3HsY+4aw/IBzzV4bo/SuZlU+I4/rOsKHEdHfDzpOMfunkqqUrqtXvfublB02U3Bl2HLP73rROq63N0Je4OrAGsIJ2OztJ8dwDEZOkwshJwZJQX3WERKQ+7SdNyt9AOxV+QjsXStZeLggYZirH9e6aWFOy54gz2p49+fA5TIAJMAEmwASYABNgAgOFgB3TcfuK6kb+isROYbUFlR1OdEOj/WiQTYPMk71182xfGZx1lpuGnLgKZ6YkwFSd7XzVXpFeon8zTs6bU8gfkM3gRdZWXfg00tHbdsl3TKASAXICkEnCjdkV+jyVQzF2gvXJ3pPDoREzGdrVqiDHVC2hnZgKBHdyihs/jCaz7Sgh59Otwl9JVjVaQ4IxPlbvg6Q8vyt/JTZrKf9DVy3K6DOIJnAm/pyt0rl40bAGyIcsFrpKj2K2XjDsLOZHTnet8JDT2AXD7RL2HMnTWe3AquJdHOiPPM2K00T+jsS8VThsNiw77aK4XQt9draDLtO3+NFZ7cCRPJFD/m3ETnu0U9ak60P0lpNyCZD1nyrYqnHKndntsd62A9XMBMyNo7KQo+Zv3qVd0WjZ76F3aQkadUjeE8ZizhSDSt5REuEvTt+vKIP1zvDNCumuQuKsYNsC4hkSXkpEDC/E0L0oObuWCW4m/tYsf3bk3jSP246G8xelQ6oQmbJbZtTxXYesQ/rlZqFT4pAcQ7xIfM860EfPMRtMxE3U4UTcxCm+eC716prYrHfXP/S27XWdOv/KBJgAE2ACTIAJMAEmMNAI2BymOlpQIQwJR9YdwpCwaImkiQcNsovyLtXrWAdLTZY9Yscp6UP7vCsClAi/OgbLfqmBpBVZbld/hpYJpAlLHxIhbiSHrzRBpCiGQG97I4KRsHwiVv0pBSmRtsvSSo6eS4Ra5DsUKQuEoNZFKDuD9Ez9UrRRNyUiJUHvF0p62zwpRnIkLSw9Go8WIEvaIr4z1J7WWz6oyBdGcBuJSbTrnAiN2VWohh+0sSLnBhKVunR7bJZmd1+Cl0zFql/FYtIkP7OliIphasxZTktfKIHWwoqO3fLk0tOdqdNbIIWokSCV0XbQ5ZC1lKgWWUbMXR7SuSRSSc5iVyZi0RRP2vnHdnzjL47kCSe1g+5LZXJGf+RpWsBztD26aPou/oib202bpdOc0Q4c4eOsduBInsL/2oFtZZJ1kfeE8bh5jQaakE5RyC1AhVHzYrHsiVm4aZathVoO5Yhetb1QDRYtDZQE/IJ/H8MJY39RWoBtWypJwKYt45ePw1jJUrEzlORUSeK2IiEG81OEI2t9cCPBOeVXiUgKIvHXPErnt/YGZGwhUYoeAYroWNx8/0jaudGckXZZIm67xbbg5NC9aVGOCuofxPVx02owQ/I7ZF/QHTE4sg4mf2siGole2WKjA2cH9xAsenIqFl0fjvBhBitJkQeJsuELxiE5WjyidSjKNt8golfXpKd16O8+qKfl5nhMgAkwASbABJgAE2ACPSLQ8xUlptkZhaGWyk5hSOmPiCA6qYx2dOmjF7I9qrFJJO+kRDyQZCMVXS0OvZ2JXDMfHjTJ+iAdOwYlYg6JNpoFE+lD4oeO1Ah3062kyReIjWSlw3VnkbpbQ5MB8otx7VTcP4+sNiS9ph2Fm/bgc2kHHmNoQfa7GVA/MBEJoX5IunsWklqENQ3lZ5hztZ6hyd6HFda+RArJF5FuOEaJyU5JVed1qKhAYWU0aMMfsjCg5WrOnASJnZFih2OG+FDyrWSR0kZLQBQkxkmhoRL7yAl1l02ioAgZBRRf+FK5dzZiSKVo0OmtjRqPZeKjzeSMyRhoJ6dvvlHjpnkqBF89EWtS6K07WSa5ehEfsTQvLQvZwbFI0nRGkf3LkTzFZNsZ7UC2ILYO9keeJmWhe/v7tAZo5ygRPG8q7pnShNo6fTttqzyDbf97usOiUIrljHZgC4XccWe1A7m0uzjWuP97fKqaKIm2ARNIaKYPqD/QkTWRwsSYqPYHZwnmPWwHZAGUdMdohFJf0Hg8EztSzQXiWtoFMjU2BXO0wZhzuwalzxZ0XE/JjQJhAAAgAElEQVTdoR9xYGoAZkSRv7FbZkB7E9Wvhe5pL7qnyel17scn4XZjtN7BtQwrHeW36UNXLFuuJt9l0bjusWiyhBSWap3LfZEpmR/JB4fuTfMkWo/l4UDOUMyJVlFfMhdjRX8kLgW9xDjwTBoO2eqoyfLqxHEdRiWJzpOsNA+XdN1nyZfcjqPE0Y+W6NFLA2kXNMGFLo3Uf0ldJlm37j+GbzLN209vr4kdBZM5pYdtTyYlPsQEmAATYAJMgAkwASYw8Ak4RywyCkPnOgUJt5EBko+dxtNV5pPIgcyEBuq1ZEFRnlOGjJ1FKKqSmeDRso0Tr+xB0YThSJ5Cy9WGK8nBNFVUbLd9vglVpyuRe+QMsjO7qijtFLU5DR81aTFzxlAE01o048TS02SC2ZFCHe2W85e9KFkwEuMTaLkfveoWVlyNtH110ZECpH5ZgVo546AmcnJdBoyincBq8yo6rwNNlArydLQ9NE2ESukcOyxvuqqN6W/Ve45h20XaBY0caocO9SLn0lQ3mp01Cifa2SU4tP20yLLrQNYIh/73AFqXRiOBHHGryHxLsvSioCyyBEQTuU1peL+SnMDOUCM8SAGFZxsaS2myt/ckUr9tQtzDsV3nJ351KE863yntoPtimZ3RH3l2FEBwPoBNTTFITqQ2GOzVaVXnVkH7HpoHp7QDh/A4qR04lKc4me7l7el4PUtNy7HIEfJIP/j7UpsXDoErqD+g7c8Lj5fgxKEu5VHHcnW4HbggdAktp4og9aGuDN98UKL3tWSWaxMy3s2G5rE48i00GvMXVeB9446PYqna86moXULXfkIA/P1E/XSoyinHia9ycCgnEMtu7KoKJHh8m4E3ckow8ZrhiCYrVIkRydu1tNNkedYZHNpV0qV1kv39gUU5aEOFjFfS0PozLSYl+FObFSKyuGzuMK6GlC85Ldc9TtZWSWooaIlvlrN2b7TMrKUCe/6ViYrYQHqW+CIgiDaCICO01qYmVJypRE5qAQ4farBm0+trYlkQO7873PbsTJdPYwJMgAkwASbABJgAExhwBK6K0sb9NOBKxQViAkyACTABJtCPBEJXzsLN5JuuNTMDL79YYm252Y9l46yZABNgAkyACTABJsAEmEBfE3Caz6K+LiinzwSYABNgAkzgkhDwCsH4CWITA1p6lXaWhaJLAp0zYQJMgAkwASbABJgAExhIBFgsGkhXg8vCBJgAE2AC/UvARQHN8tHQCp/kNSXIOCqzHLl/S8i5MwEmwASYABNgAkyACTCBPifgHJ9FfV5MzoAJMAEmwASYQN8RcJsQh1UrhsBTQX7PpI3TyHn35pMocqJPt74rPafMBJgAE2ACTIAJMAEmwAScS4DFIufy5NSYABNgAkzgciSg8ITKl1SidnLIX1aN3C8zsSdNbueAy7FyXGYmwASYABNgAkyACTABJuAYAXZw7RgvPpsJMAEmwASYABNgAkyACTABJsAEmAATYAJXNAH2WXRFX16uHBNgAkyACTABJsAEmAATYAJMgAkwASbABBwjwGKRY7z4bCbABJgAE2ACTIAJMAEmwASYABNgAkyACVzRBFgsuqIvL1eOCTABJsAEmAATYAJMgAkwASbABJgAE2ACjhFgscgxXnw2E2ACTIAJMAEmwASYABNgAkyACTABJsAErmgCLBZd0ZeXK8cEmAATYAJMgAkwASbABJgAE2ACTIAJMAHHCLBY5BgvPpsJMAEmwASYABNgAkyACTABJsAEmAATYAJXNAEWi67oy8uVYwJMgAkwASbABJgAE2ACTIAJMAEmwASYgGMEWCxyjBefzQSYABNgAkyACTABJsAEmAATYAJMgAkwgSuagFt/184jcS3e//N8+NfuxvqVf0Fqc3+XqOv8Y1b/Cy/eGA5kv4WbH/gAZW1dnz+QfvVf9jw+uTsGyH0Ld97/AYouo7IPJI49LstVAXhy1iws87JIoTIDcw/kobjHCfdRRBc1/rlgCqZfVYcP9n6JP9U5KZ+rhuKZedOwyKMRm777Ao9VOyndyziZoMTx2L/IDzhzEvNfK0L+ZVwXLvrlTMAHcQ/tw4JxQPnmm/DWph8HVmWuCsaTc67GMs8WbDu4GQ9XOFC8q7yxaNQ4rFIHQ+PlDsVV+rjZP36Bn51sdCChgXyqCxbfdDU2jnFB8b50zP+qHrqBXFwuWz8TcMWi8YvxjNrdvBztJXhs+35sau/n4g3U7P1TkLhiNeJiRiNApTCUsgTpf1qKb3L74I4Luw93PLkaQ5COrXevRtZFG2BC6bwNdJ6r+e9VW2/Dvz4+ZiNSHx92n43Ff9+IGJ9KfP/UQuzM6gM+fVwFTp4J/LcT6Hex6L/lAoTf8jLevD3KurrNDaiuLMLJo/vw+UdbcLB0gKtl1jWQP+Iahdm3z8JIjwb8sOUDpJbKn9Z5VImoqfMx5+pEJESHIzzQHx6uzWioLsPJzH34+tNPsT23obtEBvbvP7Wg+HwVso3PSsVgaL0snuoDuwZcuiuCgAsSEkbgmiDgXE4hXi9sHfi1Ut2GFX9/EBHtqfjsl/cht2XgF/mKL+FldU1cMTf2ajwz3Fu6LLqWi6iUXpa0oZbbUs+bqm8A7kkcDN/WemzZU4Gsnqc0oGO6+M+GZu5NCIvWwmewD1xa6tF0vgS1ebtQ8PW7qKyWmwAroNCuhnbWAoSEq6Fw16Gl+hTKj36E3J2foV4uyiWn0IbKhkpk13joc3b1hsbXE0b545IX55JlqEDEqi+wYmYgHBZSXMdh+sPPIjlMUNJBV1+JViGqtVXiYn/3Jc0lKM//Ea2GNSPK0NFQWb6cvGSMHc/ILfkl/PqeFLjlPouX/vQOrhQJ33ESHIMJDCwCLBb19/XwUMI/NAaTxWfmLHyy4fd4Ja2mb0p1oRpl5WU0Q2xAn0tSruFIWXwDUpRl8Dj0KYlFXeXogYT7X8bfFodY1NsDyqBwJMxciYSpszD5tT9iw+a8vi9739CnVOvwypHdeMWQfqRmFraNCeiz3Djhy4iATkdC4gVqIq2XwBLABWPihuOuSNAbytLLQyy6jC4lF7UvCTTT46sRxW0t4laxP7ipcUOYEIouYm/Gbtxf3HgJ7jP7i+e8M9tp8kp8zrvgTBP97byEZVNS+Plj+bRwhDWX4Ye9JBZdgZYoijGPI/m2pegwIBEkFD7wGjJa+rgUfYTKg5akFfCZ/iKmXp8IhdHZQ7sC7oGjETbncQyJHoG0lzZCVmOSJd13B9Ny9+Fnufr0Fb6x2DZdi7C+y+7yTzl2BeKEUNR0DN9suBfphfV9X6f2OjRUlsCTBKnWrlYEVH6G7X/6zFAeBWLWpmNxQt8Xj3NgAkzgyibAYtGlvr603G7DXRsNy+1IDAmMQsKsG7DqxkSEDIrC8gd+iR/W0HK8WucXrPqLP+LmL5yfrjNSVA6iN1vN1cg7tA97D6QjI68M1c0eGBozC8tvXYLJQ0KQsvoRrMq7B69kdiU8OaM0nAYTuLQEzh37ATP7yUr80taUc2MCvSDw03n8/cAX+LujSXj5Qi2MOFur8FXplSoU6aF89UU6vhqgz3lHL1u/nz/0F0g0CEXt5fuQt/szlOYXkOToA++gSPhrZ8OdNH6rMHQ1JizWC0VNx1/CkU/fRXWDD3wm3IsJN5DwNOw2TLg+HV9/tA9XoL5mheNKOuAdpoZkn1i8Cz9cCqFI5FX6Dj596J0rCSPXhQkwgcuIAItF/XCxmi80o1nSO5pRfeYovn77KE7W/hUv3hsPpf80XDfdD6lb+8i6qB/q232WzTh74C08+u5uq2V4ZWfykJHTgBdfuAMxg8Ix+9pEvEHL0lgu6p4qn8EEmAATYAJkCOLqql9a81MbdD8xESZgD4FAhC26Hf5kRNJe8hG+e+kpVJsIQ7rK46jONlpxmKbngyGzrodKuAEiS48j7/4L1dLyJB3qDz2BdB8tZi8hq6Txt2HY9n0odJYvQHuqxOf0moCbu2GRHg3iHTFu7HXGnAATYAJMoJ8I9IFY5IHwpCW48dppSBgVDn+VEh5kMVJ2Og8H9+3A5q37UCT3JkYAcFUi5vo1WLUkEWNC/SVLk6Jju/Heq28h9YxtecA/fgluuZ6WKWn1+UEst8o7il2bP8An3xV1KSwoI2fhxqXzMTk+CiF+SiiFgFOehx/Sd+Pzz3Ygo9x2vpbXzEO7Ehv+dAcSVM0o2voXPPjCPtjru7foS8rr9nhatuWBiOiR8Niabl5uZRQW/HwlFk6Lkfz5KEG+jqicGd/uwHsf75Zn6hqCm597B6u0FiXtxsG1mdPxW19C1TX2XZOoVf/CP39Ozr/NQgiu+8s2XGd6rC0Pb6y+B++f6TyYt3cH8iyBGr+f3o5dOSQWxQP+4eEIoTfE/43OuX28grGY3mpdHRBIDlq9ETSInLSSH6TKhhqklRLTUyXIthi9aEfNxb+jByM//yA2KaKxKpTebjafx7YfDuJPVb74dXwCbgj0hMeFKmzKpGMVtjwnuiM+PBa/1oQhwduT3tA3ouBcEd74MRvbmmzYRbv5YuWoONwwlMo7yAXNF+qRUZKF5/O7epfqijA/NZapw5Dk54OwQd7w8aAL3noRxbUV2HsmB28Un0elrbbSg+MK8kOx/+ZQ+NYVY/VLxQiarsFdcf4IU7pAV1eP748X4Tnhj8PmyNANCRNG4J7xQRg/RAFf6lXr6hrxQ34p3vimGHtkJwMeuOeuFDwQYVHg7hxcuwXjH4+MxTy3C3jv9TS87BKKdbPCcLXaG74urSg+W4lPduXg5VPmhVWMiMY3d4aB3BSZhZg5U3ByjvmxPZu+wepjXV2jHkC+ZFE0SPzjZ5g5Aih8dyG2li7E9KVLET1CDVcy4a8tSMf3nz+L77PkWpAC3jELMSYxBRrNaAz2D4S3kiYGOopXfAy5376Ng3uPdbG0JxBDZq/GlGkpUIdSXBG1oZ78rhWgJPNrZJFVQmGl5XIVPRi3IQsxSZST2mIAtXs38onS2HAOlVTegsNf4NgBW/n6IGDqGkyZPg0Rw+mNt5RnCcqyvsb3m99GbqmtJRKBUM+7D8kzUxA2JBCuLeTr4tgXOPDxh5fsStmbkSJoIlKTRpAth2nozsG1O+5Muh6/tWzw7uF4ZhF9TJJynoPrQbhn9RQ8MAzI2JaKtedCsFbcm0MHkVDVjOKSSmzZfRIvd+EjTDGYfADNHIZrIlXU/1BHQhPSc+XV+PLwabx8rJEWMssEtxC89tgYzLDY27Y7B9cdfUJTKe79Ww7OjRuJB5KDMT5QWPk2I/9UKf6xPR9fnTfN0w133Xk1HqH7yyx4hmDjevqYHqw8jRtfykdGL7sSxWAtXoj0QFphHj6tbIStFi1DpneHBi9ExChqdeTsuXAzLRmzNW61zMU9kSyiA6WjtYc+MghFnSc1HfwM565ZhyGKcRg6JhCFB+T6IstE7f8eOHgE/kczAtMDfRHkQYoV+ecqPn8W2woy8ea5i130X/bnYX6mO5KGxeDO8BByYuyNQGq2uuaLONdUh6PnSrC18BT22hhWKBTBWDkyCouDA2iMQL6S2smvI/lQOliYjeeLqpz6nO9p7eC+EEtffgqjaNhjFmLX4TfvrjM5JOPg2p2eCROXIiYhEeoINQYP1j8XWqmO5QWpyNrxDj2LSmSKpsCQFR/ijms15r+1dePgWiYlhw+5axB57WokTEyUng0KVx0ayddWyeEPsX/LZyhvspGi1zjELF2NxMR4cvrtgbbaU9S2P8TeLbK9lo1E+DATYAIDkYBzxSIPsvy4/w946JpwGNzl0QSRrGg8/BGiTcR19Bnj8Qv88r0iaxYkFI1Z9Vdcd31UR1wM8kdU0g1YH+6BR+99CQet/BsrkXDLH7CeRBalIUWRH5nnIDx+FlbFJyLpvT9iHVnuWEWlXKKufwRPrJ6GkI7CUlnpuD89+FLEZzhw3SNbZOJaF99j1A3YsN4gFH1JQtE/7BeKpNTaqlEtvLlRRTwGGWtjyCdoGh56+hEsGGYoKA3kmulE/2HxmH0LCUzJUVj/6Ks4aKlMtelQVpSFPFdDPFU4ooYYK2tdB6sjDl6T5nN5yMoVBEVQIiQyBEpyUl19psh8oEViUbX9Ghyl1YjmiyICpWxDl7Aq+xV3wBM3jLsav9WPQQHxhry1BTpXdwT6BmMRfeaq8/Dw/gzslGEbFjERv3VpR307vWH3DMCycVMQWe+NeBX0x7xp0JYwDhlfH8Q2K1GEBJyoGXhLPZgmPSLfNig8vKFVa/FMUADC9u/DK/UWF8Y9GP9vyjSs9DU48G6n3wcNxvSRU0hMpd2+DDsRWV0mlxCKNxnTjRMfqZ4U180TkYHh0mdu8EHc/X0f7BjmMgjLfz4R80ZQt9hO/j7aXeA7WIUZ08cieUQ+bn3zNDIs2Yg4yxKwYewgfVVEPPIu6UtOUJMnRCNZG4zn3jqKl8ssZ0ztOFNegywXQ0VpkB0z2LHuWBUZjY+nhyJMRBPJu7ghbFgIHriZJqf/OoznyD2ZMegukHhVWItgQ3a+QTQZpcGv7nw98utNy9aOYluDQSkx8i9277/wt+v1/sXy3rbRn3dm3W9/eUY/iJ+vmI0Ami+1XtRREwpEAIlBc6PHQf3P1dh6wGKQTpOCeQ+txyjjxkDUf+rIl5SrguKNmo1k+sSMW4//e/kz1Fr1Q2qMuvs1LJ2q1te3heI20I3oRXFV9BmRiIC6VBTusJ4YuI24DyseWQ21wRFpaxMJRW0eUARqECE+0QqUpx9DoWWe7qMRd89GLJhoyFOUlywYFCqKk0yfhBSkv3QvvjlmORm1KCvFa3VXQ528GjeM1CD3ks3G7WwaLXXIqK5CkNRnuCNosC8CbfUfJkmeq69Atpuh/3Ejx70+NBmVNhmoMxMc8m2J3XYWT+40xYiReHd+iHRv6prbqb/0QOSIUDxwpx/GfHIY9/5g3Un7RgzHuzdHIsYwKRXxQPHCIkJwV0Qwrhl+HLd+XmW9a2a7DvlnTO7tALq3HXJq64bxsybilmk+eusr0R14eiBGOxz/CHLB6pdPYo9Jv1ch+i03Q0eiGITIYGqr7SRUl5iLWTrywaaz7PbkYHV3zMUTMaFRmB46Cr9uINGjMJ9eNJ1Fdh87E3YZmQh/yTqIrH/y5UVe2aIHjoO/9DioRHXBKetTGtNReRYYMlwBfw1tO3jga+tzenTEFUmR0/ACPXN8DPeHroU6DXd6dgaPwK+DSbjM2oM1+eedKLh5YhGNtZ8ZpnccD3rO1zfThSFH2WF+4jOU/Fmdxd5T1mpRYGAsXp2ohdbQ30rjGRd3hA2mOPS5eshhrDl8Ctn9bQnYXo+qgh9RYhg6u/mPwBBhbtZEAjuJ8Z23Bjk8p+eFWYi+D8vvWapftiZ+EM8FOkWhov42YQXUcXOg+fBebN5BTqnNIupw8RwJNHmGfoKeXUPCAuHYCKEHjShwIRY8vB5xoQbrKVHeNnqJQr65Rl27HhoSkLZuWIdcy7mGTwpm/u5ZJEZ0xoNKH0cd8TUqDd1wD0rEUZgAExgABJzY99AkYpVRKGpA1tZX8cZHuw2WOSQcxE/D9StWYoytSg+Kx3ULq5HxxmN4YXM6bUnvh5jFv8LvhZgTOh/L57yPg5vNl2aFXLMWjwqhiJwrHvyY8ttMa8qFrx9lOCaThdJDtyQi5udrcXf2L/C3dPPBmXLqfXjibkqbOrHqI5/ilbc/QWp2jWTNoxyWiNlLV+JGy7eSNsruEbkE6/+0Bgn+zSjbtRHrniOhyHJgbyNux2FXf/gbnrfNF0ylLT8suH+tXihqyMLnL2wka4UiNJCQEzVnDR6+dz6iIm/AQ3dn4c4N+yyErRp8/bffwDgU8V/2PD65O6a7knT+7uA1EdZUv9pqiO4xC+s/eoQspaqR+o/f4IUj1oNjuwviEYORJBiKUH0qi9qG3TFtn0iDEvEGzO7wEwktNPByYMhod9J2n0gWQXtp8Lm19CzSzjeiUhpEkZAzOFyyEFrkE4U/xJQh7ehZq8GgorkID+89jG0/0dbTKbT1tHIw4r1oe9xdtD1uy2D8NmUu7vSlARoZ9G2z3I6atpyerm5DcfFhPJx5CkdpLOjjE44/TJhIeQbj7vFapO3NxNGOQR3tPKSdrBeKmqvwQcZBPF9Bb4Rp0D89cjL+PDocZCRmM9TRhGBTcRG+Kj9LAjENIMWZV5Fl09AY/CFuFIlU4/FYRQXuLLYegNpM1J4flAGY53UBe3YcxaNptThHYlHMmJF4amkYYoZF4qlZVbjOYivqyCQtHhdCUXszDuzOxKP7a1BMo74gNVn8LIvG4kA/PHBjJDJownXAbDTYiq3bvofxdglKHI/9i/zsKaX+HBcF5k0PQfEP2bjty1IcaHBB2IgwbFg+EslKFW5JCcDrn1R1WiKUkdXU68WG9N1wy+1X4/FIIP/wCVy3195X5vYXz+lntleiqqiAHHyW2D0BHZI4G62nPsRnr7ykt7BRJSJx9VOYOU6NmDvWIT/nPmSZDXppgF5KlkcHv0BuRipKismZqKiIKw3Uk1Zj7m00uE98EHMz0/HpNxaiT9RtmCWEIipf1rvr8dWedBpki8i0I1LENERPW4ohsiJcIGKW3SYJRbq8d7D1lVeRX25Qa7w0UI9biLiJJHZZAfVBxK0Goaj2GA68/ywOkqAk8nTzT0TcivWYmTya6vsoStatNROAvKevw0JJ1KpE/sfrsX1HKhpbfKCaeB8Wr16BUUZB2ipPiwM9uCbdJSn3u+58Ln75Xa7+p6uo/5pD/ZflW36riGR59MO32GY4rvAbh21TRyGs9Sz+/h0J4n08AY0ZEwJdSRHWfpKPrdUkFtE9edd1cXggehDmXReNWwpP4D3Tx7yHHx5ZpheKdHSvPvFpPj6poKvuQedP0+KpGX4ImxCLDUUHcFuGxbO0vQZ/ef2woaYuWHzT1dg4xsLMyIqPyQGaiN6SpMOBHYfxRHotitvJUnJiNDYuJLErMAyrxp3CniPGFkj91hed/ZYiYiR23CkcXFdi4+s/YKszxCGLsurqyYL1lDdZmw5FpHIolo2hT3Qjjp49hU8L8rCtzvCM6KqODv9GDqrVIyAothcfRf2gRIxY+AuMGDuOrA3pNq8rRe3Jr5H35Wsot7AWdAlSw1OKWIL6c/oRg8vgOLIqqcf506dI1y9FvfBsTWKRe8AISaBzxrgiLHQynokhoai9EXtzMvD8KRLUxGUjoXR6+Dj8OUaNeO0U/K7mSzzm8ABVHqBicDR+LRzH/9SIncf3449nyOrXMC4JpLHB4mEjECk39POOwouSUNSG/OLj+GsOWR9Joq0rtEO0+MM4LeJDEvDnqCr8/GSdU/hY1uDiuQKUF9JzpaobdbwtFXufSu2Irrr+I9y9bDRQ8A7+7+kPuymbDuezvsCRtF3IPZaOqmpj3z4akYsexALyaxV54xMYf/wmpJeal7D267V4zzh4D7sPdzy5GkMsK+HM72QRN/03eqFId+oz7H7vNXr5W0LPHnqGjSAL3TvXYTz9u3B1NkqeNt2pjJ5F9LyRhKKmH3HgtXXYf7hAegERQQLT4mWzYWlAbavYrfUkwBUWwI2sMK2febZi8XEmwAT6moAj0+WuyxK6BDcvFBZFzcj7+DE8+FqWyTKqBpQd3YFXaHt4/yC5JwclTdYv1Vs3Yv3/HTXEo7dXmzbivfh4PJREVkc0GfbYvLszTY9E3HLrNPjTkay3H8P6j02WmzUU4SBZFG3wpzfgtMPW7MWz8Er6jk4hhbZ1v/GO+ZJQ1Jz5Ktb94VMYBXxRyYYz6STKpCM1yK9bqyKP4UIoug+ThVD0zUY8+LfdPRIzQq6ZjwTJoKgZhXknO+sZeR2unyR+aMDB157AC98YBLO2BhqobMTjyhC8eXc8/KfegAWh+/CJxQOn64vWza+OXpNukuvpz/4zl2B2KMVuK6KJjbF99DQ1fTwtWcqI5Vl2B90p3L/zMHb28STDdnku4s0jO/Gm1Qkk4pw/hceOkfgzNYrMhsOR5HIWOy0G7fXVJdgpvYmtwLdVF0ks8oSuqhhfSaNUEqHIvP9OX3oTKJaYkftOq1Cfi4ePklBkqH89DeAfO0LWRVfHItJ3BG4OzCaTc4OKpwjHSrVIpw1p2fs7l7a1005EJ/fjaeV8PCPMWuQCDbAf/tba+gJkEXC09Bh+TxZQ/x49GAmhQxFYfMrpZurFh7Px4P5ag8jSjqwfcrCWlgV9Pk+FyPHhmLeHJkTGLsyFRJlEP2mwfy4jE/ftrekQZ86VlGLdh2RNcDdNAANDsSo6Hwd+cOZMimYjZ09i7aZSw3bVZBF0qgiP7g3EjoV+8B0WiDEuVTjgzCzlrtelOlb/BXb+wUGvvRdpt5oXnkKu0bCmNp0sbTYg4OmNiPNPQeL00cja/GNnDVq+wPbHZPKg5Wvl3z2F7SHx+MX1oxExIQWKb8wnCd5RWpCRHq2P/Qx7vyahqCNVejNb+DWO00c20DbMapo0kn0fcra8REKRybSxiZavHXiJPjIxw27HzOkk+LQU4MDzq7E3rzNeazUJXv9cC0XIO5g+YhrGkzCU22HRRNZIc6j8lGTjgWexdWuqoaz1qD38FD4jq6TVd5BjXpksrQ715JpYJXKFHmiuwXMfncRWwxIuXUMtXv4kC1H3x2MxWYEuHz8I75mItEFjI7BEPI4o3ssf5uATo4jZfAFf7T4ORUAyNo71QPLUUMRknHbuFvVk3Xgu7QTu219vaAutyEinpayRgdigJasjjT8URyq6mRT34XVsqcKb5KfwzSxPJA0dgWXhIzA3kKxih8XSR4vfnS/Dp6dzsKmkCl2ucHawiJ6+etX0oi4SsfevxwhaYgyy4monSwt3WuoVOOkXCIydhtzXViO7oFNwcPUJJPs3Cm31uCisxQNvQ/KDaxE4iHwW7f4V9mw5hhZahgTQ/esdJAlLvbbAupr5ArYAACAASURBVCoAd49WI5CeuUezvsX9p0ycuNOS8b0FB/HwoGvwpsYbi2hJ7tPVRVYvlBzEI50e5EeWxcKKqSYPfy8yXR7ehsr6s3TNzsok64pF0XTtCFJ96WHcnVFkYi3XhuzyTKw55o0vEsOhHR6JyXkZ2Ov0cZcO5VtX4y3j2xqZUjrlUOZTeC9TJiUSVYRQvzfyMyyIGY2YCRoSiwpkTrx0h7xnrsYkIfiQn63P/rIehR0vN+gZRuLRzucVUD29DpHapZgQ8Q72FhrKproWkxLFvUIWjh+vxd7DhvEbLW0u3LwOX4V+hKXJdr6BELweu3R15pyYABOwj4ADr5+6TjBkGvkoEqa3NCD/+GNTocg0HvnZOWdDLCIhIHWnpRDQgIysIikBj6AQSdwxBo/x02iHLH1+m7+Q80vUjB/Sjko+gzxGxdDyt864GDWLlpmJ72X4+v+2mAlFJmdRWc0tmUx/E397DJuPR58koYgskMr2voR1T9snFHnQzl/6j1hKFoPZtz+JZ1cbltLRQH87TTqNIWRCPKJEvYnrdqNQZFKQsl1kvSUMAzxoV7UJktrkvODgNXFexiYpDZmP+1dNk5YZln3xKj7O7pNcLvtEdfWG5Qnu3iD3DlahVu9RXTp+Tqe/B+vJr4DxbqwVpuMUfBTyIk52SadQZExcvPHdJk2GPBEfLJao6YNPwFAkCBm6tQzbzloKTy3Yeaa4xyJPQW2NNMhVeJOwZcdSFGNZ7fqX3sjuyegUfIxx8o+W6f0VefkjWRhkGANZDSWLCV77BXz5vXU8XUUptkjjJppwjdKLSiaxe/1n1gkql0UqxaeFZQAdVA5CmNN6d9NMmlFPfqcyjh6VPj+U2ejPe1273ifQmvMFfjAKRcbkLu5DlmFZ1pCxiZ3LA+zIrqqgQJowu5HlwGBbZvW07MzT1m+yeRj5ecCbli7aG4ZMmY0hlE9rzkc4aCIUdcRv+5HeZIvGp4A6OrFz+QJZHUWEi7PIqui7r60EgEbaaaxzkmBvafg8SwI68vezxSAUdfxGVpZbftRf75hImmR3/OCCpCiV3sKksLRTKOr4vRVffV+Bc+J7YCBmOPCOw7Jcst9pmc2X3xuFIuMZrThQKJQOakGDPQfGVur0siGtJBsPUxtN+fpb/PUk+eijx4vPYDXupKVQ2+aSGBIbhbneDt2AskjEQXeF/onmGX8rRvhXovjfa7Djd5Ox9eHJ2PH8RhQLi6JBtNRm5Vr9cjVDSi6GeGgVwhKtDg6j5WzSsjSyVtLESUJSm/F57O5BtjS9DwqyULpaWKY3l+B9um7WlkptyDh7VnruKvwDkODsZ6f7IMMyUTvq4qYmH0VEgayRthaYCkWdcevPFSNDDEnIpxG9K75CA72EKNI/oJQhI/q5jmpET9Y/J8q//VD+GVBN1lFCz3LVIFTbORByiyF/edI7xnRkWS7tphaXu5csV/u5dpw9E2ACvSPgJMsiD4yMlkagaD5Fk4iebPveVobCM9aVaRB+H0Sgtfumc+CQ6CiyKhLHY3DL0y/jRuuo9JtwBE2BfBj5i8iGpJRR5MxaPKEbyEH0iR5OdlTxuP/JGCQIwao5C1+8tcM+p8uqWXj001lypQUuFJFF04v4umNpBDm7Vut9g6C0CCflVotQHfLImmgyKQQR5PzZg6aPPayRdZkcvCbWCfTyyKAY3Pz7NUgRvs6zP8CfX0vv1tLL3hyzc3dCm2vv2QPlPFdE0na9dw4Pw2Ty2xGkIAfXloO+n8gnkcxdLfz+GAeQOvKrI8LFNoMlEP3dbPjbuGuQ+WCzBfm1co/7RuTX0WjdzxNBSl9qe1VSHmFKb71wRA4us/QalBlAXe155NGbQpt+R66i5WrDonEDtf0EsnYKFA6uLQMtI/S1PNbb7/QGNqtcJhHyIZNHS0YSBpOfsyEE1+A8WhFEgpUQZJrrIfsCVVg9nqWbNmIQfOlNeBjxyZdJvmeHyIJTzvn+RcOSDLIW8BV9Xh/Ycudt/gse2tyzUl/KWLVF2TKTJvLjRmbu1ProPw0CqWk1dt4GNBAmXxKzb0MiDZzVYotkLxkbG09yQG1RkcbsY6hqG4eAIUux/LcKpO/9GvnZYtmB9bTNLGpbNvJP1tNSMx9ErngNi4M+Q9b3+8hKjIQp03KZRaJlcWQdIIVhN2H540stSqP/6kaTaBHchFNV+ld6LIfq6yyWy5WflilbUzbKSJUYZe+6Admc+WAxLSWUxB2L8AMtx6WBCRDgjSjqOyRhF4MQFaBvUcVn5ePpSqgPonODyEdalFgebylEWWbkyPfWC8i39EFC8esuGDoPdxf7LM0cybOX59Y3VeDNH8WHlicPGYEbIkZgXrAvkkYkIImsUd789kv8tZvVRV0Xga6RQWwX4k/tl+twZO9xQxSytDj9Do68p4bq/pvgEzgHI7TkAPu4fIbtOR8i7/Q4enZU4gz1C+Kuk38l03WJuvo1TOUnejQqMy0Ln0L+OuVOJj9CkhxN/gYl/19OsNYprqxA/k8BtDwwEs9MdiFfUiX4trIK2bY7Lyh8/KARzf0qD0wfMwv/liur8E0mHvtXkQglhDZ5tLIxB9xBH3L8vOB2xMWNRohwGO1p/UwRx6T3a/1VeHeycDWo14OnPYFbyJWWXPA0rINT0iYrgN6CSDVMrX8eVp6CqWFsR/zCH1FJzzInabhyxeJjTIAJ9DEByzFvD7Mjp9C+evm/uaa6ZxP65gY0yA2O2zrfvHYWzgMB/obXDeQEO3yUJBvZDrScynS+GUJxJeGprhpn5fK0nVLnL6HxSKBv4gWRBwlWN967BKm/32KfYGSaPiVQXUlCEC3R2/7pp1a7vilpNzkRmuvJAbZcudqqYFxy7UGimFODQ9fEqTnTpC0cCx79A+3kRvvTle6gXebeQpacWObkbAducu6YGzMDz0QaLHjE7mD15AeoQ/Ahx5B+vjQYpIG9pYAkVUovEJnXz7rxe8rF/akZdTYUyHPSG1JyHOvujmD6S4zppB1YRCDLJdkxHt3T9WJUZDhNf7Lh/26D8etJM3B3oP5HXTMJUudb0EyOrqVA/he05KgWLjICkllCPfjS3IpaOUzkvJU2kZGCrzTQ0w/pxN/SsM9WPPqptskw/KOd65wqbtEra113I8s+sSzSc7gc/n+xztKsSF/qtnq9U1I3L18oBCPjbeCZiOSHN2K62AGJgvCfUFVIS0mMgqcXCUm0m6AwBbB6cBa+iq2fjCZn52StFLMUM8VHpFFLfjFy0nGcfJsc71gPZ0qP3ry+uwHfBz2K8REa8tP3oPQRS1hqi7NRePgz7P/PF6g1FV3Jh5K3j37C4UbLxtTS+rcugmvn5ESqszi1vQ4XZX0oVaJRThfuInn+yZpAXZOMSk6n1TWS0ED/Kjzd4CPanuhvyDF9kEE9sBVPWKlIfaYHxdM7xLHOtKdHWm31e4YEB3Q/QsuTaVdOT3Jk7jsoGnN99c8N+WegI4Ca0SY5K6a7pf1HFB80CkUmaRT9B2fPkVg0xIccVdOWs8fTpR/bjU6O3RT6x9SFfch+PgWdRtEK8rpgePXZQvk4Uiwb5wZ5Gh6mYiMIennTZaBnvEI8PuWedV1GlPmxPhuPZQ3Gi1paFh4UhV+LD52m09Uhu7KMLIey8AE9v82CB71cksYZYswSIJOo+aHeX8tus+i7E8Juww0PP4hIw9BcRztjlp9thtizQ4QOZ9nu1gJS3xVKJmVPX2knTREU5MxabRCFZM6UDrmRz0R9UMCTnilSaDpHLyANh03/uVhHPvHoQB8M2WRy40NMgAn0AQGrMW8f5GFfknKdTJcxDQ/bo69i+cOfygspXcbv/Y9le8ln0BdR+P0flyB8wh24//qjeGhTUdcJ1+7G+pV/QaqNybfNyF082A0kbEbt8Q8OX5Me52QR0Q8pDzyJ+5PoCUvL8l55/CWkyr2m7U12YtcNdweeXuQz51xz/zm4VtDOIX8QQtFPZIqfdRD/73SF4a20AYJbON6cPxlJvWEyAOLGkwNsSSiiJRtvkmPsv9ObeFP7B0UwbaM92XIb7QFQcC7C5UNA9ranrYqXrNMLRfXkMPqN9Xonnaa1SngKv1m70IaVRT3K/7MarxxMwShakh0ZFY8htH11gBBzEukzYQ4i/nmb9Q5sIv1q8sf0OPkZSliIMbTFcmiEFiG0840qghxV0yd6nAb/t+EllMvoD+Wbb8Jbm0z8Ll0+V4FLygR6RSDQVy1ZFC0j/3VhhkGQjiyOdp7OxadkCdrboGuUFjyTxfcp1MtZcrWXokkcp4m1u2+n6NHWWAlxq7q7+sBTmPTJxHVXGny4NNIEu4uxnd11ML7kOXcYKWnO9+VnuxzkI6lgH+aUBmARmaZcHRAA7eDBCFP4Il5Nn1A1kg7vxv1llsvRKcUW2nTjK3I274z62y5gP/6iwfg775OEotbCz7D9lWeRVWz6+oyeOTd/hjvm6y1A+7GglLVxFlGJ759aiJ1ZMlan/VtAzp0JMIF+JOAksYisY+rE05ksdvz0S79krWCcVlGyTKgWOVAvHOCv39HMAWGjrLpBWqrl4euPoTRxsPT7YVcxz3yKPz+9g/wdeeCFrfHYsCwcCbevxfKjvwFtgOK00FAruPrDQ0VL6eivMsuUXQNoZyr9weaGvqVumXXffFdi8t1/xqPXhMCjNgtvrP8jPj/tqLLWfckuNwfXk4eGSWbm9WeP4eGCCmufP+RrqDsDg+6p2DiDzMWlJU0yIcjwhlRHPo+Mm6idM/g/Ar1BFGUutoxHln4+sj2PL+YNFW+paACaux9/rbAeYAqfSjaKYpmL49/prb3K+LbfNLbpm/8OMxOyEqDt2KV3z7bi0W8qL0NFL7R07kzmeMk4Rg8I6B3U6k3lTaO7ehmWkdEyyQ7Hsq6jEZ2godN0KNlCjkdpNxfLoKDlXLI6k8mJrZWp5DSbPtIxcggaexum37qatv7W73qWnv4UyuWeVeREu+owOQ2ljxTE0oUlD2LWfNp9iXZaS5n2Ie3AZrCUonMb6/VWD0p/sSbJfrGoVdSZYri5+IJW05FQpc+u8/9ktSQmuBx6RcDXS1h6WD+3fOn1vfRO/mIr6o2TZFPLRRvxQFYq+j6T4jlFXehV9fovMlmWzg2Lwg3DaMdb8qUksaQXOcXlhdh0Oh/vV9TJW7M6XGIdGqvE/WYQdRyI315eIglA7i5q+ARRCc9bTrxD4SO2XqfQUnVKZqmsA5kZTq3VGZRkUqfEaiJ5m0rH07U3hu5iFTbli4+IQcvlA0fg12PjMJeWpM+NiUZS+TGkGZe9kcXxOfo7jK5lkLhNLPHYm+lAP89/GkZF0nVuK8Ch158ioci6okqVU+2Ne07kIj1TRPHo2aj0EyMs67LKJ047iNbX0U90n3iRs3Z6QJot6xaRhNWSnBW5fIJ8lAkwgQFIwEkGxs04maO3qPGgN6oJfTZr7SRYlFekH+eK5WDDHCPbkJen37FMST6HaIeRHoUGctYtDfqbkfH2S3pBg3zsrPr1SkT1MEnrctDOaCUGeSg0HCMlJ4kWQRmFqFB9Oc4WyTn6toxwqb4bB8rmvqa6zl2JGHL2/eiyKHhcyMMnTz2G97OtB9xdp3H5/KoT3i9FIP8yRqNe+dK70rp9vWl5RYPpjiOdZwf6B0Mjt4RMPkEHj7ojUnZQQ860ffXlOtdQ1zE1Kq4zWAOReXKkzCBBoRqMKLmyXkWDR+neIR9J9dZCkRiEJgQ431F0BwwavMYMlUFDA6goaTUo+QkycdCvO9eot+5y85GPR7JWzFD9TVtXTefKJN0/h2gmY5yoOukJ0D/16DpXVbhW5r5SIISWe0mhskDypSAFFxJJpOdWParOWgtMpN4gLFprvfzMEF3+Hx1qM1/D1tc/0/sLCtRiiJf8mVZHybop633aWSZTLwoFkrVRZyDHqIX6MnpHT5McXdsdzhjqTL6ZhoidbyyDF1k1Cf2JQ68IhA31gRzGMcEGJa6mUfJBpA8XUFylX1NqK55CTX2QJGRfoD6oV0VzbmTTfqTP+hISH/xH4LcJs5A6dyFeGDsK04VQpKNdPE8exi93bcXc9Ay84jShSI9IdyYb0krNQWTJKudU3CUUXobjLXVVnVwrj6FaWjIfSMvTRljzHpSIQOk5o0P16WPWv/fgSMH5Gr1ApCSH0Pb2MTL56EjE0csEvbmYbcivzKPdU/NRLAQigqQ1GQfo6mtQIPrdqwYjSVKLrtCgUkMpLfcrQaWMUATaCTNcY/+mBj2h1NpmEH26u5wtx1AiDVBoQwTa+EH2XZ6NAtSWntIvzCeBUGwYaBUiRku+ATkwASZw+RLorguxu2Zl+2iXGfGAVNKW9j+Pt/H2n3wbqZyjpDR/vxsHxaDJNQrX3zpL7+xarrSufggf7mf+S+5u8g0kDvlj9s9vsCnuKI1+keTSNT124Sje+Af5KyJdw0O7Eg//nMSO7uLY+XvZkaPIEw9WVSIWzLSoBx0OmTNLvwtdcx4OHnGC7bWd5er+tGY0SAMmpeFNRXcxyHnwsj/giVtioGwuwvanf49X+rA+koPrrZ/Y//nqMHY6wSGkKYVzFww+fbx9oenyTmwjn0H6N4fB3j56J5WmCbkMxqrIoTIT4+6Y2/+7Vh2OeAuBR+ETjkXSYPkiDlac73gXVV99Fhli7uMWgkVDLf0nkO+lYXorKevcL6BOmjO5Q+1lGY+GMd6RWGWVnnUqPT7i4o0Z42jbeYsEIuNDECNGT03VOCD1G4ZQWYMDYokBOZ29Zrx1PEVwKJZIFuat+D63xu53dSY59NmfteRnSYQgpYfD7Sbq+kfwt+eex4vP/RUPkQXgQA1u0bSsy9IwwHMaYsbpD5ZnpXfu0kI7Qul9+PhARU5IrULYCiRP6GJgb+IXyCouWYVIgbbdNvqq6DyHfrM5kCanp8Z+ocX8TW/5gX16C6Uh1yJltkH8ssqYDnhpoDJ9eVO7D7QBEYVARCbPtrr23skLoenFZFOuCP+NxxQRdO9bCgweAVgyWj8yyM+vMRGP27Enr1bqH0S85VauB90wb3ywXnwy9jkDBKqOLCallkltPNi6y3ZKKRX+cXhr6kTcGRaAQDfakp22fX/z+52Yu3MnfvnjKeyVdZTihKxP78M5YTThMhphk+OsEwy/FkMlRbAe1QUmok9LOs5m6W17VJOWmu2UJs72mryQNqegP3THcNZqu0brbOw5oqsqwrdC2boqADePVndhD0UvfiTrNRvhYqNk9QN6cRNpcAtq40zpcJf+hK5ygeQDkfwNdlhwikitZ/GVtKbWFdNHxmK6TWXCFWFk5thFr9tV0fr/t6ZKvQ8fsjBTyfgA8p56G8bJHHdmwRurDe2QNjawiVnKsAQ5B49Joo934hpMGiGn+uhL5kY+jUydVbfSc7RQvNsjn38xZtvFivMDMWp6ikO7jupz4f8zASYwkAh0OUV1qKClW/CGtIW9B8Jp0v/s/fNppzCjZOKBEC3t0LD+ZTy62EmTiwvpeO89/e5Y/tPX4sX1K5Fi8nRTDosnIWgt/vbG63hqSYS5eNOWh4/f0m9z7xF7B5764xrM1vp1nKMka6UFd/8V/3xgln43NTtANB99C89s1tc/6sa1uEXrJLko/3NsPiREIFqetfpx3D0zXF8mVyWirrkPT9yuF+aq07bg61I7CnqpTmk+iZNCPSOqCdcsMVhm2M48fOEjeGp1PPzbqnHwjY14L5ekvCA/64/RObntpC6bX3Q1FfhBPJ0VYVgVRQPhLkqeca5CMq/3CR2HP4cJR9b64OM9FL9NTMGd3n3sT8lnFJ6JH4F4wzjTRxmOJydoEUmDQd35PLxfZbK2hsS+D0qEl1xXJGmn4Lf0Nl0aerjQLmfkk+h3YTZmFT/VI61SjDooXvRE3O1Hu71J1RS7wI3CC5NjEe9iko8egVP/HzZRi2eTVLTrkFRgxIwZiY0z9NtaFx8txlemhm7ttXgvXS8CBSXE4qXpfmRary9OkDoUT60YoReZKkvxRvZAcszQTru06b0YB40Os57UdkmUlhCqySIzNgYxsfEYqTcF6zJGv/3oOQ7T71+HUcIptQgkuCfe8yjixGS8iXwEfWOyfKvtGApyxMBagQjyXZQ4yng3kng0bjWWPrgaaldzwaazXuR7Ytlr+MVD65GYnEhLD40DbVpyFLEUc1culJaItp5KR4mlU2n3hVj8t4+w+MYViIgw7CojEnbXIGLxekyJEWlVojDTwgKh8G2kfiesi2gXtZWv4YYbFyLA4PRa1MF7xGyMv/kl/OJv79CEzHTgX4BjX6ZKE3zv5AexeDEN5KV7muo5cR2W3ujYW2URk4MMAQ8/PHDTSCz21w+xFEoV7lkeg8VCiaYlO+99b+5F/NyJQmwRwjPFu2dFNJYHGzoSt0GYNysO6yULaNrOntTqDJns+u3Q+Xrkiy7bRYUl1G9aCu3OKtfFlkakkRXOw3u2IuW7g/hryXm91YqzMpBLp2Uf8r/7UTLCVM16CokzptFGDuJEuq81t2HCLdfrnZSXf4FT2aZ9A/kv+//t3Q9w1OWdx/GPQBIQCBoDhiYEQ2IkARMDNBSFqOQQ9SwHo6Qo/mXKSCkF0fbm4EZN9UasRe5kOI+Wjq0UKuB5aRWjFQkUUCQCERvzBwmQkGACS4BAKPnb+/52EwibRUdY1rXz/s3sZLK7v9/z7Ou3+/vzfZ7n++T90ZOUPvIHGv7AgzYBjPMbtIae7z6t9DtS3ROtndq5XAd85DPyVZWvfK71kJaWVLmvESKjR+q1YYka12HsT+/uV+gumynut2P/WUvj2pLc+9po0yFtc6ZNvCxc9wxOUNKXRxiUlDhWa9PTNCPKZkTr8N5Ia0h68vo49zVNQ221tnnaJtpKbNLa0iJ94sSLrGf84lEWCIw4GxQKC+mp730nSb8cNV5r02LdE2d8KxdXviqc2VVtqvmRjzyhgW1DDxXizLi5QPc+MEZdvRoB/Ps5G1Rjs3Q6R5puNhz61rQvz41Uv2GJPnZ6QIUMVsbPlunWDJusoT2uGBKpq4ZOUcbM1ZrxH5awu+Mp5fjb+jjfc+6Mz1qgjBFtgSn7nAMnLtBto77syta/n5itIYDApRH4ilPB1ynUhmO98owW9nrKWptjbUYXC9TYo/FvFuiwwEb75A82AsxvS3Xu88qOeErz779BUTc9rGx76G+NanRmP+sQq6ne0bnIkx9Ycuqlofr59NGKGn6P5tvDmdqsscXWbR/utWNL5xXP+4xNk/3qIv1p+AuaHJ+gyXMe1kdzf+2HGbyO6p0lizQk+t90x4BkTZ7/G03+qdXTgjDtn7Gx7E0t/O88r/QToZb75wVN6zjMrk+sp/YDJujfF48++0lairTmySVa755b2V/LUW3O3aL7h1uvrxse1q/+MEHVLssV5dzrO8G6p5/XO86J1L1cqZHjRivC3cIeYfX+L62c0f6a19/adzX/gUXa9o8wOs2CKr/am6C0xCt0w3XWxT6+qS2PRYs+KnxXs6va8hAYgetgoV6J7ac5NgX7uLTxGpdq723pot5Okm5Ler3p02KFpgy9NAmu/16vTQebNDJmhF6LTnPPwhXWnhy80S5SC3ar+JxeVy1aV7xdf7hytO6zxJ+PWEvqI9aloqFrV3dLpKumQp9EWE+lTg2ctt7uXdoUNVIZ3ftrzuiJmtFkM6FdFuLJ1+GUVXxaU4fEXprWxpNH9N6RPrrtzhH68LZWu6G24YFtR8iGA2Wan+dp/e/4jSz7qFg/H5Cm54b00Kh/GqYNY209xye0LQ5/6qhetkQOW8+5WJZusffOjesQq+/dNjzl6hgtmt7h8tgCUr9Z+bnecm7I/LiUWeBr4419dEt4lJ57LFJzbYr3ulZPQGvnuu2aXxpMwa0L++A12zere9oUTfrFFDVbfim1TU8sy/lTtHyBPj0nX0+DynOWaXeqBZf6jNGtT67XmFMn1BLS23ODeMq+lzkuDc/K9N1K2qW3rkq1GdCch1W32Vm3i/Xaap8m2YaVbV6+3DMczevjhF05WPHfn2fnzHk2AtPyYJ1ulDuvkvt42KAjm15U3i7vQJVLZb97XO9cvkjjRkTb+gvsYeU6n9Nm1vGs66xvN65e5TV8sEC51w/SpJtsvawlmnW39XhqtXWc36NrvYpqMpXsY/SM12YC8+/lcVqcFqeYM70abUpt941KiG52pt1OPFuNw1U2JGmf0xXkm1+Kig8p/LpYLXosVgsa7bdkxwN3tW0Y2XtvFWmFdzUbj+r5N/ZryNRrlBwVo+dmxehpp/dft26eGfssZFFZUKz5O7xOfPa9m3nvdRrfoTdY+FWe40rflCStGXj2d9zgqtS8nGqV+ZOn+ag78HXbaBvCm2HHzRE2pO5k28HuyEE9/lrlheWE7FDHhrpiPfJ+gSq9jqH+/Bi+t2Uz0K3LVuE1y5SSFK3+E5eo/wTPCF4bOe5Z6nfpsxVLVHv2VO15/otl2vFWim6amK7LUx7XGHt4Zr7zvNx6YLl2vLnFLxOStde9smqbZoeN0i9tLHVMdKoW20PNTs8va3TpcKXvHhp23qVeK0v36O6RCYq5Ok3/d3uKTjR5vkPHD27TXX/94twesnZujr/aZkBzHrbNBud8bedN93WJszjn7MJ9nb5zDfW79ZPtofq1NTglXWFDDG+yhzPDp10fnrm2cNY/emkbh87L4I8XrAFi2+u5Sp5ljQWJD2rKSz+w84L9fsM8x/bm8lXasGeMxmV2DuKEpWdr8h0dhh53t2CNmzRJGfNXa9gZljqVvT5LW8+TkLq54FV9WGRlJFuy7cdzleKcl5x1W4v14bPTld/x5GA94ja9mK2eT2QrJSZV6dOXKX2anRucU481gJz5CrV4Zv07S3RC5SuzlT/oRaXbeqPm5GiUnceabcY05zxUv2u9yq/N1EB6rPrjW8U2EPhGBPwYOP/Q4gAACRdJREFULLL6283v+oUz9fnWe5R1+2i7CY61YWfWl9USL1fs36PPtryrNdb7xn/LSRWs+Fc9uuN2ZU0aq5FDExRl5YW2WD6hg7WqrihSwdY85W74xEeqScs/8sdn9Ohfxyrrnts18voExV5p6+qkqvdXqNymsv9Tzrv239dYGi0h80v/q7SFlrcofoJ+9lC+Hl3qq+yvsU3nrTVbtHD2Y/rs3vt05+hkJURawmurWe2BChVseVNr1uRpj4+KRkRbPqNEHz2cekTY8x36upuXJ1DzNev1FW+vtdni5v2iVtMmjdaQAVGKGtBWpk2dHuGjWl+xuX/Aly0oVLpRs5uG6UfX9FeSdQ/3JDG1v95DU/5eZzMt5elw4lBNjbb8RDYVe+/LTqvSVaG1ewq19Eg/LfbRU94/aC2q3LNR/+MaqjmDYpTWq7ucKe33Ht6nV0p2a+0pHxd01kL57AfvqywxRff1j1RMjy4WOD6mbZVFeqGsVTMyLVjkq3KnKzR7U5NmJCXprn42q0qo3cFaWcVVFXqltFjrLk/TVF/r+eM5u5F7/bXPtfWWa3X/0D6KsYubumP12lm4X/+Zd0hFvm5WnHVW56tyeJymDeurYTZoP9yOqnV1J/TZ59VasaFC73nfGNrFdN++fZQ8oEOwqL3+FqlOHtAerbYnLYDTz8fbLvrj1lXrid910dzMGI0faLmiLAjZnmPlwHk6fl10mQHewOniBXp9Y4nGTrxT8dZrJ+y05SPau1mfvrVE+YVOrxyvxbVKOdmHNSrrIaUOHaw+zswBJ6pUVbBe+W8s0e6+2RruvY77fwvovL/IAnqZirfvbXR0nHr2siCTDTurrylRVeHbyn9ztaosINdpadqsDS+/qEOp6Za/IkmRNgQuzHoINdsQhpr9+Srd+Ko+3lriyQnhvXJTiT61G5Dy9Id0o3X1H2j5UXo6vZoaXDpea3kybGjM7vwcFXUKNFVp99IHtWL/LI25eYxNk2wtv032ObfnavOqVeozzYJF3mV9U/937alBNr2204PRe+ndy2Ze6vBk32Oenog+lL1XveT/N5SV6oHtxzXvlhh9z/KWhVtDVGWVy76PZXp5n++WjrryMmUtPaaZNw/U+HjLkdXLDiTNtl5Nrf6cv18v76r3kSS/mwUG7FjiY8hQWLjlUuvY1SfE1WnY4cVDtGrr+zv148Zr9UPrspcc0cOGObVt1W4Ww5xj18XGnZvtPHfxFb2wLbSWaN+yKTqe8UMlfneMIvpF2ixnDWqqPaja0re1Z93vbVicr2+cBZo2/UQbDk9X0tg7FBVrx58QZz2bqWznahWvy5E7R71fF7uesJnJJh2OtWHpccqw/H4x3e030dok10nLmVfn0kfVFXrjiyPnBny86nDicIFm5J/WnOtsG+HW4yfUczESGtL5RFS8f7uebYq13EORSrLvW187X/e2YWcn6o+owBqFVlrr8KbzfE6Xq1D3bvxCd1vj6vf79VO85WXs3dUawU5ZXeuPqeBQpdZVVXUKNPmV7BJvrGH7PP32hb0a+y92Dho0yI7PzuG5ROU7c7T5jRxpQrrPGnSLsBk0Ewb7eM16gMbZuenMK5YXz8dv/8zLLSXa+dKP1TxlltJHpFrv07bJHVrCZW13nRdXrt55qkRFmQ9q2Mh0RdvEDJaTXw3Hq9znlJpSm7xhS67KvHvInrLzmAWfau6ebuXcYLOAhqrleIn2fvCq8tY2KGNhZueyeAYBBL41ApclJKV8aTvDt+aTUFEEEEDgAgTCLHHxh1O/o/C6Sk1fVKqNF3tzcwF1YBV/CQxS+jM5utV6xpT/PlOr3vPkbPDX1tkOAucX6KGZ02/U3AFSwdq/KCvfV3T5/GvzCgIIIIAAAgggEGwCnZsKgq2G1AcBBBBAAAEEEEAAAQQQQAABBBBAIGACBIsCRk1BCCCAAAIIIIAAAggggAACCCCAQPALECwK/n1EDRFAAAEEEEAAAQQQQAABBBBAAIGACRAsChg1BSGAAAIIIIAAAggggAACCCCAAALBL0CC6+DfR9QQAQQQQAABBBBAAAEEEEAAAQQQCJgAPYsCRk1BCCCAAAIIIIAAAggggAACCCCAQPALECwK/n1EDRFAAAEEEEAAAQQQQAABBBBAAIGACRAsChg1BSGAAAIIIIAAAggggAACCCCAAALBL0CwKPj3ETVEAAEEEEAAAQQQQAABBBBAAAEEAiZAsChg1BSEAAIIIIAAAggggAACCCCAAAIIBL8AwaLg30fUEAEEEEAAAQQQQAABBBBAAAEEEAiYAMGigFFTEAIIIIAAAggggAACCCCAAAIIIBD8AgSLgn8fUUMEEEAAAQQQQAABBBBAAAEEEEAgYAIEiwJGTUEIIIAAAggggAACCCCAAAIIIIBA8AsQLAr+fUQNEUAAAQQQQAABBBBAAAEEEEAAgYAJECwKGDUFIYAAAggggAACCCCAAAIIIIAAAsEvQLAo+PcRNUQAAQQQQAABBBBAAAEEEEAAAQQCJkCwKGDUFIQAAggggAACCCCAAAIIIIAAAggEvwDBouDfR9QQAQQQQAABBBBAAAEEEEAAAQQQCJgAwaKAUVMQAggggAACCCCAAAIIIIAAAgggEPwCBIuCfx9RQwQQQAABBBBAAAEEEEAAAQQQQCBgAgSLAkZNQQgggAACCCCAAAIIIIAAAggggEDwCxAsCv59RA0RQAABBBBAAAEEEEAAAQQQQACBgAkQLAoYNQUhgAACCCCAAAIIIIAAAggggAACwS9AsCj49xE1RAABBBBAAAEEEEAAAQQQQAABBAImQLAoYNQUhAACCCCAAAIIIIAAAggggAACCAS/AMGi4N9H1BABBBBAAAEEEEAAAQQQQAABBBAImADBooBRUxACCCCAAAIIIIAAAggggAACCCAQ/AIEi4J/H1FDBBBAAAEEEEAAAQQQQAABBBBAIGACBIsCRk1BCCCAAAIIIIAAAggggAACCCCAQPALECwK/n1EDRFAAAEEEEAAAQQQQAABBBBAAIGACRAsChg1BSGAAAIIIIAAAggggAACCCCAAALBL0CwKPj3ETVEAAEEEEAAAQQQQAABBBBAAAEEAibw/5i8+h/5D8wPAAAAAElFTkSuQmCC;" vertex="1" parent="1">
          <mxGeometry x="70" y="1230" width="1163" height="109" as="geometry" />
        </mxCell>
        <mxCell id="vrRyt4MK6rro84GM_9L1-7" value="" style="shape=image;verticalLabelPosition=bottom;labelBackgroundColor=default;verticalAlign=top;aspect=fixed;imageAspect=0;image=data:image/png,iVBORw0KGgoAAAANSUhEUgAAAq0AAAEICAYAAAB1Zc1rAAAABHNCSVQICAgIfAhkiAAAIABJREFUeF7snQl8VOW5/39MJjPZJgmTCSGZkH0hCyEEDGEVWaTiUqlrrdoNu1hv/2pbW731Xm7trbV1u63S3mqtpdor1YoWAZFFZBGIECBAAtkTspLJkGSyTZbh/7xnJiGZOdknYZI85/MZJWfOu33fd875ned93uedFpOQcgV8MAEmwASYABNgAkyACTABFyagcOG6cdWYABNgAkyACTABJsAEmIBEgEUrDwQmwASYABNgAkyACTABlyfAotXlu4gryASYABNgAkyACTABJsCilccAE2ACTIAJMAEmwASYgMsTYNHq8l3EFWQCTIAJMAEmwASYABNg0cpjgAkwASbABJgAE2ACTMDlCbBodfku4goyASbABJgAE2ACTIAJsGjlMcAEmAATYAJMgAkwASbg8gRYtLp8F3EFmQATYAJMgAkwASbABFi08hhgAkyACTABJsAEmAATcHkCLFpdvou4gkyACTABJsAEmAATYAIsWnkMMAEmwASYABNgAkyACbg8ARatLt9FXEEmwASYABNgAkyACTABFq08BpgAE2ACTIAJMAEmwARcngCLVpfvIq4gE2ACTIAJMAEmwASYAItWHgNMgAkwASbABJgAE2ACLk+ARavLdxFXkAkwASbABJgAE2ACTIBFK48BJsAEmAATYAJMgAkwAZcnwKLV5buIK8gEmAATYAJMgAkwASbAopXHABNgAkyACTABJsAEmIDLE2DR6vJdxBVkAkyACTABJsAEmAATYNHKY4AJMAEmwASYABNgAkzA5QmwaHX5LuIKMgEmwASYABNgAkyACbBo5THABJgAE2ACTIAJMAEm4PIEWLS6fBdxBZkAE2ACTIAJMAEmwARYtPIYYAJMgAkwASbABJgAE3B5AixaXb6LuIJMgAkwASbABJgAE2ACLFp5DDABJsAEmAATYAJMgAm4PAEWrS7fRVxBJsAEmAATYAJMgAkwARatPAaYABNgAkyACTABJsAEXJ4Ai1aX7yKuIBNgAkyACTABJsAEmACLVh4DTIAJMAEmwASYABNgAi5PgEWry3cRV5AJMAEmwASYABNgAkyARSuPASbABJgAE2ACTIAJMAGXJ8Ci1eW7iCvIBJgAE2ACTIAJMAEmwKKVxwATYAJMgAkwASbABJiAyxNg0eryXcQVZAJMgAkwASbABJgAE2DRymOACTABJsAEmAATYAJMwOUJsGh1+S7iCjIBJsAEmAATYAJMgAmwaOUxwASYABNgAkyACTABJuDyBMZPtE4Lxm/X3oXcW9fhl9ox5DLNG7fEL8b7K2/HqVtEedbP+7HeY1jo0LIOWrAZL/zgM7xwy3ooh5bkGl4VjCW3U12pvk9kJF3DeoykaBXmrN0t1f3fF6eNJINrkEYN7Ve248svH0PGIv01KH+IRSr88Ksfr0L+L67Hi/FDTDPul+kQ+q2D+PKL25ESrxn30rlAJsAEmAATGBsCrq+dhtVuN6xJvh6/jbAKVHNHGwxdIoMuNHQMKyO+eMQEfLDwlu24O9wxg86OJjRezkN+wXbsyd4Do9Q3k+DwWY4Vycnw7MxD1vE9qBlJk3QPIEmIVcMW5B6rGEkOkzJNYHgovh2vBmov4aWTJpiH1EoDyndtRVzygwi/7esofuEVmCxDSsgXMQEmwASYgAsTmFyiVanHnaFCsLbhwMl9+GF58xAfci7cQ5Ooakp3H2hnpGEhfeYnLMJbHzyDMy1j08DOlioYG1Qwtg5N5oyqFt5pWDJvPbQdB1CeRaJ12AJJg6C190LrbobhwDtoGHb6UdV+mIktqL3civLOdjS0DzPpCC4PDA/Bt5eStbSwFX8m0Vo71DwqtqAw/x6kxt+DuJR3cOKUYagp+TomwASYABNwUQKTS7R6+ULvRqQ76/BJJQvWaz7mSl7Gzz/eDsnIrfCBpyYZ81M34KaEcCinr8Y9N5xFyfatMDm9ou3IPfgg/vug0zMemwz91yMmRQe0HkLpF8VjU4azcrWY8NKfP8dLzspvzPKpwMUjh5AUvwohK25H7qnXMUbvR2PWAs6YCTABJsAE+hIYP5/WcSCvdnMDTSQCV7pgvjIOBXIRgxBoR0dXOzrFp8MIk/EA9u97FG9dMErpPMNuxnx2OYRm4TroaOB2XNiOytZBkPLXQyZgOUdW72Z6X6JxFu7CbsJDbhBfyASYABOY4gScb2lV+uK+uBTcGaxDlKcC7a0mnKzIwcuFQ5jzVHhjTWQC7guZgSQfb2gUXTC11ONoVQHeKCzDKQe/VHd8M+N2PBFo14vuYfjtLfTpdTr3/A58JZ+eYM48FFpEzH4QS+LSEBsQDI1Khc72KtRUZyHr3FYcKslHZ3/lucViznUbsCY+DXovStdWivz8Ldh2ZDtq+vX19EFQ7INYnZCB2BlUnjsZ59qqUHHxAA598Q7ONDT1V5p0Xum3GivSbkaKPg5aH7J8oh2mhnzkF+/G4eztKGkZ6nyvCtr4Z/DDlRnQoApZe36Kt/NLByz76pdGnDl3BMb4m6FVhCMiSAWY+par1JCP6HXrkTYrDgFePqTmjKgznsWZM5uxO78fpm43Y8N3nkCC3WuY8eRj+O/Ps/qvW/AT+PevUF3a9uD1N19CY9zDuCl1EWL9abUglVtTsRs7D76O3KbeddRiyW1b8ZVZdtmql+Mb3/+s78nLW/HiOy+jot/hPxvBqbMpDbkGnDuEfi8TuapmYvNTSVhEtulNm7JwNCIa38+YgTR/+hm3m5GTX4nX95bgk/r+mxsaGYqHl4Zgkd4bgR50XZsZhaW1ePdQMd66KD9a1bEJ+PyBEPj2ybYT297+DI9f6K8sJb79zevxs0gg55PPcXe2Bx5eG43bYjUIpS5vNDZg19F8/DrThMbeWShn4NWfzcGNdE2fI5rq8IuEPqcaT57C4q11/bsAdRxCZb4JoamRCJ6fgtyK7P4qy+eZABNgAkxgAhBwrmh1n4GnFy/Ffb5ijp4OC6kvT38sj12MeX5lKJzWPxG1hx6/zFiIWzRX05otbtD4BGBNbACWB8/Az48cx0dtffOoNV1CrtKWRumNKI0H1Fc6UF7f2GfaubClXyXYf6UG+sYjAzfd8jRWB5Gosh2dHSRsVMHQR9wMfVgaNP98ENsuyQhBRTBW3EzT5LMorVApJLSUXuFImPsEQj3MeG7PHjgY3EjkLlz9DO6OCbaWZmlHq8BL6WLiH0BMVAb273wC2y5arZh9q65CUMLT2HD9cmhtqCCsnxYVNNokpIlPAPBTmqqXly19c9PGPo3vdwvWfcMRrLZ8WoxoldqtgtJdqJOrjDyDHsaGW+9BhGQyJ08PwdRdi6Dg5fTJwJzQ5/CHT/c4uhRcqUNNVT48bSPa0y8WQUKUDfnwQcR1L2PF/FhrZAdRP7UW+qh7sGG6Cn/Y8jIKeoZQO4mucyihlxTpcA9AqFYLpaUJNbVVffuusYo4D1AJ3VIEBdH3lvOoJYE1tEOBxOvT8O05GqgtFpip09Renpg3NxqvRvvj12+cwp8dXDgVmJeRgte/FABfm7A3t1ukdIkJYfjP+EBc/+FJPHKy1VEEtjQj62IDZkiVUyJQCN7hzNH4BuGV70RjhVC9tvHuq5uOu25JQygy8WBmr9FuMeMilZVjQ6vWaBDtT4W1tSKntu9vqaFO5rfVB6AJhvwiWFLnQhO/nF6wsh3HjRxwtzB87Xev41tx4stqfPiTDfjdqcHKksuIzzEBJsAEmIAzCThRtNLK/YSFVsHaXoe/nzyGly81w6TwwPLohfjv2WFI7a/mCn/8v+usgtV0uQAvn83FP+vbpIenzjcMj85Nwx3+kfiPuXW0sroYhT35dOCjc5/hI9vf6ulz8dGSOIR2VuF/Dh/DR2PmIhCLFV96hgQrPVnNpTj2+SbsyT8Ko7AEu5HQCf8KWQoz+mstELIea8z52LP9OewuKUWneyzSFj+Ne5LDoYm9F0u+2IM9Db2T+yBhqU2wtpzD/oOvYk/ROUn4Kb1oYdPiJ3BbPNVp9WMo+fvTOGO39sgz/FFsWEGClZ79ptIt+OfnZJU1WsWtUpOB+XPJejvEaXpNDAnWVZQXyGK6nwTrhaFaWHu1x0sLMsLTIdwGeokB9+W4da1VsHYatmPL7teRJerpToI+7af42oIkBCU+hnuqz+H13Kq+fC1Hse2Do7ZzIuTVdnwjxt5c13+XQJWGFak0vg79FP88exSmK9SPsx/DN4TQn34zVsRvRkFO9wtBE84cehhnurMLepSstWIhVhZ2vk/8BxKpdlVQRKZCaDIYi9DQx+Q4QF1pRmLFHAvKT5/D49urcZJe5AJnhmDjvfG4URuAx9aH4chrZcjplYVaH4lnbYK1/NwFPLW9HEfIMK/28cO3v5yEx+I9seLWJHz74nFsshO85ooyPET5SYcIefX4AtzV1+w6QGWB6AWRCK0pw1Obi/GvS51Q+wfg4buS8e1ZSixaGopFx/NxpJuZpQG//uvxnvwSl6fjQzE4K0qw4a+VQ1+IZcuho+w8mi0kWmekQEtrNE1OnmwZsOH8JRNgAkyACTiVwHDsJQMXrA7DfXph2urC0dzP8YwQrCKFhVby53+O58rtTKS9cgsNnYv7/MkE2FyAfz96En+3CVZxiaGxDD/PPI2jJAg1gXG4Y4jiauDKju5bzxgSeXoSRJYqHNv1MP6RYxOsItsuIyqKXsfb7z2BPZf7sc64NSH70yewUwhWkaYjH1mHNuGEmN1XxCJWbxfIdvq9uCmRLKxdpSR0H8W2AqtgFUk7W7JweM/T2C0sul4ZJK5sltieJsZiSYaYiidXgoub8Lsdm3oEq5TedBTHSIC9+Olng1pZNRFP4PurV0M7zYjcz57Am7kjEKwkd+ckLaL/0mEpRXkv65kmZr3Vx7XjHHbu+I1VsIrrOkrpZeXn2JIvAJGAT1kPYZx06kFW37rs3+Ct0yRYhUXVQv2Y8xx2FokyVYgITRuD2LpqaEhMSj/CuuLhhWWqLsbjW62CVSSvra7E4/8sQzmJP7U+FHf1CTmmwI0ZoYgWBV0qwePvWgWrSGduasCmLefwrtDjSj/cn+Fn9QsXXzrpUHdexktv5+NdEqzifaqxvg6//rAckseQ73RkjGXc5ktFkCZZ3KPgF2Iz3zupXZwNE2ACTIAJjC8Bp4lWDfl0zhN2285qfFRlL1A7sPtiORxmLKW2euAW/QzpQZlbmofdcvPT5nIcEH5603wxL2BYc75jQJNEU2wG+YNSUyu2YufFfvxISby2Ovjg2qrTdATHyuzSdZ1Fgc2VQOPfV3jq45ZDTz3VWb4V++XcDZCPM8XC8qhCqN5OXGnX0PS/KJd8T7/YCmM/VsDWNjm3gqv4NOEkWL90M4KEYD1IgjUnfwhsVXB3IxcA6eNDrgjLsWTly7gn3qpSWi9ux7EeizJNz4clS8Kwk/xIjznMlAtf2M+sL0LaNCQ4++WFBPSZ81l2wr0J+VVWYe7pG2zn0zmE5g/hEi+tTrqqo77WGmVhCGnEJTnZNThp15fmi9XYJX5kCk8siu61mYZCg0WR1kmVnOxKh3TobMC7Z60myMAoHRKddlewNsZcWIl/2f9MDEbkiOX8VNdZ04fY6JFc1mEQngV0aOClHaLlvcuE6guncPKU+OSg1M7neiTV4DRMgAkwASYwegJOcw8IpYVTkh2jpRE5MmLN3FCPApqu19n7tU6bjkQ/a0NCwxbifXtDoa2NGtszWOdBPqsUh9VuBnz0JIaagyIO+gDrw6+mImtoPnL2eTeUysTyJB9Vs7DMquDl1luRaREaaIMSuB4b7rzZPjfpb3cP6zVKb60krrolqGdQLAKECCF3hHxZwSubXZ+TXjM34PspaQgS/rBGWphEglXu3cIhp4hH8cvvPepwWpzobNiD9/f3DncVjCB/K9c6Q56jT69IZMiXuGnIJ3iGuNaZYqKrCuV9XDKs1W4120aamxq07s3JhwYenlbrX0e7g0ofoKx2nKty8Hqm61txroZ6ZoaSxoz4PdrCvnl4I0ZyvW5HYYVcOhLBFWJBlDd8/b0QQ3eFk/1MEgxQqX6/Kq9t7rvYSrqy0xbnVQG1SgzQft6m+s11qF+YYPVAof7zFC8IQ+F8GXt/9wT2DrUIvo4JMAEmwATGhYDTRGugyvZIb2+TfyzQwh+TUDr2T36lBzS2WohFV33XB8swoLBW1/YgUSgZe2kxTpOdX+VQK0aB2eWlgy2DPpauAGg8rWJOLNaK8BqkkGl9p0A9vTTWae2WOhhH6OOrIeutRvif0sItpXY9vjJ3N35/ciiWVru60o5YRrEjVtF2fEY7YtX0frkha6Cvreqtrf1YfTtJWImpXprK93K2wb2rCZ2yfGzqjcp0/kEN7rUwbsj5WzrQKOubaYFJMu8raYGVUnp5kYLxU3QKCS2lI68d+YMiRwiXWl+F2hpVwImiVSz4kj1sp8eC7NXy2qT1oNLhZAuybJv4JBNgAkyACYwZAaeJ1tHXsBn/PLwDP+9Hr4w+/4mfQ8WxDXiRFq2M+0H+nbkHf46dbj/AD5cmIWLhT7H64sPYYxhE2ZT8hiISbB+aVXbcG+UKBTaCFstLh5u7s/0dhts+sngON8mEuN4DCtuLsoVeFvlgAkyACTCBiUvAabaH2nab2UzlAauXnh0U8mvstqj2+aaTLLPSXLMHWXiutRV1KB1pRKPksquCr08/vgxDyWbI19SR9cz6sPXVUFyqYR6tLSaraPQKoAVUw0xsu9x0/iW8efYcKs68hJ1VVBcKv7Vm1Qbr7mMjy9IxFe201L3jqqdnPytzlGSNlYZIO4YcUtaxJBc60462Rut0tbuv79ANgaTCfHu5rF5tkIKs8laFZm7rvDolT7AkbUzpZsimo+/IMmu1xppRa++S7kLEhl0VtwCQdwQdZrTVy3vVDztPTsAEmAATYALXhIDTRGs5zVdKD0baSjXa3gWATqv9/BEjJ5quXEaO9Nx2Q+KMGTQN7eKHJQ8VtviQQdK0+VgfRpQbrG4IGopTKhZkDedorc1HnZiGVScjdubIJmJbWuuswteSj/17KfQTvZ8odevxteucuaKefErrreI8gKJEiIVuDoeOYq9K7o9VuGR0QauZqJvcGHdoSPcJM0w1FdIfCn89eZQO9VAhKViOkCeSgqyTJ8KPtMfvu60ZBdJCKBWi9XLpgEQ9vRCISyhyR/mQHJaHWtfRXWcera+rRg8vcT+yVMJU20NkdJXi1EyACTABJnBNCAxTAvVfR5OxCifFw045E7cE2zscumPNrFB5CywtqtpdcckakzU4Gd/q3phApiiNlzdChyUKZDIZ9akm5FJMVuGTqtSvt24QIJengnackhHvcpcOdq4i76h1R6Xpayj0VZ9YRn2TUjxTrT16w24KcSUu0yLtunusok+mQKVaWqkz+NHwN2w5SiG3SAAFzXsUNwUPMd2gOTehpOysJI6VIWuw0OFtQITKut76klCfhSHH4R+0XCdc0N5k9VEmq57vMPu85WKuVVzqZsNnGGkTU4Iwz+7Xq541E2ulaY5WZPXe/Y2s2EeKrUo0MSXEIZ0IdXVXslUy15YakNWPC6oTSA07i8Y2W2W8VbDf+G4omSmCE2jhnkByHg1DNrROx6rHfoPfv/Qyfv/bn+HL0UMpia9hAkyACTCBsSbgNNGK9jL8vUKs8nBDRsJiPEHzkNJ0o21zgZ+G2qupq00rJLHyd7HCRumP72Vcj6f1/gjtrtk0dyToIvHEvDXYcf08LHcBL9zWgs3YU0GWPlrFvnDtJtydmAFtt+CgrV2Dwh/A3V95GatpJyWnHMZ3sPO8sLZSuK1lL2PDgtXQe3TnTW4XOgoltfg5PPHgJtzkYE0l6+jRPVKoK089RQFY9zDm0O5N3YfSJw1pGS/h8RVrhhyH1JhN8Uul9odjxQ0PI2YYYmsgHqaCrTghrO7uSbhp3RMUqssmiN1oc4EFv8Q9seJvemk4tRVW++RAuY3jd415qBGGX4qxuzA1Td5K3F91SjJRK96A1LMROGsYXqUzabOAL8/EPNvPKnDmTLxImwqI342Zwsu91SeErgWfHLXFRZ0RhhfvoG1cbQv6xOYCD9+ThLvEkBChr45cvnaROWQYNVaZpNizmDET98cO9/dEcXCjZ0trPy2FxFkmqolMkXQL02BmTCoSkxORmJqIcM1wy5XNlU8yASbABJjAKAk4UQJ2YXfucfx9utjGNQDfXLgO3+zsgplW+6vJOmqgHXFOaWlXLDmBY6nD/xw7Bl/axvUO8tu8L20N7rtCaSWzmzW91M4r9HSXXeE9SgrDTk5C8OOnoaFtXFcEhWPhDc9h4fVidyfKiLYlVdqmsPcPO9/+EtBCqANP4x+qZ/AV2sY1YeHT9CGNIWL5iBioPa8eTbJirrX0Oby+X2XdxjX8HnyDPiIOkLCW9liDSw70V7jM+VIc/vR1pNxFgpV2i7pn8QG8+JnV+ixz8dBPdRzAtl1bECS2cdXdjK99lfLu08Z2GHNfwhb73bAUSVix9geYQ9a47sPTz/pv39hH8W8hvVwJjNvx9j6KVzv0Wg1+ZddRHKaNFtLmhUM//yVsTKhCXZu1zM763Xh7599Q018uHYdQecGE0FQddInxQFF2f1dePW9pxv5cCxbNS8I/5iZYt3GVwkbRQVEiXvqw725Y4rS5ohhPfqLB6zfSlrNzErCZPtI2rt3paFvg/dvPYdMlu+K1IXh1fcjVl0ixjav0LqHE9WsX4MPlV6+/dC4XD33eX3gCu3yH+Kf5YiXerQjFY7O8cdcDS7C2vhW1tmgEjTkX8MC+hgFEdiSC4vWi9ag5c3C0jgZDrDFfxgSYABNgAmNFwImilarYcQnPHN6DwrgU3BesQyjt1dneWo9j5Tn4DW1/871V/W/lam6rwM8P7MAn4Qn4WsgMJFJgVh3VztTejHKK/ZprqMZnFaX4yFX87dpo29D3N+DM7HuwIi6NRFYwNCTIW1uqUFN3Dtnn38HhEcZFle3srnzafWsDSi7ci+uTMhA7I5xCb5EwazfCSKG3ai6dxZmC7ThxUc7Xsx01uU/jucrVWJF2M1L0cQjyIfcFC4WgMpaiovQzHDo1zFX+DVvITSADj1+fBm3io7i1hHYGKx29FGyt2YQ/bDlL2+CuR9qsOAR4kUKicFTGmixkn3sHey4I1wT7Q0OGOIpqIBMOTOlDYcJ6ezDQFL7ce5N9jsP7ux0lR3+K180PY3V8MkL9KOZsd12mBdheYvrL0YSaY4dgTr0JmqTV0HyULR8yrk9yC3I+PYU3SiPxWDr9VihovrmlFTkUxP/13SX4RGzE4XBYcPLzU/hyVSgeXhqCFXpvWviokNIVXqzFvw4U488XZX5cKk9Ez/Kz7qZll6evzg+Jvc4FVlgXcznXc7QZm97OAtZE47ZYDUJpBZq0sxcdjVTegEfQaoSItZLNh3Dx7JB9AwbMkr9kAkyACTCBa0dgWkxCikvYLq8dAi6ZCVxjAooUJPx0M+ICK1Dwyldwrqgf2aeaic1PJWERydpNmzLxkr1V9Bo3w7WKV8PvtvexYqUeLQe+g93vZ7pW9bg2TIAJMAEmMGwCzvNpHXbRnIAJMAGJgCUbRfsOoUOhR/jSlWNgCZ6CnNVLEbmAXAPMmSjYz4J1Co4AbjITYAKTkACL1knYqdykiUfA/MWfUExr7dznfB3hQROv/q5WY69FD2IWxfAyHXkdTvBacbXmcX2YABNgAlOSwCBOYVOSCTeaCYw/AbK2XtjyLJCsRxfFbIUtfuv4V2QylKiDR8dpFOzZi5q9mbwAazJ0KbeBCTABJkAEWLTyMGACLkLAUrIFuSUuUpkJXQ0DjIdfdG6EiAnNgyvPBJgAE5gcBHgh1uToR24FE2ACTIAJMAEmwAQmNQH2aZ3U3cuNYwJMgAkwASbABJjA5CDAonVy9CO3ggkwASbABJgAE2ACk5qAU0Srt8YPCtr5ig8mwASYABNgAkyACTABJjAWBJwiWseiYpwnE2ACTIAJMAEmwASYABPoJsCilccCE2ACTIAJMAEmwASYgMsTYNHq8l3EFWQCTIAJMAEmwASYABNg0cpjgAkwASbABJgAE2ACTMDlCfDmAqPtomkz8MvV1+MOjw58dOwD/OTScDJ0Q4I+GY9G6THP1xua7leIS8ex7FgxDMPJymWvVeDWe67Hi0kKlB/KxJc+McHssnXlijGB0RJQICj1ZswNUaC5aD8On28YVoZKv3DExkVjhr831O62G0JHObL2nIDhyrCy4ouZABNgApOOAIvWa9iloSEL8dc0PTSiDp0dMLR3SbVpo/+zsBtpx3ji1hUhSFJ2ICuzDJ80jjQf106n0K5C1Jp7EBqfAI2/BooOE1rqK9BQsAdFe/8Gg1F+BCmCbkLM2nsRHj8bXp5qWJoqYLywEwU7X0NNP2lcm8QAtXMLxtyV6QjqKkbmp9moF6JvegqWLYqEuioT+05WudYWr16RSE1Pgdad6nnFgs42M6Q7QkfbGNRTAY0+HkE+gPlSAS5e7hgAJH/FBHoRcPOCf2AgtP7T4a/Vwt9XA6V4v2ovRdbeU2P7cuURhIgwLZRd9agorEIrd8yUI8CiddRd3o7apmaUd3WgsXM4mXnglkirYC0vOYRvnq1C+aS0pFhgNhGfegUuttC/h4NoJNcqvPClxRG4UdUKdf7kFK3qpP/EogfXw0/dC5BaA68gEqL0UZRtgeGYI2lFxCNY8t0N0Hra0lkAha8euus2QJeYguxX/g3FVY7pRtINLpHGNxC+JAAthlo02n5bnvSQFc2vrzeOgRAUrbagw2xCa4sCre0EeBiHJjRSEqyWhjwcz8xF/ZjqSDf4hsQhKhAwdZayaB1GP031SxUzU5A+N+jaYPDQYVZ0DDw7y1FfRKJ1Uj4zrw3aiVIqi9bR9tSVevzPkR34n+HmM80X0d4iURuOVU1TTUEkAAAgAElEQVRWwWqF8smOTHyyY7iA+HpZAsEbkG4TrJaaQyjYtxWVhUU0ijTwDoyGNmEV3OXMD+5LkXC/VbBaanbi5OYXUF5hgjriHiTf/wOE6tKl/xtfeBENw9NastV0hZOOAtUdWi3Na1wxwTiGVmVj7n4czB0uAQV8fKQbAppr6YE8poJ1uHXj65lAXwKd7SY00YtfvfEymmmGICnMjxExgXEhwKJ1XDDLFeIGtZhSuUKuAFavALmL+BwT6EVAh9Bbvg4tWVgtFVtw+JVnYewlUM2GbBhzt8oSc08jlwAdfdVxHhfe3Ihym0XVXLIZJ9/Sw++H99B08XrEJL+GE9km2Twm1kl3+E+3CtT6boGqoKlMP/rRddDD1uWa6EYbtNh8WLv4hjCxxtrUqq2l8ij2VVxtszoidGoB4NZeUwIsWkeAXx24AAczIq2+qD3pB1+IlRC3Bu/H+9uV6I37lt6F+3qfdeJCrEU3ZmDzUm+Yz53B4l1d+PbaSNwWrUGo0oJaQwN2HSvESydM6M/1U+0fgIdvmIW10X4I9aHh0k7uEDVG7Dpegk2nm+XTKWfitZ8nYYVdbIrBFmKpI+Px6TdDEdhSiR88fwG1c2Px2KIZSNOppHILiyvx6s5CfFLfF2HiinR8uFLyDO51eOL+b6/C/b1PWRrw0svHsckuvV3CQf9U+yfgd9EqHC0twHuGZoyb/vFfh/A4aqelAqUfvNhHsA5caR2CUq6DcJW0lOxAqZ0LgKXkHZSV3YOkCA0tIloKRfbOMZo6H7iWTv2WBKpWEqgNMHZ3kA+JVsld4DLqnWlNVoRi7tr5CJrWtwWDLsSy+dd2e2t0p9bEr8GN8b3yctZCrKGWR0UbTm1DVqUcJAW8g2MQNSsUWlo8qiaenWa6D9SVoyS/AAZyAbI/vGNWYEkcWeIuncCeLCMCY5MRpddBQ4ktZLEzVuYi9wJN9Tomtc9qmH+7QxNKLhCzguBPVmw13b4629tgbjWh3lCFirJS1LfJZ6nwDEJYTCSCA7XwtjYSrY21qLmYh6JKk8zvwx369HVIohfD+vO7cbzSCxGzE6DX+cNTMGo2oqr4LC5cbJBJa6uDLhXXp4dD3VaM4+SD3agJR1Qc1WG6H9Vd+DhTvWsKcCG3HM22aXGFpw7B+hDoArTw8fKCp4c7FFc60NpE476qCEUlxNXZ70DjOiV/lWufnnIPRdpNdmK5KQ9HaIrD1Lt+7hrogkMRNEMHXxoDnmo1+d8SS2kM0JgtKIBRbgx0/1aEn+6+bJhDkhEbGQKtD1kMOs1oNpQiPzcXBrm0toqKRZVRkWEIDNDAU0WDoKMFzQ21NA5yUWKYRG5Y8j+hMTvLonUkaDsacdJYh0DpIeWOQH9f6OweWHLZtrdcxqnLXbC6IrojlNJppnXBYKpHbS9/WLOJbqxyGYzmnE8gXtgwEyt8KRPytTMrlAicGYD7vzwdi4JO4YEdl1Frl79veAT+9rVoJHpYvzALHz2VCqHhM/Ht8BlYG5GNBz6sQ7l9vSxmFNLNeYZNtPoGkOD1sr9ooL+VSFu5APcv1VhZiYeZhwqJCRF4NVCBhzblY39vXg0mnLxosXFVIlTvDV+6MdVeMqG2N0gL/T0sv+N+6qjwQGJIDJaTT+D/a6rCR6WFePtiFXLHeEpXEZtuXaRjOITSwmGMEMVsaPXWUWcqypQZW5WoLSHTSYQe7mGpFMViZz8uAirM+8HreP72mRKYgr9uwHffKusH0vif1iauxJyZ9IIjjmkKuIsmXwlC0oovWc8p3KEWv1NtEpasTKB/dKH+wn6crhhlx11pQ7ORrLe2nazdvUjo2KphLbif/3bSy+JlI8y2e4fam/xthahubUBj7+kXWmTnjGGLoZZHsqqxXabOCg30czOQFGz7MYvFYlQxpYeGxlcCtDNCUJJ1GHl1/fCk9BELUhCjo0YKYUHtVpAvti4yHemqTBw+XeWcdkpVV9OL2nLM7b7xWDpIsNKNROkFb3/xCYJnezWOlzj+jhT+cVhwXYL0giMOS5dIp4Z3QCiiAkIQFJCJ42dqZH5H1uuhDsWcxQkIEvdNWzuVPuSLOWcJ+VPvR9bFFtuF/f2Pxm5AEq6bHwNNz+7oCig9/aALD0VNPolWCbEa+pQlSAiw5UP9YaEFvRY3d3j66qCnT3BIMU4dy6ZFvv2V5frnzSYD6qWVXnS40b1do5aEeTPd9/uMtOYWdNoJau/I65AWc9WgYaG1J50WdxoGxJJcGnTBwSj44jCK+n2LVcE3djmiyGgj1UDkTzcWTXAc0ijcT+ahczIvwLTIMWoR0uJ11vsNJbF00Bhy94ImMJw+9JJx/jCyigZ4gbG2lv8rQ4BFqwyUwU6Z6/Pw3cN51st6Ql4NlgooLD+Or3YrvGnB+N3apVijbMMnp/fhmcuDpx/NFWoSmitING/621lsym+HWanCjcuT8eyK6YjOSMaT+YfxeH4vU4dqOn52h1WwmqvL8V/vFeLdS/SEUnnixqUJUrrQ+cn4VdkRPHjS7o5ouYxf//m4rbpXQ14Nuf7kbH9/hhlHPj6O/8psQLlFiXkL4vHiupnkexmKb80txv4TVx/jhSdzcffJ7uIC8OrPUmkhlhm7tlH60iGXOuQLzaYyvFHsjTv0wYj2CcYdSfSJb8apqmK8V1SAjxo7+n+gDbkU+wvpRqmPlG6clvJTMHmmI3LdBkTOmQtvWgHe1ViJhvy9KNhFUQDs3+I9o6ARLytUq5aaYmvGalr0E6ZBcwlZETrEeRKt0AN+tDiQHpQTz69VAYXKA2qyNPU5ppFQtb109Zynh7q6W2B2h5Xqm2p4f10xoODYQVuaqyGvBs3EVIzTR2z9QS+/+uvIUkcLo5rLMpFZOJiwGTR3xwtGVZ4C2kSbYDUbUJSTjZJqEtP0EFeotQienUrh+/wQkZqChgMnUCOnW7VkoSXXjIIvTqKktoXEFVn2E+ZjDokHdUg8wvKrUOSsZvvFIE5P4vpKC6rOZiK3vMEmaEj8abQI0kfBV07IuekQP88qWC2NxTh3OhdVJmoMrZjXRc9DSowO3rPmI8m4F1kVjoJXQPcNj4elsQCnv8hDDaUVVtuo1PmImu5OeUTCv5yEjp246tNZCn9EzfGDt7kGRWS9rqGpgvYrKnhOD4I+wq+PpdbS3oCa4lJUV9WgrqFbtCmg9puFmJQU6DXkbzq7Bgeza/q38DqOFBc6Q1F1cg9fDf/on0TRP8RCrBpcODKEMHBdLaivJKt6ZSUMdQ09rnjCQh02ex7igrXEKQG1B8/1tdB2E3CnvotsQ23uQZwvpRfMK8J6n4LU5FB4+kQhKiQPWeV9B7s6eB7SZpNgtbSgJi8beSU1Vms3jSFtWDL1RzC08emIubwXeZedPr3gQn03NlWxm8Adm0I4V1cg0IlPtmfjJSFYRXU62/HJvrN46YIQfyRgM0gQ9qpm4Jxw3CY8GdpJ6L5zwSpYxfftrZQuGxvPiDu+EouWhCCxVzqn/FOhQG3mGTzyOQlWUT1LJ05mXsAmqa4KpEVpbVZVp5Q2/Ew66vCXs4dwy+5t+GbWWXxELgJmpTdSZyXjl9ffioPLFuOJWQGIdvKvy4MsJ+JoM0cj+Ye/R8qSdGhIsKJLDXf/SCkKQMaP/oqEKDtXCV9fyTWA1omjrZn+p0hBwg/fwbIfbMaq72+Q3Fw6mm1WCxISZDibgIeFprR30IK/D+mzDacrxYPEjIvHxN/02XkQF4X/b1cVTu+ynaPzcpa2Cdj4sa+yTwziZ5EIJBeboi+OoKDKKlhFwRazERWnv7Baq9QhmGWz6jtUStGBquxMFAnBKr7sMqEm5ywqRL9M84M2wO6FwyGDoZ9QTyertbBgNxSjgGZ9rlrgyDpMlruK8yRkKx1Fp5JcH/TCX6PLgAsnsq2CVaprCwx5mTgnCVUSn5HhsC6bc6yToqsWuSfOSYJVHJbWGhScLbaKIk8KFWXvD2KfhcoPmiulOPX5URRUGGBqNcMsXAOqCnCOhFpVj0Yyo+IkzRTkFqOmvreVkWbSGkpx7kyRtLpePYNcOZx8L7Kvsqv+3Vx4FJmnclFx6apgtfaJASXZZ1ElHmPeIQiWXuplDpqxaS3JxJliEqxi0JKF13SRhGi16AQF/HU6qwW2O+k0LaLiQ+n51AEjWVNPF9oEq/iexpCx+DjOlNCb2TQvhEYE9U0rUzyfciQwRYeyI4hJf6blEj7MtZ9kbMe/TtGPkRqvDg/Aop4pTQUyYsj6QefNpZV412hPhwRw1iWrOwH9aFfYu+naXz7cv2kaf1eW/SYEnThSKhQX1dXfo4/AHm72Trve0oajFbn4CUWPWLb3M/wmvwK55OOk8dfjm6kr8dGatfhLcgzWePfM8Y2qaHfyxxKHR+oDiNQaUP7+d/DxTxdi208W4uOXX0S5sLB6zkbcfY9b3Qi6S1NSHFfxb3LboNkxwCcV2mCbk8qsdGvorI52myXGFzSL3s/RDlNFDk6eOiV9zlXLmar6STqep6f5w0/M7XbRlH23/7In+bMKiyv5JdY728dvPNt2jcryDgklVyYaQnXFKGmUsw6RAK0RzsP0ICfBKPtgaatEhcHOBGuhPrKZ9dXkk+m8w1ZHmtZXDsF1y1quAgHkwyrNZtSVosohCkcHasorrS/9miAE2lvwbZXvJH/HGns93ERh18TPhcSK56DNpBewAvKXHO3Py9QA6Y5J09KeQ3FXcR78iZFTVwNMwrI/zQOe3rIjlkRqA6oq7KfxO1B/2eoor/T0thkEbE3WhmKG6N/2GpSUyU0bWFBfTUKWLlFOD4T/kMfmxEA6HrVk94DxoOwKZdSakGOvWalejfSgKbTMQKLSE9FCfF4SlfVETIB1aJSTRcXe11VcYaZwSQX0XAhU0LU0pYlRLm7qg6izFYUOQpnq2mprAE3pWiVXn1TX9A8TvRT85bz4uCM1KBJ3hkfixhm+yIich4yIaPzls134zahWbNFTx3ZfVZB4bdj1JE4cyLa1mSwxFAXgRHcUAN1qRCbQQq3+ogA07iVrGcV5TdXBdGSL4wN2AJIFH/waP/5ggAtc4SsPEqjCmtVAgsgmUJXTaVqXHhDNwofUFeo4oepAkRj8bHZF32ikLQ6Tr73KqsYUHtYHuQNnsuY7xtWkuLadopPIvcPNOS93onLmOiNZNmmxF03hpl7nhoskNmvpXLNkLuvv8Ia3t/WNrbWRrLNyl9F5sdBHPY2uFbMcMgtxWk1NMlPxHegQep38UhSSf+YA9bhiRG0fZ3y5inSfU8BTF0UB92nKmTYZ8aRFYwp7IXTFDe5T+EmvIBeuCLKM6wL84eMhFmLZ8yQfYmnsyfQJTfE3W20lfRJ1SJ1JB0X8EGi7x7qnn9XYAzctYjOWIcq+KPE3rYmQnl/0e5F87AdyFZFLP8XPTeGhPLV63txCq/7lmkznpR8cLcyixcDWQyzSslkRGlvsLCPdedAKSpPkWaCExmOQm7BcuQOdo9Udsj6V3fcUh5vOQJmN93cdOFVbBg8lBW/3jMcaEd2eDunmNKqjHV1mySZO99bzKKfFFQ5H2XZU1VLoqiBaGBNFC41oKlY6aAGOhE6hBrlz0lGBqv9bTx/r19J/3VU2TdxIiwZ6nZ+A/1RqaaUw8W411vbsmOOr9af20QYgdaN6c5iANJxRZfIBVll/dGLhlP9gb4zEXvYnSmb+gYYWeQU57zBdwNnzfkiNpwVXukjEiQ/lbqGNH+rramgFdx4qGuxqQ/7PStssQwdFK5E9utpIZNM37uJa+ftel0XelN9z+xrsXkA7oLX2U3zfOlHc4dlLyF3Ktkioy4xWsq6ae8p3hw8JWaV4IRisTNnGTvyT6uBU2gghHJ6iq2hq39zcgCbpJUkcFHbS209a/CjEp+zRRfddOVEpd44yUHc70JP/qoYW/A14iN9JP1p5wHRT/EsWrVN8AHDznUdAR7tLCQvrHSHBCLVNx5nJAru7JA/vNY2+HDNZqiTR2kr+cXKWbUslbeVKl9BmNe6+3UuK6e/GRptYIH/Vfhzx3L011mku8jMk97mJdUzTIWHpPOhsdzMFrRAXjyB16CIsCxYPKLI02VwrAueswjLxwCFrVsHn5B84JHEwsXCMZW1NF/bhSOFEGCAWmIqP4nAVLbqi36OOdkLz9fOn8FX0QhdCn2AKX3TyAM5UO9iDxxLf0PKmt0YZm59DWkVAApKEYL1ihoF8dM+JhUK9E7pRWKgb58PqCe+QfPKfcA/G7CQhWC1orshGdk4pbG7GtrZTWLLFaxDnTPe27pcDwynsyyyVt9ZPfvJj2kIWrWOK13UyV3upIGbxy+2rROclwwktdmrsngahf9fapr18vcRrqMyTnXzFNNLo6YSpbSi3WPuCJ8nftABrTWgM7pwVhoXkNCmxpDf68ppS/LOEQmFdanRSHFeKDVhnoMxH8AhqLYKJAvHqyETmRa4LwHk7+OK83nquoQImeUOR63aYsJCJGJV2s8sKlVrasrX3ofTwkqbzxKryofs6um7Tx6dmZKGStqRVUPAQMcIngmi1krG0UXzUIvERf5NbUUA44pKSEezjRREPYlBS02vVOP1uKWKU8I6iiQfx1ikjaN08bFPt4tpre9/zJ+Etxndn9Vlk00IhB3cGsvpN5Qe8QjcLgaIb20qRe4YEq313kS+r1M1OPMxmm/VeTVP/om+cmDdnZSUwlcf01BoDgRryWyXRavcr8qWpZGmVO0UFKOyx3rWivI4unEkxT4M1JHabHVwL1HoNYqTZsVYUyPodXGO8VLfBZjFHXkM3RGvDcAdZVW+lWLfdFj6Y63GgrABvl5ThQJvzlZ/5Yi5aMBtenrSxBVkHaI+HvociBF42q0FHY93V78idwEirniNJtGoi0onLebvHcQgCKUarODrKKJyW/c195KDGJ6WlCmcoIsAZUZpHJBbckAJtYy4OU1g6KVhCcDpWzAtGR8lBHMyxhzY+VXS9UrqGZM2z1pvcKhqIJN1D1NpAWpBFK9r7mR51vXb2rhGtqqeFZGeyveAvwiZ5+kN475h63smbyX+RRAed9PT1I8EnEx+XzosFabgirr2WrSUBTv6Z4hBT3nLiqNtNZlL5TPYed1I/9N8H7sRHmvSnGapmuXtat+97/1kM+5vWhnq6t5JfK8XlDaQ3imaHxXzDzpIT2BHox5GDOU06Al4z8OUE+3cUFW5LtYaPMl+sw5Gem7cF+wvIN4ogqMNDcJfWnoYSN6bNkCy3oN2FjshNVdsnGbe/yR9WshK7w89nbIa3WpuCN5cswDdDhWClzSGMZfhL1m6s2b0b3z1fPCaCVcJXcgi1Yusy2iwgdGGKI9Gwm2kHH3GadhkqOt3rewNqsk9LIkURRbtq2SIH9Fwwaz3CwqzparIPDShmYm7/GZ5/6WX8/qXf4MdrrZsMOFbk2p1R0IpcyZ/1ssG6cpqq4kur2ZXkIFFvdKmBeu0g2Uq22BaTKB0C2TpWzVRVbhWqPpGIHWinEPLlc4mV6gP5cE4jk7wkeEi493m3tKCu1mj9nZBFNtjeTE/3lKDQEOvLcJMBtddUkNACtnarVU/t5ePoQ6ygmLmRkzCkktgcQAxPJc1q2T/O7IZtF/GRtKoXLVBzGA8Utox2PHP66n16FlySQrhpER4fPIClm16MJGdaPoZLYGye6sOtBV8/DgRIaN6cgsdo+1Hp/VxsLrAyGY/Fi18+xWw9Wt3HdaCWplP+JZ7xtMnAw/fG464ZtjsERRm4cWUKNs4R8yoUhurIRXTH9R+HRgxehKUZObXiVqVExgKKITvIjW3wDOWvaOtoxtGS0/jJ/m1YdvgYflNRj/IB3vrlcxnm2Y5DKDx8XroR+618FukrlkrbaAqbsjrqQcy//3bazYr+rNmB4ty+U5sdWZtRJLwL3Gcj/sGNtGuYcDOg+K4RlO7rtHiL0lmqtqKgv4gDUlVVtMFBIuYlJyIxORWx0tybax2+tJ1lX4FK/otaGvEUuqaeA3n36iza9arROs3vOZO2CnUQaHb9ShsT5JeLED70sE+mxT8xwb12/SKrH4WA0s9Ox6IbViDGmT6CIxxemthlWEK7b0XMpHitvdxGlJpQJAg/R8rXcrnGIfxZJ8VCleLGik0G5qcgWGMTFgraXCAmHbOlGLQU8L64qOelaIRVHHWyeoNBEnDKYApYTzNf3bc6hVcQYhYsQpQ37ZA16lLkMhAbeZBLTvenZxET+Y73OS+XdpTnWmghldDqJArDIsRvvf+j02iAFJ3NMxwJCcFXx4G7H4ITMpAyywMWZwOiEG5FtCWxZPAJWYCFqTHQSS521kPh4YegiBSkrViDBbRtNh/DJzBQnw8/t6mQwisSv5sXidCeNzfaxlVSge64Pmkl3hdLVG1HbcVxfLdYmMau/WEurcaRgJl4+OvL8HB7JwXDV0ItvbJYUJh5Fs9esPv10qYCv/5nCZK+FoHEmaH41SOh+E9Kh17pymknqqdO2Pm70laND381Hmt7LZz0DbC+GwXSziP/CL9ajpn2fn5yazUKnYqnE7syq/FwNE15R8fjw59ForyRQkKJYin+65835+LdUS6KMtPU8zf3nHRwtXBqM2Qzo4gNuzfibMRrSEnQI/j2VxB8m+hBsqB2v342n8a5t16B0W5hNEjw5r61GdrvPkiLUG7C/J/QR0poK4jS5b71qnzUBtm6uOJJEqhiabuFtn3sFqgqLe0XTnVtMsIo46I46lZQUPyIeSmY0Stmp7uXFapnyDyka3uZ8sSOVGfK5TwlR12NkWTQWlkMA23UofOgbUdXBCGuuY12eLb+PusuHECe9PLXfZBQO3cU59wykBBCAi4unT6EWlhracn91dXpHRjlz2skTXFMQ37O3jMoYoD40LeinhZakGdd8U8n2mkXM1qY42AsFZsKnMyD5ro4+PtGYs4y2lFKBDem4MXWNtKinvKTOFc+FoPJsRkDnemsykXRLB3iAsg/d+5KBM8hK2SXrY20OKvm7AW4JSeMxAt+oGLJBSdccsFxsFKqaBytCu1Ja754GJ+dEW/KTjwstRS+zIRg2kBFE7MMK2a1UKQF6lthMGgpRXZW8dWXCfLlzysOxQLaglW4RS2jZ09nRxd1pehLC1rLaXMB7xTaqcyJ9aOszJXHkaVOp12xgmjfgiSk0UcEyO4kjUBBZXqOVrL08zF8Aixah8uM9j6Omk67HTlMN1BQeZ8AUKChniOwnkLF0F/X/vZGlaDg1j/aWouH10bgtkhvBIrFVoYG7D9SiJdOyMdibSwtxN1/rMfD14djbbQGoT40XGgnrXJyptyVWYJNp5vhKMnJD5a2c0wUQsHuUPuSX23vnUfcDWPid1p74QI2vNuOxxYHIS3Ik7Z+tVkE6YEc6IwR39nmuKDNvrFj9Tf5pxa/di8alm9A3HXLaL93HcUYNKPDWAnjhe0o2P03cleQH3GWkhdx+OVcxN/0dYTGRsLLWw1LcwWMOTtRsJO2f+0n3Vg1xen59gjU2h6BqhDhr0hDmi/XjpFljKb5/G0bF9g1SFhVpA0Nuo9pNZJlSL53nE5j8AzbynEq0w0xcZEIEjE+fchn1ZbKLDdzSS99Faf2wlhJ21eKuKB+dD1Z1kDbALfSVmuNDQYYqigov5N1yuANcbyiufQUznRQ1AAdBXDX0KIYYQG8Qj6tLRS7t6YcpUXFqO+nIyz1uTh+yIiwWNodS0chkcR0BoX4a6Z7aE1pHooqbSHkHIsd3zNXTCj5Yj9aY5MRHkLjnLYwVirEgs1qVBTmosQYiLnJ41ulsS+NgvNfOIzjHcmI0lPfentRRAhbqRT/VHqx6Jnxsl57rDkOsRGz4O9DMVrdu2A21eBSWR7yLzYjOEPGzWrUjbBFrjCEIiwyFEE0++NNY0hJC/1am0hkm+gFmsZgRXXDqEuaihlMi0lIGfWkprfGD60tFFC5i98cXG0QLboxA5uXesN87gzmb7nkOg9MVwPF9WECTIAJMAEmwARcmkD35KBLV5IrxwSYABNgAkyACTABJjC1CbBondr9z61nAkyACTABJsAEmMCEIMCidUJ0E1eSCTABJsAEmAATYAJTmwCL1qnd/9x6JsAEmAATYAJMgAlMCAK8EGtCdBNXkgkwASbABJgAE2ACU5sAW1qndv9z65kAE2ACTIAJMAEmMCEIsGidEN3ElWQCTIAJMAEmwASYwNQmwKJ1avc/t54JMAEmwASYABNgAhOCAIvWYXST2ERB4dZrH7ZhpOVLmQATYAJMgAkwASbABEZOgEXryNlxSibABJgAE2ACTIAJMIFxIsCidZxAczFMgAkwASbABJgAE2ACIyfAonXk7DglE2ACTIAJMAEmwASYwDgRYNE6TqC5GCbABJgAE2ACTIAJMIGRE1COPCmnZAITnYAKq55+H08tV/VtSHsmnr/z59jZOtHbx/WfuAQ0SPnxIdw0F6j54B68+c/zE7cpXHMmwASYgJMIsKXVSSA5m4lJwFiRg4K8AuunxIj2kTQjZCm+9r3v4HvfWomYyR5cwu9B3Pvmafz0jVcQ5z4SWJzG6QS4T5yOlDNkAkzANQmwpdU1+4VrNS4E2nHyjSfw3TeshamSH8FfXroNM4dZtio4FevuoHRNh5D/1j4UdA0zA76cCTABJsAEmAATGJQAW1oHRcQXMAEmwASYABNgAkyACVxrAixar3UPcPlMgAkwASbABJgAE2ACgxJg94BBEU3tC1RLfoZ3N66Ej/FjPPXAizgXdxu+df9tWJYYBq2qHU3GauR/8S/88dV/ocDOIVSbehvuv30lFibQtX4+QKsR1QWnsOeDv+Pdw2X9+o+qIlbi/vu+hGXJMZip9YGqvQnGRmvao4f24cM9OWjq0y3TcddLW/C9ZKDgrxvw3bfK+naaKhE/fO1lfDmkHcee/wqe2jUiz9VeeV4tr09BPkvx1PZP8M0OYbwAACAASURBVFTvk5X/wr899ApyRlvkhBuGUUj/xVbcEAmU/m0dtlWuw/L16xEfqYdblwENRZnI+vAFZOUYZFqmhnfiOiSlL0NU1Gz4a3Xw9lEDZkpXfhp5n/0Vxw6chlkmpfWUDkGrHsLipcugD6G0ImmTicZqESrO7kXOvq0oNcinVgatw3WinvEJCJiugbLDhOamWhiovkXHd+D0kf7LVcfci8U3r0N0bBT8fDRSfesoXc7HryHzdFE/tdVBf+MjWHTDMoQG6eDWUYGa0ztw5B/v9HM9n2YCTIAJTF0CLFqnbt8Ps+Uq+Fz3CH7/1G0I61lsT+cCwzBv7VIkvdFbtPpg3v3/gY1fTwVJVelobyXV5qNFWOpKfCs1HRlv/QJP/vWUnfgEVMnfwAvP3IdEW8L2piY0dVE5QWFIFJ8EFQoO5ODYNRWBHTAW0wIulQ2EJ7VrlhaqriZUF1b3aVN7dTXap7iPq0f8j/DVe1chgBZudbaZofTQIYBE6Zr4udD/70PYdqSi71h0X4cbf7zx6kKvLjPMZjPc1JQubhUW0Sdx7kb836ataHBgq0fc917D+iV6a54dlLaJBosXpfWjT2Q6AhoPovRjuzLpamXkI7j3Zw9B72VN2tlCgpXGnloXhXDxiVejJvM0Sh3K1CDo1hdx193p8La1pLOFRDGVGZS8jj4kvv/5ON77IBOdfVpqV1dqZ6e7HvpFD+FOEr55pr5Y+C8mwASYwFQnwKJ1qo+AobbfLQx3f58sn5cz8e6Wj3HgTAGMXT4ITkzHTbfF9Mll5trH8ZQQrO3VOPaPP+GNDw6hoIEu8QnDwtu/gx/fn47Erz6O7+VuwPOZvdXndNx0/52SYG3Kew/P//bvOFhis6n6kTjOWImbFpEAHmqdx+y6Juz93aPYa8tfNZ8WcP2aFmK1nsIbj/0Ce8eigtPcoHMfnjePub0DTtc9FrIelhXBo6sCZsvQAAelr0Jn8TvY+sdXkFdJNfJLR/pDz+KGuXokfuNJFF54BDnG3nmZ0VZJlthjO5B38iAqyg1WsedGIjDjIax58F7o03+ENWcz8d6nduIz5kGsFIKV6pfzt434ZH8mzJLIVEMdvhTxS9cjqEWu3jok3vGgJFjNBZux7Y9/QmGNjZ5XFPRz1yFlAYlumaTeS/7LKljJSlr4rxew+5O9aBBleJDQXfM4brpjGcJv34gb8tZjd85VC6/38iexThLXBhT+YyN2fnwQzR0a+C14BLc+dC/idDKFyZ0aQZ/IZcPnmAATYAKuToBFq6v3kKvUzy8GMW378KvHfo29tVcrVX2xACf30N/d1idVOu5/YCm0JC1z/vpzbPxHLzeApjIcIwvrr7Sv4/lbZ2LVrSvxx8yPr1omVUlIihTWyyYc2/ImCdZe6q+hDCd3vUkfVwEyvvVQT0/B1iUxGKqOwZVG/P3ALjzT6OR6mnZg93/sGF6mbafx6e+eRV63J0BDJjJf+RUCnnsRKdplSF8+Gzkf9IpD2rEDO38uUwa5FdQcfhY7Z6Ziw+2zET5/GdSfvtPHTcA7JgF+onZlW3FgLwnWnpqSxbV0L7LpI3u4kdU3gvwISOZf+NcrJFh7uQ+0kFvBkVfoI5PSfRkW37mKLKxmlP7jEbz3cS83gLYilG77Ebb5b8X9N+qRtGYdPs3ZahO+s5GymupPWTYfeQHbth201dWEhuPPYqtfFB76Rrr0/aDHSPpk0Ez5AibABJiA6xEYnunG9erPNRo3AhQe6r03+wjWnqJ7TZeq0pZiYRB9Q8Lkgx1yfqvtOHf0FIRhTRWXiKQ+cf3bbVZUFfnAdk+0jlsDuaAxItB5YQfO2buuth1CzmnryaA5V6fVh1KFuqIiSeApA/Xw7y8uLk3Ne/T3nWwh3S9IKnj7kz/qUI/EVYgXbxKmQ/hiv5zfqhkVJzIhJhrUsSSMu+ukTUd4mCiErKyH9zr45zYf2YFSWYvwUCvG1zEBJsAEJh8BtrROvj4dmxZ1kUU1s3rQvGfGx5CVlQ5a/HT/c5twt1wKldbq60o+rlohWrv1Qns+zuU14aYM8on91m+xUf8xDh7NxLGcMgi3xKl8mI0nsWzbyQmJoKEs10GU0SQ8qkuFyCPFR/6iOhJzzb19Rd3It3PVg0hfmA59qB7eXjI2Rw9aKGVHpDn3NOq65iIgaD3uekKNzAN7UZibiTqj/MKrnuRduSjMN5ELgAbR976GWwO3IifrEMqLSSA7+LBeLdQvMsHqx+o+F8t+ugXkveJ4uNNiMHGWhLS32JBB5BdibbNwY6gpkalbSy6qaUYjLtwxOz7DBJgAE5iqBOzv+VOVA7d7MAJi5b+9tcwhjQoBtNpfOsTipDhJvvZ/uKmg6mMNu4ydf3gFSTMfwU0RYVh2x3ekD8QCp5ICnDvyMd76xz6U8faq/TN1wW/aGuUHTpfJJE2VK718oRZzPt3i0CMdi37yIpbHWS2enaYK1JWa0NZha5wXCdoQ+o7GjsMNrPRP2PbubNx1B1lvE9fjBvGhZJ0NRai5kInsXa8hu8dPoTcsA/L+9itkBT6FtPAoJN76I+mDLpquL89F6fGt+Hz7DjR010FKqoZPt1WWFpcFxQzivKFQQ2mb25LaLLKwNKJN1qJqQHNz7/rxv5kAE2ACTMDhns9ImIAsAQo7ZVsSJfv11ZO2+f5Tf8JdP3lPcgMY1lG5D89/7yR2LF+F5fNTkUSW2xhamT8zOlX6LEsPw49+/CZyhiVc+/ggDKs6LnOxWIilcofHkCvUhQaxEOvKkBOM/4Wy0/dqBN32pFWwmk7jyBsb8fnxor4LoOY9i0cfX9ePv6cJNdsfwh+PLUPc0qWIjklFUFQkRQ6gxVTp9Jm/GuH/+6BjxALReiP56/4nLQCbR+G25qUjJDwBM0N18AtPRwp94udG4f9+9Qpq7ISrBC7nBbz87GYZi/L4Y+USmQATYAKTlQCL1snas9ekXe0wGYVMJQtrAAlNEiXGAaZW+61i12XkfPqe9BGHSpuIVV/9Dr53eyJ84u7Et1Z/iB9vu9w3efeyblkhRBZdMS07gQ+XWYg1AoYevsIC6Rhiys3LNr3f0ng1EoHbbMTPi6LryRf0XxtxgASr/aH2p3im9ift/u40HKTFXfSRzqvhl/wglj/wEBIpbquIEpCZ+Sxq5MYmLfaqO76Zyt1szVEzF4m3/QgrvzQX3hSZYNnSdyhiQbfl2IymevFvap9voORfK5unTF07RZvpvFLhC/JyoB+K/UXkSsBu3fZQ+G8mwASmOAFeiDXFB4Czm19WUGZ9/oakYt4s5+TebszBzlf/C2+cEo6tKoTHxNJ/ex/N5PNqdXr18aHNCOyLpXBZM6Ul5QMf7ZRHT0zVwVRR76y6xY9IM5x0A1dn0nzrF5YgYxVVYyZNw0uHoQiGboYKEmtSX5lQV+UodAENQinw//Dets1oOPsatv2Z4rqKrHUJCLLFYrVWYID/krU35+3HceCskJhq6Mj62vtoIJ9XaRY/mBZWDeId0CfhRVubyXc3KFzGX9eLrLyBA9SLv2ICTIAJTEECw7v3T0FA3OThEWjP2odjtRRPNTAGtz+wEjuf2edoRBJZuk2ngPwUmaikt8WULKK0y5ZNf9oVrIbKNlqFuLQ/qmuEqWomtPHkRuCWg7JeVrSw1bT5gYOStc+B/jZU0yIe0OYJMxEeQX+flblG5lS7qckqdmmBmeTSOyzXBZkMZU5N5IVYyniabte9g6zerq0eS2mDAKvKq8nJtAo/0W4L+a4KH08NxSulHaIcLLSh92LR/AFW97uRAKQg/bKH0iYOLRTE38HKSt+5UTqH8yKnq76ooM0K+hw5O3DBsA5putlIv3sdTv9+h7yLAMWYpb0N0FBjg9BwCEVlP0J4pA7Ri1ZBfbJvOu9F6xA1VGEt21g+yQSYABOYfATY0jr5+vTatqg1E2+9lSn5v2qXP47fb7wPy6Jti7PonM+sVJrqfxzPv/FnPHtbeF+rqOdKPPXGJmx8iLaJTZh59TtP2pTg64/j7mShPI04eSrHboOBduSfKpDKVCXciR/S5gUzPcUf02kxzeP4r6/GDG1HgoZTOFki8IXhpq/eiZir1RYn+z8qC1AqCneLweo7aFMFtrb2ZeUxF8t/+CTixOIpcYjNBR5+imK00r9byIf0014xWrtOo+iCEHZqhJNva3pPhH0SsXMfwvof0Y5VQlzKHuQPe8dr2EC7aaUvSodfT8QBsbHAeqy5b50Uw7WzOBMV9oufaBeuW5/fglvvvhfh4fqrllx32iDg1o1YnCgErwGlZ0/3LbnjID7fSpsC0Fnv9I144N8eQnR3O+mcUpeOuJs34s7nPsBXb7RZlqUcinB6lzU2q/eiH+HWW5dZIwuQJdlvwZNYT7trsUWhL2r+iwkwASbA90UeA04nUL3j19io/Q88dT9ZPZd8AxvpA9rGtV1EC+hl8aw+4Vi0SheDhXc/gmUiVhZZVJsonUpM+UtCsB3Vu2iHrcOOltamo+/hw7x0fC1ObCH7S7x9f3feIs17ODjnPqwKcSyvz5muMnz494+x7ukvYWb6d/C/730DTbZYW01HX8Q3nz8kvxsXCfUPPy3DstvDEHPHb/Du6mpUN1IdhdWueh/+e+PfUSBrwRukPpPk65rjB+Ex716sf+5eaRtXeJDlUrSN/EdzNj+LbLvdsEq3voa8uSRy/Zbhhqf3Yhltp9rlroFa+CW3nMaBrQbMv1sE9Jc5FBoEzKWIAeJDX4utWLsUtBUrlSkdNN1/cPNmq5uAXXL19NmIvvVJetF5EsKiam5rh+R3K409M+oOvIB9px0Fc/OBJ/GuH23jShELAtIfwZ30AbXTTFZfqc62Q3JN6HWYaaOEHXOipC1no+9+BY/cQRZgC7ERaQx7kVND29VG2iXiP5kAE2ACU5iAmzYwaONo269Se6Czox1XrrjyUuXRtpIMd1Oknb1JuYUtxd0rIqFqLcDerUdQMSTxRUIxezf2nqjFNA9PaEh0enp6QkWhq4y11Sg+dwSfvPsnvPrPU2jovS9mZx2qKi6jmQJjTnP3hCel8/FWoavFiIqcI/jory/iubdOyAoOdNXi5BcF6AoMQ3AApXPrQlP1BRx89xU887cKzL5lDWZrulDx+RbsLey/Ee0XT+B4Ga0jo9igwRqqN5Wv8qBP5RG8c6BYfvaYzlafzkTxlUDM0PlAqw2E1t8PfuKjKMMnH2Witv8iRz8wXTKH6dDfcC8ipwN1e7+Pd/e0wGfGTPhPnw5VB/mr5u3FsTefxKcnCLb90XIW5zPzYfGj6/2nw8uH5slbKlB1+gPs/cPTON1Ju2gtJr9m83mc/Xg/GnpuO10wV1eirtlMPTKNXpA0UHl5QTWtC82GApQc+yuFVHsW56sdhSdoK9SaSgPMNPYUbt5Q+1BIKk81LG0G1ObvR9a7G7HjwyPoEzigp97taM7bhtOna3BFReVROCsPT/o/hctqrqN6n9+P7O0vYvfHmeiw9G4scTi+CyWtvvCjMePj7Utima4/vgU7Nv0BbYlfR+xMil97/j2cyu3tW2EPjP9mAkyACUwNAtNiElJGrTS9NX5obWmCpWtyP5mnSjunxtDnVo4tgSik/2IrbiBLYenfVuGdT1h0jS1vzp0JMAEmMPkJsE/r5O9jbiETYAJMgAkwASbABCY8ARatE74LuQFMgAkwASbABJgAE5j8BFi0Tv4+5hYyASbABJgAE2ACTGDCE2DROuG7kBvABJgAE2ACTIAJMIHJT4AXYg2jj3kh1jBg8aVMgAkwASbABJgAE3AiAba0OhEmZ8UEmAATYAJMgAkwASYwNgRYtI4NV86VCTABJsAEmAATYAJMwIkEeEesYcBsNtnvaTOMxHwpE2ACTIAJMAEmwASYwIgJsKV1xOg4IRNgAkyACTABJsAEmMB4EWDROl6kuRwmwASYABNgAkyACTCBERNg0TpidJyQCTABJsAEmAATYAJMYLwIsGgdL9JcDhNgAkyACTABJsAEmMCICfBCrBGjG2bCaQH45cqVuMPLLp3hJNYcKUD5MLPjy68tAeWsDKycE2RXCTMuHvsYuXXXtm5cOhNgAkyACTCByUiARet49eqVDpTX1yHXbCtQ7Y8EL7fxKn1CluMdswJL4vxgPPsxjpcJcO7Qp38JSQHNKDq0DwWma9csS5sJxnp3WKcq3OHpp4F62rWrz7iU7BGEiDAtlF31qCisQuu4FMqFTHwCCqg1WmgDAuHvr4X/dD9oPN2lZtWf343MopYxbKIXgqLDoXHrQH1ZAQxtY1gUZ80EmMCYE2DROuaIuwtoxB9P7MMfbX9GR63ER0kB41b6xCvIHf5aDXDFhPrLNqWvoAefL8nEdiOMTde2RZbaczhea6vDNB2SVi6BXn1t6zTmpXvoMCs6Bp6d5agvItF6ZcxL5AImA4FpGoTPX4II+1mm8WgblT0jKg7ByhaUXGLROh7IuQwmMJYEWLSOJV3Oe+QE5ASqrw7+ZKCx1BrQyIJp5Gw5JRMYbwKWDpgbG2h2wkgvoV0ITEiATjXeleDymAATmOgEWLRO9B6crPXXOApUT60WnjQFX280onOytpvbxQQmG4ErDcg7uAN53S+aNDPhEz/ZGsntYQJMYDwIsGgdMWU3JIQk4Ptheszz84aOLIBmczNyDWV4Oy8PHzV3jTjnfhMqfXFHdALuDJ6BaG8PaNAFU3sbLpnqcKy6DO+VVSHXIp9arZ6B+2JjcOuMAER5ekBNlo/yJgOOlebi5bI6GOSTXbOzjgJVuAv4k7tAC4nWMfCBU3hBFxGHsGDyu/PxgnKaBeaWehhrilFUVI7mDuejUAdEIioyHDp/8od1J7eHTjPMbc1orKvBpYpiVDX0V6gC3sExiJoVSu4S3pRWJBXpylGST1OgLf0MgmE3QfgQr0OSzi6heyjSbgrte7IpD0cO5sIkYwFX+oVTO8MQGKCBp4oq29GC5oZaVBXnosTQ7eTdK7vpKVi2KBKe7aXI2pcNc0gyYiNDoPUh/wti1GwoRX5u7pj4Jyo8yW+XfidBAX7w9iCfZWEhNFN962thoN9YebWpnxcmd2hC4xAVFgJ/Df2+RHeS33N9bSn1STGMMs3s9tnGpRPYk2VEYGwyovQ6aKhDLe3kM12Zi9wL5IbRX3cqQjF37XwEwWT18TZrMSs+AWEztPBWKWAhzmJMlJ7PRU23A/I0qmdQOIKD6KXQl/rDg+pKTwFLO40fYw0qigtQUS9T2WGPHbsEMuNitFn2l76Ha58LvBCx+MuI6H3uihF5nx5ESR8/V/K/9Q9BcEgQdOR7K/ERY5bGXWtjLWrKC1BS0SAzBq7+VoSf7vFKKm92AvQ6fwj33f/f3pmAxVmee/8flhm2ATJAgEAggQkJZCNLCTEhamJazXE9pp6qqcfmqja9jtU21rb6Vb+0nm4xta3aHqv9op5jbdVYt5wYl0TN0iSIAlnAkAkkBAIEwjZsMzDku99ZgBlm2GYYSPg/1/Ua55332X7vy8x/7ue+76ertV6e92M4cbYJ7m4nxuAzyB1DnieB8UqAonUkd8YvHHcsXIFHp4Zaa180wyimP3VQODIT5yIzNhEL8z7B43XuRMcIOg2YgkeXr8Ad4bbgra5OGEQXq9ShSA2SQz4cjRdEtLoIToqOnovnlqQj3Rr7IGOVL2K/QCRGxluOK2PzcG9eGYrdfbH4J+HOp/6CDWnKuKvx9kPfxlMFphFMYoAqwTOwKHsWNLZgJv9Aq4NoeMpKXDndWs9fUQKTgpC4+FrEK2M1nkHhP4vR6G7cA3Tn8FZQPOZ8ZQkSNLYMcCJUui4GQh2mRbwcsfIFfzS3ADVeDOIITsxGlmQfsARvXexGl0mEgtyTYAlYUY4YtQE1+VX9v+D8NEhYkI058TYHQaWuPHsBQRpoE9KhnTIVp784gJIL3nn2jIY6NAbYuPiHIlyjhp8EFbY2GeDQQ2ubMHMG7gdNyjIsmhXdE6TW3Slf2YEh0MRIcEzMVER/eQBflLr7IlchfOZKpKRGWAPelPbludDEp2GR3Kvc/cfR6FYBOI9l8Nd+4TosWTrH4oKilG65J0bpOTA4AtoQObT+aK45gnrneU4KQfyC5Zg3tfeedHf7IUDqRSfNR3TcVJTkHsTpZjeDlXs6fcl86JRfvkrb8kz4qTWInpGFLFUuDhRWuRBJTvNRnuHFWUjo4zfqpwpBZPwMtFf2Ea3adCxaNAM97tfKs97ljwDpLzJejrhpiC0+gILThv7P3uAIx8UVXe2NaGy0Gw0CESZBkpYfoYZGtPe1JZib+vtl+8Vidrb8ELAng7T8fXXCL0CN0KhEpMgRH/M58goq3AciqhMx74p0xAYJDtv9DAgTf/B5yxGMT/DFWRc/usfgM2hc3CwOggSGSYCidZjAAH+smWMTrMbzeOFYPrZVNaNOPpzU6ijckbEEDyRG4o5Fi5D/8WHs8I52QGryXKtgNVbhD3l5eKG+Q75QpYjlJH1yPG5InoJa5y9T5f1QHZ62CFYzTlUcwZYTZdjbpnxyi6U4Nh2PLUhHZtxC/EJ3AbefbLa2OWwmXqgg81AHqftF4Pup5JxD8yIG1GpYH1x79L4H/ftFQLfYKli7GkW4Hz+Bmiaj5Qs7IDwRM+fNxzSxFM6Z14DGz854h498MabMUgRrNwzleThSXAW7Yd5PLeIoPhkJQd0uRIMftBk2wWqsQ2nREZxWLH9y3/3UIrBnZyI9IQLTM+ejae/nqPH42etEnQiYHit85ByxgCqBWDU4cfBzyzM/UFHHL8Si2SJYu9tQU3IEJadrrKLBPwTapLmYMzse2llZ0DXsRkmDC0EXKJxmdKC2eB++PFMPo/yQ0CTOR+bcRASHpSBlagm+qPB4krYpBCI2Ld0iWLsaSnCk4ATq7CZOGW+k/BhIECXjYpQITl6IOYpgvWhE3Yk8HD9dB6NcGBCejFlyLxJEsKRlpqPRncjWitW8sx76z/JxurYN3f4axKYvxrykCKinzkLSySoMHGDvj5i0hdAEGlB1ohhnz4sYEywBofKDa1oy1H3vU7cZ7RfO4GxFBWrq6tGqDFQp8kMiWpnHzGhEy3OUdF4skC601UD3e7y8Z6wsQG6lbTSTYjHvmmwJxOpA1dF9KGkcfJRdLTU4e64CVedr0NzSab3n8vkUGpeGOXN1iJw6H+m1tfii0rVFOjx5Frqb9Sj8rAQ1BhG8Yr1PyVyMlMmBiE6dgcgK+bHV956MxWfQ4Bh4BQmMSwIUrcO9LWFpeCBZLKzdjXjh0H5sae796W40XsAL+QcRHnoNNk5OwJ2JQdhR5g3znD8ylaVxKRUVx3oFq3JCrF7F9eWWo3/xx/WzxPIrX8SGc3nYmC/Lmz0XmVFccwz3FoZiZ1YS0qenYqk+H3sHESL9+/DSmTZZXn6vxNqYMF6Wkw5N/RF8erjMIhQDpi3HVfOi0a7fgwMlLszJIxyGOmEupkeIWaWtDAWHxYrWxxLT1VyB4jx/BK/MRHR0KqZpzngnzZaIiUglCKW7Fqf7CFZlCt3GJtSdPuLaXSNMh1nTRBx1N6H0s4PQ97HcdRvrUVn4GdShV0Eny5vTEo6h5rTrL9URohpetUlaEeaJ8oOjE/ViTS3sq4DMbagvy8PRoNXImhGCxOmx0De4sCpP8kN7WS6OltktsbK6cFbEb3QsFsSLu0h0NPwqXNQb3kitV0+SHwvKcyDjrdGL60HffF4y3sYqvRwuGpZ5Tpsu45C32ivyUFBa1yNsu5rP4Hi+GuHL5VkOS0ZyrKwKVLmQvX6dqDqSi9JamwA3i5W96Bi0McsxTbHyRgWKaB1AnIulV6NpwulDe0WU9bZv7GhDqbgHOJSG48g97GIe4kpQp8+DXvtVcQfRYkpcCE4PrJRdNHIZnOquwvH9Lm60srpQdRxHQ2KQM0v5YRmDgMoKlxZwP3Mtjn9+HDW2P7/u9hroj5UhZkWapPqKgTZY/PL7/CAYk8+gy+BWcQoTk4B9EWRizn4Es85MSEKqLN8Z6/TY1kew9jbVjA9qFFEllkztFPE79VKxfRcFqYIx5KDbgATxYVWWHFvxbmlfwdo7JkNtBfKV70Pxec0OczNW+RKtPlGA/ALlKMIZg5ddA5y6DZgsPnnCuFUija2f+37iz6osERvFn9V7glUmjSlTrYLDIDkc+wrWniEZz4nlVV5J6pzIyV7OaaVYl4d8M8VoPjXR4j7RfaHMzVKziB3Lsye8hOGY/nFrEzFFWao21eB0uSuTXTcaq8XyKpcETBY/YptbiMOjIAE8VeI/6CjzJN9mg/UZCAgOlcy93ivdlh9s/lYfxqE2K1bUKBEhiq91TXmvYO2pbjiDigblVSCiYmJct9pxDpXOrkTdEmXfZJ25OmTwXFHGqmLoPfaVMKK52fojOzh08D5dT+byPtve3GgRqn4h4g/s6pmV97rE59ouWHtotNSiWfnYlB8YwQ5ox/gz6PK+XZzdZUiAltZh3dRAZETa/Fgj0vDcihmua6us16jFiX+KXOG5zDKj4MIFCUiZgujEJXgJemyvrMLehkZUDBBGr9ZMRopyhyepsHLOKvzD5WgDEaO4yU4KRozy5etysA3Y/dSPsNtlfW+fVASqIrhEnNgFqghGrSytwVyDekVAeqtMipRgFGtjwYmLkRXnumFZObUUtQSwyc8V1xcN52xrLeo70hAarIXuK9lQlZ/B+fOSxkusaS7scLaWxbIoAX+WEp6KRVckue5R/BiV4id+zoqg88JoXfczyNngCFnaVq7x12Jmdg5SXF3vJ0EuynkZs9W31+kicStobe1fsbPTZnX0F1cRedsrcxSBXN/QiWliwY3OEP/UUAmEq6lFY7MrX93eMfmFaiw/sCD+keLm66IYYZA2ECXBfXKtGjX9x9tq6O9bKU9CZ5di9veDn/9gm5DID4DztQM8O07DCoxA8tqmPwAAIABJREFU/AwdEiRgK1wCOgOEo3MJ9Le63rh/Hp1rXEavJ6kRmajDNAnGitSESvBgfz4QPu7uSruhxcW96ITlsVX7i3+s0p6N7Fh9Bl1Gt4tTmVgEKFqHdb9F2KmsH1VqdTjSBzO8TXL3sTasTi0XnzqThy3aFfhRgvQ7bS4elUO+KWFoaUR+rWQs0Oux19kTQRWEGIs1QIKuJkcN2um42NFJEagRIre6aySYwvbBLv6akYqgbpKgoAFWSQedoPMFAdbIaeV0gARcWR0wnC/qfe3n56X72V2HkwUl0CxOk0wFEq2eoRzST6cIHImqrz1bgtIq50AYxSpr/fJUgnQiB332FLkzdkWtVgS+FPEH1UQOYrWTZ9SC1lkhmU0wu3JXcXXO46mKW0Dx5zgbuhjTwkXU6TLlkEZlWbi9WTazqJIsEopPrtMY/QKDrJy7TOh0My6jyfbQBgRaVkn6iWyzCJoBxu832I282IF254G5ay8kGQuyM61BQnJNV7sBBmOnfJJYi39QJDRB0qEbK6K7Zi+b8/4RSFmyHDpxyVBKt0nJdNHRe28lGDFSghEtwXJuJm0Wv2FXxf7o+PVlO1afQa4GyHMkcAkQoGgd4U069eX7uF4Cl3xWZIn/lS/ex97SBFw/NV7SbEWJ1Tcc0WFRWKkcU+Ow5cB+vODCMoXOcjz0gQSFOYsCnw1+4I6Ck7KxJNXuSCHizLLcGgPdijVWC51Y5CxLcZo0LLnaat02VuYit8RbZtc2nD34IYoty7i+KV0Nxcj9+Iz4xiUiVnwINcr2liESGR8tLgDRUxEbeRCHi+tc+swZTuzBwVMuzXq+GfxQerF/MdcVYE/uGZfzGEozPr2mowbF+z9E+RSJEJ+ibDkaIdkSZDk3IhYJcsTGFeOzQyUwjLu/IzPc6CQnfCESwT7fIli7m8pwtFD8nlscJ6OZvQbLUgb5keHTm+LbzjSpi62C1SSBjoX54mcsgXF9hxCTiVVfSbYFgnpzbL7/DPLm6NkWCfiKAEXrsEi3o9ZkjbyPUPL3wffR9hWNlXhWDkuR9E/Zien40RydWH3j8d2Z8XiloKrXkiM5XJWMAokBoYgZy7XiQRj7iUU42NHRS+Ym+RKdz8mSXLBtz3I/m8V7kKYHfrtLMjAo7hViLVMp1qV+pr6Bq3v8rhKQVFEih7UlvxDF4iqpj8QZNHR6OhJPSwR3T0CQpCkzKV+fflAFK2bW8S1ajWK9sxS1LP3LPwN4sVivGzf/lYCb82XQy2EpgRLJnzofs1MkC0LkLMyML5Oo8V67aHdnh+Wp8QtQIVAR6i6srZY8n0qR1Emj6w1u7cbtf9UivLXynMvWyKePHBHB6nyl/M0pSX8nbJF7Hav8eO5GvRKUVtvPJi6ZS2yWdW8xGuvPIG/Ng+2QgI8IuFvh8FH3l1o3nShqtJoyo6PF2unBEprRbhqRtb/BVnrdUpJlwUNn8/HQSWseF01EpIPvoNHQgFJFY4vfVLZFtY7P0qr/BB/sfNty5JUrXxQSTf3Fu7ZzeyRKXk7Jkvrxj6zXKNd9eqze88lclHyOli9u8aOVIJmR/zFIeiqbWHFY+hvmCLvbalD6xRFUWQI2ZJnWEs1uL51obrI+e2ptTE8+22F24dnlfQXZIM9+e1Oj9ceTBCpZfKUv1dIpwW1f5oqAsf5gCJWcn31Lt/ijtipcJG2R01u2y8R6Hm61XHbJtf1lkA/BiOCyfNZcbIHB1YqM3Xfch0PySVfK/ZHndVDnHvFltQZGyg8Xg6s7pfjbR3rwOeFitl77DHLRNk+RwGVIYOTf05chjKFMqeBcOU4pH4JhM/CdabIbkbtKYt1MHSAyvLa9w2orCw1HyhDuwkD+pj1GR7PZ0ZLTVSWZDBSrkD9Wym47K93a1f2RGBo6QKaDyVj9gy14+ne/x9NP/AQ3pbqbtKfnlYArISopnerrbYty6mjZCUnalejbRq+bqYyy85Q14lstCeunh7u/EX5i9XV7D+THg9HyHScJyJVdmwYrAwk+sTBb/QmVJV/HpVtDVYV1xyl59mYmDrCEK36kwQM8e4MNz+374ntpsZj28cNze62kYDuvWIklJVTyrPgBllN7redu2/LVG27vi/2eyECc1+FlV7kLlnmGIDbJmonCYbiaZPEnV8504oLk9hzTIpFAFhuxjNVVcgAlJ+xAj9WYjn3Encsza3ExDZTH1v3ft7V54WO7NlRcdfqVEMkNHO/ifL8Lh3PCS59Bw+mS15LAJUxgsL/iS3hqozR0gx5/KFfMFIHInn8lnk1LQGaPQBDxp4nHtzKuwI7Va/CA5cvKdTE2nMdxRQHI7ikbdFFw3inTsVYQvpX1Nfxtfjpu1cqWsT1frsoGAXPx2AxrCNGp2vM45VCxEztOFKFA+aaSHJ9PLVuCb0l9u61IHRiKbNmK9ollX8OOhUmWTAcuiyQ7j5PAlIy5GcjIzECyZjQUkcJCtpZ0Eqh+krpJ0ZLGxjq4Mg65HO8wThol761lpyKJctd9ZTnSpkrUu/2vQkkoLjvg6BbkIGel7GzkVvS3ofaCNa1T5PS5iA0e5M8qaj6WLc9CWlKsNejFPl7ZWCBh3lxIALukiqpDvXMidEMZTlYo/UiE+9zlWKSLl+067ZXFYq8R38vZWVh2tZKrdRgQhnppWxMk17pFiCZN1w4gROUaSdlUKluQKlpePXUJlmbqEB3Sa+33C4pA7PT5WHTVGiyZ7rXEcEOdSf/r/OIx78oczEtLhlbZ9asHqxralIXi56ickc0D6pzcMmQr0LOymYDy8yJYMntkKm4EtsrK5gJzFsoub8rrljM4U+P4I6T/IEb5TIdkrVD+iCQn7fQ5snuaXcT5SbT8tEwsmRsPP6cfSl4bkbj2BIibhP2wr0j4yy5wivuE9bxkSvBah7aGxBWi0eKELFlSkpIROlAHcm3dBeWJlU08Zi7ENPvWaPJaHa3DgizZfEI2BPF28c5nkLdHxfZIYHwScPs1PD6HOx5G1YkPj+3H4wFKJL+IvllXyCFfZ0o+E4kO7rXGdaJ0oOGayvHnUh0WpkUic9Yq7EuVxOmWz0MzDh3bhfv7+M1ZmgmQLWJlVyzlgGwba1C2w5T+7DuPGhuLseWUs8qRcbWW4Ht5Kjy3WHbFipyBHy2XQ6xFRrEoqAP7LJg1uI54HWgK3n7PIlBFkBvrewVquKS/ClCsVBf6z80r/YtVVy87jAXKNq7TZPvU6ZlXYbps3dit/KCQ1DQ9y/0XawZ0eTWUyVaZCbL9Y4jsB3/1VNmW1crT3C4+kLLVrMHB11H8UiPiZVMDOZRJKBZMs2ylaU+to+T8LD6Gqn4h5bJD1fFDOO6fjXTZgSk6LUsOGZbt2et1TehEP3dFb8CSzRDOVhgQn6KBRpeDq6a1oV0i4y2uEW1ncOSLMocfFkbZ0OILdZbsihUrOWbnYJEclrkqVq8+j167PM9jXyQVkaQgi9XJzmJK1gDL9qYiXwIl9ZPlR2I3WsvzcbKuv2hpP5OP45HWbVyjZy/HlbNk60/lz9OeSkp+gJQUyMYC/av6dtqS1ut08RnEL0lGcJQENa7SWZ5T+xy7m/Q40RArG414/0eENmM1lkzrb6XUpF2FK+UZthT5AVD88T6cdc6C4hGlTtSeOQujbBusjp6P5Wtmob2tw7rlsCzNn84rQFWPJ4D4sp6U4LQp8nccJByuWItZ8rfVLcLa8rzKfdSf6MC0dGXTDC8WL30GeXFEbIoExi0BitaR3JruZkskf35lKjYkJyMzUiOpsMSKJEEZFR2tKBUr6qeSIufdAVcDRZye+AT3dy7Cd6fHI12sUBrL3ZB/+zlfdWDH8X8Cklx+qfhU6cLE2qr0J4EdFc11OFx5Ci+crsIpN1+KdXXHcPsnVbg1VSebDUxBquQb1fiLSG5rRUWrpMw6X4EPKyudrLQjAeNZHbtAre0xMSruArIMflGsjq62+fSsu97aHVUoPvABapJmSZ5Oxdorbh9yL7ok3U27pARqvFCDGtnWsW4gbWWswNGDskVmxizER4m11iZAA8x+/X3pZJvQo0fbJGuARKhLPtNQCS4L8BOh02FAc30VKkv1qGrup1it4+02oLJgN+rPyVJlkmyDKo6UlkAfSZfVLs9es6QFq6s6g6qevVe9BUlpR/KBnjiAvM65SEmQscsac6j921syPFjEnYM4l21qyw7hQF0ikmZIloQo2TRCAn0ClDRSLcLWIKmkaipQWe2tLBAezFVSrOk/P4LWWNmxSLIGhElCf4mtsqQ8MjTXysYBpyxb5rr8E5MfGVUFn6ClLk3uyVREaST3qVj0utqb0Cibd5yWdHSy6/K4KF21BTh4qAmzZs5A9GR5dpSPkY4m1MqOX/qTFfDTxY6LcXpzEF21R5Cbb0RaSqLcG3GdUVJWKUV+LPVz+emoQOGBTtnNLQ0JMZHiZiOA5BlolOf0TIls8Rwi2zp7c3D2trzxGTQa42KbJDDOCEzSpc93+JoZyfhCNRHy61USKotPJQsJkAAJkAAJkAAJkAAJeJvAQB4+3u6L7ZEACZAACZAACZAACZDAiAhQtI4IGyuRAAmQAAmQAAmQAAn4kgBFqy9psy8SIAESIAESIAESIIEREaBoHRE2ViIBEiABEiABEiABEvAlAYpWX9JmXyRAAiRAAiRAAiRAAiMiQNE6ImysRAIkQAIkQAIkQAIk4EsCFK2+pM2+SIAESIAESIAESIAERkSAonUY2JR8tH7+/TL/D6MFXkoCJEACJEACJEACJDASAhStI6HGOiRAAiRAAiRAAiRAAj4lQNHqU9zsjARIgARIgARIgARIYCQEKFpHQo11SIAESIAESIAESIAEfEqAotWnuNkZCZAACZAACZAACZDASAgEjKQS65DA5UFAhdWP/gOPrFQ5TseUi63rfor32i+PWY6bWQSmIPWW+7BsWRZiJ2sQYItprHnj3/DiW1+OwjDVSHtgH25ZosaFXffgL3/NddOHXPc9uS5L7fh+5z68+Z37UNLpptqontZg/g/347oFQM1bwueN0eAzqhNg4yRAAiTgdQIUrV5HygYvJQL1lUXQl4RZh6zSImm6Fk4SdvDpTF2BO2/MgMakx0cv7YHePHiVS/aKiLvwjT88iOTu4Qo6DZK/+QzWXZ1gmXpXmwGtnUbL/7d0mMYcR+u5QlTqw63jCIpGbGI0LpkPxxHfkzHHzgGQAAmQwLAIXDKfy8OaFS8mgSERMCF/24/wnW3Wi1Vz78MLv7sRcUOq23uRKj4Ta2+Vei37cfLly1y0DpNNz+Uh12DRMkWw1qHk+Xvw5t7SkbY0rHrGpko01anR0mwVyK4rG1H5xj14+Q3buzMexrd//g1Eub6YZ0mABEiABMaIAEXrGIFntyQwoQjEpiAqUGbcWYzjB30jWAEjzrx4C56dUKA5WRIgARK4fAkwEOvyvbecGQmMHwKBKqsPa6cJl7P3xPgBzpGQAAmQwOVHgJbWy++eenVGquU/weubVyGsfhce+eaTOJ52IzasvxE5GUnQqkxoqa/Gyc/ewbN/fAd6J9dEbeaNWH/zKixNl2sjxG+0vR7V+gJ89NYreP1AOdx5Mqqmr8L6O65Fzlwd4rRhUJlaUN9srXto/x68/VERWhxmORlf/92r2DgX0L/0bXzn5XJHBqoM3P/873HTVBMOb/1XPPK+u56Hiq63P4caYSvwyP9+gEf6njz3Dr53zzMo8rTLoQ5t3FwXjUUP78aaDKcBhazGum2FDif7B2KpEZqxFnOycpCSMhuR2miEhkmQlLEOTRWFKPn0JRzeWyh2VBcl8Base34zUp02rhs4EMtFOyM4pdZ9A1f8y1qkzkxBRJjGMt4Lpbko2vU8cgvdWZejkfBVCU67OgeJsdHw76xETeFOHHzt7yMYAauQAAmQwOVNgKL18r6/XpydCmFfuQ9PP3IjknoileRcTBIWfm0F5mzrK1rDsHD9Y9j875mwhTjB1C6qLUwCnTJXYUNmFrJf/jkefqnASXwCqrl347eP34EMW0VTSwtazNJPbBIylCNdBf3eIhweUxHYifoyCeBS2UAEy7ymSQCXuQXVp6od5mSqroZpQpoWjRaBWamyReTbg5vMBlwor0RHDxMjLtQbHJ/TwLX46g83I01xJ1CK2Qij0Qh/dTSi0lZjmRwZCzbjb396E0392Nbh/KkvEWRbQwqKnY0o0Y+jWzSIveFJfP22LITaOupqE0kdIgFdc9fKIeL7jU3Y/lYuuhwGkoC0jc/jluXW4DRlnl2BCUhYdg/WifAtccIyunNg6yRAAiQw/glQtI7/ezQ+RuifhNu+K5bPhly8/uou7D2qR705DPEZWbjuRp3DGOO+tgmPKILVVI3Drz2HbW/th75JLglLwtKb78UP12ch4/ZN2Fj8bWzN7as+J+O69essgrWlZDu2PvEK9p222VQjRBxnr8J1y+DWQus7UC3Y/dT3sdvWoWqxBHD9WgKx2guw7Qc/x+7RENST/BEdODxvHqOpE17XPd1iPSwvRZC5EsbugYgbcOp/7sIp+yVpD2Pjo99AhDEXHz++CacGTCNlRMe5XHxxeCdK8vehsqLOKvb8RQRm34M1d30DCVkPYs2xXGz/uNJxEJKmau/j+2znelNeDTRST98LXf4zq2AVK+mpd36LDz/YjaY2aTUoBclrNuG6W3OQfPNmXF1yCz4s6rUPh658GGstgrUOp17bjPd27ZOMChpELLkPN9zzDaRFD3FkQ74nQ2yPl5EACZDAOCVA0TpOb8y4G1aEDrqOPfjlD36N3bW9o6s+q0f+R/LabvFSZWH9N1dAK9Ky6KWfYvNrfdwAWspxWCysv9T+BVtviMPqG1bh2dxdvZZJ1RzMmaFYL1tw+NUXRbD2UX9N5ch//0U5xh0ZnwxIPXk+3lyuw1B1DC4245W97+PxZi8Pz7ATHz6208uNOjXXuRPv/dRFH+Y61Bz4Fd6Ly8S3b56N5MU5UH/8d9duAqM7wt7WA3NwxbrVYmGVoK/X7sP2XX3cADpKcebdB/Fu5JtY/9UEzFmzFh8XvWmzts7G/Gtk/NJS68Hf4t1399nmYUBT3q/wZkQK7rk7y/L+oMUX92TQQfACEiABEhh9AsMz3Yz+eNjDuCUg6aG2v+ggWHuG2meJVrVoBZbGyjtNuXhrpyu/VROOHypAvVyiSsvAHIekqCabFVUlPrD2hdZxC4QDGyMCF0pLLQIvICYBkU6+qz4fUsZqzFJ+SRj247NPXPmtSjqtz3OhLDSoZy5Agn282iwkJymjFSvrgd39hHfrwZ04o1hrWUiABEiABHoI0NLKh2FoBMxiUc2tHvTauFk6sbJKkeCn9b/5E25zVUOS+FtcVsXHVauIVrtB1XQSx0tacF22+MRueAKbE3Zh36FcHC4qR8toLLm7Gts4PWesz0fOu/njdHSjMCx/8e1cfReylmYhITEBoSEubI5BsqvWKHQ9nCYjZqRb/VgDFyDnx69CvFf6l0AJJFPOio9rqOKnq/zIm5qCaEXAiptFzWkXIWVtxaiWFY205P7N8QwJkAAJTFQCY/2ZP1G5X3rzViL/6wYbtgpREu1vKUpwUppFvrov/iqoHCxlDXjvv57BnLj7cN30JOTceq/lgBLgdFov+T134eXX9qCc26u6Z3o5vBOUhWUPPYmVadYIqi5DJS6cMaDD7gcbIoJ2qrwnz87YfoCpERZpi/JSAs10gzhv+KkRYFvbCggJty79dzejw6VFtQ6trZfDzeQcSIAESMB7BMb2M99782BLo01A0k45pply16Ftvb/gOXz9oe0WN4BhlXN7sHVjPnauXI2VizMxRyy3OonMj0vNtBw5WUl48IcvomhYwnXYG7MOa8g+uVgJxFIFImjInZnRpARiXRxyhXFyoRqxNz5sFayGQhzcthn/zCt1jLpf+Ct8f9Paofl7jvqsbBbgot/i97/6737L/KPePTsgARIggQlEgKJ1At3s0Z+qCYZ6RaaKhTVKhKZYwur7pSQawijMDSj6eLvlUIpKm4HVt9+LjTdnICxtHTZc8zZ++G6DY0P2XEIufRzFomtPnzSE7sfjJeMmEGu04fjPxqyFKdKL+IK+sxl7RbA6F3Wk5DN1Pjkmr41oaVSWH8TCGh5j8a+tGeLz3tXWbPXL9QuHeDnIH4rzBMSVgG7dzlD4mgRIYIITYCDWBH8AvD39cn259ft3aiYWTvNO66b6Irz3x59hW4Hi2KpCsm6m/LdvaRWfV6vTa1iYbEbg3K2ky4qLcD7Z/7VJ2ujJqTocVWQXKkqd4dTrPwSe8ROxZrlXks+1yimdlYWOBomz0kfXLaBbniXbPQ0Y5H42lZXCsoofL4FVg3gHONzcs6WoU/oQ393YZBf+uiHpiItxqMEXJEACJDDhCdDSOuEfAe8CMH2xB4drJZ9qjA43f3MV3nt8T38jktKl/2RJyA+Un+5rMRWLqOyyZdOfTgNTQ2V7WhVx6VyqaxRTVRy0s8SNwL8I5X0sXknXyOYH/ZSscwvyuq4aF6RekioOydPl9TEX17g4ZTK0WMWuBJhZXHqH5brgokEXpyZMIFa3+K4qPp4ayVcqO0QBTsI18RtYtniUdwuor0SL5KCNkkT/0fEyhDIXN8R+qmgnTtStxaLo2ci6bS0Kn97p2kVAcsxGyHSaamyO4U37UVr+IJJnRCN12Wqo8x3rhS5bi5SQAfrlWyRAAiQwAQnQ0joBb/qoTrk9Fy+/nGvxf9Wu3ISnN9+BnFRbcJacC5uWKUv9m7B12//Dr25MdrSKBq/CI9v+hM33yDax6XG97wXLpgT/vgm3zVWUZz3yC4qcNhgw4WSB3tKnKn0d7pfNC+KClReTkXHDJvzsdt3QdiRoKkD+aYVOEq67fR10vcNWTrov5/Q4o3Tur8M1t8qmCoNY59w3xHdgLkTpCUXYqZEsvq1ZPRn2RcQuuAe3PHiPpI1yEW3vTXSGXJRWKA2mYP6tdyFqIEdi2czgn2/KpgBydWjWZnzze/cgVQkSs5WA6Cyk/ctmrPvNW7j9q4rbg72UovB9a27W0GUP4oYbcqyZBcSSHLHkYdwiu2vRotAHF/+XBEiABIQAPxf5GHidQPXOX2Oz9jE8sl6snsvvxmY5INu4mpRsAX0sntWf9+9aFa3D0tvuQ46SK0ssqi1ST6Us+VuEoAnV78sOWwf6W1pbDm3H2yVZuDNN2UL2P/HX9fa2lTrbsW/eHVg9tX9/DmfM5Xj7lV1Y++i1iMu6F3/efjdabLm2Wg49iW9t3e96Ny4R6m9/XI6cm5Ogu3ULXr+mGtXNtiXm6j34xeZXoB+ir+MgI5wAb0uS/jefR8mCh5EWkYOrH92NnDYDzIEaqBW/5LZC7H2zDotvUxL6OxX/Bch64EGkaXqX24Nirf8fsexhrNf1eW5q3sSbz/7durTv3A5EUL75JhY9cIsI5Qfx7Wfvg7HNWrcj7//i2W27HWq07n0Yr0fINq63ZiEq6z6skwMdsvWsv9o6ZtvVSq7WvsUoGyXsnJdi2cY19bZncN+tso1rt2QYUOZZtxtFNbJd7Yx+g+MJEiABEpiwBPy1MbGbPZ29Sh2Erk4TLl685EKVhzX1iTLPvlD8k1bgtqtmQNWux+43D6JySOJLhOKRD7H781pMCgqGRkRncHAwVJK6qr62GmXHD+KD15/DH98oQFPfzdi7LqCqsgGtRjMmBQYjWOqFhapgbqtHZdFB7HjpSfzm5c8tidr7FXMt8j/TwxyThPgoqedvRkv1Cex7/Rk8/j+VmH39GszWmFH5z1ex+5T7SZjOfo68clkaltyg8RoZt/SvCpLj3EH8fW9Zz8Zfjv2bUV2Yi7KLMZgSHQatNgbayAhEKIdfOT7YkYta9132m8pleSIqB0uunIugzjIU7XwfDQNtAdt2DF/mnkR3RBwiIycjJEzWydsqUVX4Fnb/16Mo7MpB1hXi12z8Esd2fYIm+8eOXxrm37EBM6dGI1xrPezpXf2CJvecs7x38Usc+TQX7W4+sszVB1F8BoiMS0aYRtJTBYuYVKsxqfYT5Cljc7hJJrSWvIvCwhpcVIVAJemsgoLlX7MBrRdk3F9+giP/+yQ+3JWLToeK4reb9z5Ot4cjQp6ZsNBwQLaCrcp7FTv/9F/oyPh3zIyTHbO+3I6CYptbwWX5cHBSJEACJDA0ApN06fPdfGwPrQHlqlBNBNrbWtBtvry/mSfKPId+53klCZAACZAACZAACfiGAH1afcOZvZAACZAACZAACZAACXhAgKLVA3isSgIkQAIkQAIkQAIk4BsCFK2+4cxeSIAESIAESIAESIAEPCBA0eoBPFYlARIgARIgARIgARLwDQGKVt9wZi8kQAIkQAIkQAIkQAIeEKBo9QAeq5IACZAACZAACZAACfiGAEWrbzizFxIgARIgARIgARIgAQ8IULR6AI9VSYAESIAESIAESIAEfEOA27gOg3OrweVeTMNogZeSAAmQAAmQAAmQAAmMhAAtrSOhxjokQAIkQAIkQAIkQAI+JUDR6lPc7IwESIAESIAESIAESGAkBChaR0KNdUiABEiABEiABEiABHxKgKLVp7jZGQmQAAmQAAmQAAmQwEgIMBBrJNRYhwTGgID25i14/T8ynXqux3uP3oWth0xjMCJ2SQIkQAIkQAK+I0DR6jvW3ukpKB4bk6MQ3t2Ad09Wotg7rbKVS4CAqb4cRSVhUFnGqkJcahLC/Ic7cBUybrgbKxOAC1+8jtdzG4bbAK8nARIgARIggTEhQNE6JthH3qk6eApunZmGxC4RMHoRrRdH3hZrXloEWvY+g+/ttY1ZtQKPvPIYVkcMdw6hmLlyHb4uBlt9+x6K1uHi4/UkQAIkQAJjRoA+rWOGnh2TAAmQAAmQAAmQAAkMlQBF61BJ8ToSIAESIAESIAESIIExI0D3gJGi90vCn9eJZYV3AAAPM0lEQVQuxUo044VP38cWYxQ2zp6L6+OikKryh7GzFaV15dhWfAw72hw7Uaun4I6ZOtwwJQopwUFQd3eioqUOh88U4/flF1DncHkgvpV9M34U4zTQwCQ8cb0cfU+3lOD2TwpR0MdlID1tDf4xKxKoyUNWbhkMTs2sybwZT00LRN3pT3HN0fMwOr2vjlmCfdkzoOkow3c+ykO+Zga+P1uHr2ojER1ghqHdgOM1J7DleLnNVaF3vMVFO3F7ZTg2ZqTj+phIJAYChtYL+OBUIX5T3thvLCO9FT31/ONw5+/+GxvSgaLn78L33lIh5/a7cduaTOiixRfU1ILq0wXY/epz2Hag2rG74CTk3HYHblqRiZmxWvEVNaFF7l/+wXfw2t92ocjdZmgRGbjutnVYuywDSUo9SL2metRX6pH/2R7s3Lkf+hbHrnQb/oI/354EfP4MbvrJO3B8W8b8yN+x+eow1L//U9y5NVda9Kyosjbhr7+4FlqnZnTr/4Td6x1PHv7dv+KRnU4D9qx71iYBEiABEiABrxCgaPUGRhE8T3xlKa4P7W1MrQpF+lQRdxWOojU6ei6eW5KOdBFwSjF2dcLoF4jEyHjLcWVsHu7NK3PwVa01nEdxgC3iJiAUKRoRuhdF6DY2Owg/Y2srjKPo4xoevQB/W5KG1J6nxh+akEhkT0/CwhMiWjudYAYl4amcuVgZJOeVcU0CNGHik7vgKiTgQ3yrvNWpghdf+ifh6z/fhI2L+0i14DDEpa/A6sXv4GURrXYxqJq2Cj/82SasnmYNcYLJBJNZhTC5fzm3bsLSZZnY+vCvsfuc0/gisnD/1sdw03RbvfYWtEijKm0ckmLkmJcE01ERrWMcLWcyVONksR5RtkdImVdcGGCqLUd5Q19JbEJ1k6cS2Yv3kE2RAAmQAAmQQB8CFK0ePw7+yJ61COmqZnz4ZTG2V19AqYi36LAofDVJh/C+IjJUh6ctgtWMUxVHsOVEGfa2mWUE/kiPTcdjC9KRGbcQv9BdwO0nm21Wz07sOP4pdtjGqZ68ADuWK4FYVfjDgcPYMYoi1QGN32RsmC/WUmMVXjhagg/qm1HXrUKiCLRbZ0x2STFlejoSm0rw00NF2GHohCokHt9duBTf0gYiW6dD9tlCHBql8WtX3I0NqSroP3oRr32Ui5NVYj3U6rDwymuRoyC3l+BMbHjMKlhbTu3CtmdfwXsFiqBVQZu+ChseuA/Xpa7C/T/Q4+RPtqO8T92km++2Ctb6Amz77ZMS1GQTwqrJ0GXm4JqvZeBC375cUvLByeJX8Mj9r9g6moybnngV90sgVvn7v8Z3XtL7YADsggRIgARIgAQ8J0DR6inDSWJRDW/EK//cg8cbehVKRUcrCmR5Wd3Tvj+unzUXmcoS+bk8bMwvR0XPe2YU1xzDvYWh2JmVhPTpqViqz8feURJ0I5qyKhLpnWV4aH8edvQY4zpQca4Zh5wtkLYO1Obz2PJZId6w+RwY26qw5YgeK69MR2rIFCwNAQ6NkrE1Li0JRS99Hw++rO9dXj9XjfJj+/G2zTCqDDNurbgEKJbSml3Y+uMnsa/HDcCE+mI593NJLfXsfVg471qsTduOZ3uspirM0ckSv5Tqva/0ClblhKkB+tx3LAcLCZAACZAACZCAdwgwEMsLHA3njuH3fQRr3yZ7fEQDEsSHVRTrxVa8W9pXsPZebaitQL6yxC4+r9myfDu+ihmHToqrwzBWj421ZXjX2Um2RVwdlDZE7CeKaB21IiJ022t9BGvfjnrmEIfVV2Za8p7qP3ynj2Dtc/G5fTh8Ql6Lu8GceXEuh6uKsOdOdfk2T5IACZAACZAACXiBAC2tHkM0I7/m/KBBRWrNZKQotCepsHLOKvzDZb+BiFH8DicFIyZY/nWOmnJZx0cnLzbi8PmOYXVWYTC4mIIJzRZh7ge1vzLZ0Vk/rz+ai+ODCWxVBmZOs04pbtUm/DnL9fTCYq3ntTFaEbh2X1gTjh8VUZydAe3KTfgtdNj5aS4OFxahmnFMrkHyLAmQAAmQAAl4QICi1QN4lqoXZYm8fQjCSxWEGAlEAiToanLUoL2qLdeOoyLZECoGE4FOwzWZB+YiunXUSn11b6CV207CwhCm/DiQogQn6dxeaHvDv49fgZwqf+sZPDvrMWxcGQfd1XfgfjnENwAt58pxvEDcEF7djsPnhgltsDHwfRIgARIgARKYoAQoWj2+8WbJADCMRjrL8dAHEkDVPYw64+HSbrMk97p0iql9KGLRLkLr8d7/uQtbc4dSpw8Dkx5vP/5tHM5chdXLMzFnlg4zJZOCVgTwUuWQc8/++Kd4/dQw2710MHOkJEACJEACJOAzAhStvkJt6kCtBFYlSsqqGCXdlbOv52iNwx7M5dJy6y+r9KNo7hytOXmr3ZZ6tLRLY2Jx1U5WBOxIxKWkiSrYhb/KYSmqOCyU4K6NG66FLiIT6/8tC2//cr9TywP3o1I5WnS9NV22QwIkQAIkQAKXMoEJrFh8e9uMhgaUKqvlkySvqUW1jrD0zSjgUog6tmvosi3RBwRiSr8uQ5GqsSXv7PfeBDhhLsLJs8o8VZi5OFM2BvBCMVUj/60n8Ys3rKmkwmbokOSEuMVuBdaIWHbGLwFfyQlDEa1KLlnr2GUvi2EUcSi2e20Mq94wuuClJEACJEACJDAKBChaRwGqyyYlr+oHNUoEkj9WzpSE+25t3P5IDA2FxmUjymYEJquRNkB8ZN220Vu5tq3VGgylibak2+pb1OFJWOOuIzf9X1anzdXYt7/IYgXVLr8Dt6W7F4th0yQhv9PbAxlEVXb/V2WjAido9dVi4VXOTc3AnAjHN1WSGzbHFhw2IGuz7LrVoFwRhvgk572uBqopPrcd1hFpI5TAMhYSIAESIAESuDQIULT67D7JJgEnilCg6NYwHZ5atkSS7PeKU3VgKLKnpuOJZV/DjoVJLqyitoG2NVo2L8CkKNwwI8qtuLVPy9hwHscVn9vABGycN8MmXEUYT9bhCdndKnE85YL12b3o7aj83Rfx9mkRcSod7nx8C+5fm4k4W3AWlE0Csm/Exkf/hBf+eC+W2s8r1WXL2K///L/x9I/vxnVZOmjt6s8/TIKy7sUDN1hzuJYfLXDYkECpajpWgJMWt4QsrL9/HTIslSUf7OJ1eOQnNyJu4Pg16+DNssXsUetWtBn/ci+us+/m1Ts1N/9nwsmycst72uxre3cBc3M1T5MACZAACZDAeCEwBFvdeBnqpT8OY2sJvpenwnOLZVesyBn40XI5JMDJKCJFHdhnrdZNzlcLge7zeOVsM9akhiM9bRX2JStR/dKAIj7bTuGhz/Rw2DXUVI4XzqQhW65PTFiCv8lh31LV2FCMFxp12JjggbvCpX5b2mU3q58/iTDZxvW6aRm46QdbcNP9Yh1VjJHBql5LpLmg/0xD4pCx+A5kXHOHLLmLBVPZw1W2ig2zCVjTKdmM4G9F/evV7sHrH63DwhviELf8Xjwth2XJXh4Bpc7r+mtx5/LBnBVMyN/+Cg5Luq2lsSvww23/wP3Sv8VloG4XNt//HPKdTby2kZR/uAuHb7gPS7VS7/l/YENNtWX7WcWn9/j/fB9b97qp2H8mPEMCJEACJEACPiNA0eoz1NaO6uqO4fZPqnBrqk42G5iC1OAgaPw7YZBl/IrWRuSfr8CHlZU45XZckuS/+FPc37kAGxKnIF1cCVLt2275hcKSKsvBemrGXuX6rkX4bvIUpKhFoJqakX+uBH/4shwxcwdN9OR2JJfLG6aze7D1P/TYd/M63LQiEzOnaqEVq2pLfTWq66pxskjyr364G7t7dsuSmcvy/O5tTwKSIWBhRgaSlTqyyQDaW1B9So/8/e/gtTf2o1yxqPYrLTj87E+xuf1erL86E0mKpbVJ0mQdegfbtu1C1H9c26+GyxOygcLmR4CN96xDToZkLRC1bNHLHYMI3nPv4JebgQ23y5a2Sr2pctg6qLIobopWl7x5kgRIgARIYEwJTNKlz/d4gThUE4H2thZ0D5KXc0xnys5JgARIgARIgARIgAQuWQL0ab1kbx0HTgIkQAIkQAIkQAIThwBF68S515wpCZAACZAACZAACVyyBChaL9lbx4GTAAmQAAmQAAmQwMQhQNE6ce41Z0oCJEACJEACJEAClywBitZL9tZx4CRAAiRAAiRAAiQwcQhQtE6ce82ZkgAJkAAJkAAJkMAlS4Ci9ZK9dRw4CZAACZAACZAACUwcAl7ZXKDV0Dfr+sSBx5mSAAmQAAmQAAmQAAn4hgAtrb7hzF5IgARIgARIgARIgAQ8IEDR6gE8ViUBEiABEiABEiABEvANAYpW33BmLyRAAiRAAiRAAiRAAh4QoGj1AB6rkgAJkAAJkAAJkAAJ+IYARatvOLMXEiABEiABEiABEiABDwhQtHoAj1VJgARIgARIgARIgAR8Q4Ci1Tec2QsJkAAJkAAJkAAJkIAHBChaPYDHqiRAAiRAAiRAAiRAAr4hQNHqG87shQRIgARIgARIgARIwAMCFK0ewGNVEiABEiABEiABEiAB3xCgaPUNZ/ZCAiRAAiRAAiRAAiTgAQGKVg/gsSoJkAAJkAAJkAAJkIBvCFC0+oYzeyEBEiABEiABEiABEvCAAEWrB/BYlQRIgARIgARIgARIwDcEKFp9w5m9kAAJkAAJkAAJkAAJeECAotUDeKxKAiRAAiRAAiRAAiTgGwIUrb7hzF5IgARIgARIgARIgAQ8IEDR6gE8ViUBEiABEiABEiABEvANAYpW33BmLyRAAiRAAiRAAiRAAh4QoGj1AB6rkgAJkAAJkAAJkAAJ+IYARatvOLMXEiABEiABEiABEiABDwhQtHoAj1VJgARIgARIgARIgAR8Q4Ci1Tec2QsJkAAJkAAJkAAJkIAHBChaPYDHqiRAAiRAAiRAAiRAAr4hQNHqG87shQRIgARIgARIgARIwAMCFK0ewGNVEiABEiABEiABEiAB3xCgaPUNZ/ZCAiRAAiRAAiRAAiTgAQGKVg/gsSoJkAAJkAAJkAAJkIBvCFC0+oYzeyEBEiABEiABEiABEvCAAEWrB/BYlQRIgARIgARIgARIwDcEKFp9w5m9kAAJkAAJkAAJkAAJeECAotUDeKxKAiRAAiRAAiRAAiTgGwIUrb7hzF5IgARIgARIgARIgAQ8IPD/AS1U6rdZdY2IAAAAAElFTkSuQmCC;" vertex="1" parent="1">
          <mxGeometry x="330" y="1480" width="685" height="264" as="geometry" />
        </mxCell>
        <mxCell id="vrRyt4MK6rro84GM_9L1-8" value="" style="endArrow=classic;html=1;rounded=0;" edge="1" parent="1">
          <mxGeometry width="50" height="50" relative="1" as="geometry">
            <mxPoint x="700" y="1370" as="sourcePoint" />
            <mxPoint x="310" y="1620" as="targetPoint" />
            <Array as="points">
              <mxPoint x="80" y="1500" />
            </Array>
          </mxGeometry>
        </mxCell>
        <mxCell id="vrRyt4MK6rro84GM_9L1-9" value="" style="labelPosition=right;align=left;strokeWidth=9;shape=mxgraph.mockup.markup.curlyBrace;html=1;shadow=0;dashed=0;strokeColor=#992400;direction=north;rotation=-90;" vertex="1" parent="1">
          <mxGeometry x="740" y="1120" width="20" height="480" as="geometry" />
        </mxCell>
        <mxCell id="vrRyt4MK6rro84GM_9L1-10" value="" style="endArrow=classic;html=1;rounded=0;" edge="1" parent="1">
          <mxGeometry width="50" height="50" relative="1" as="geometry">
            <mxPoint x="170" y="1340" as="sourcePoint" />
            <mxPoint x="450" y="1470" as="targetPoint" />
          </mxGeometry>
        </mxCell>
        <mxCell id="vrRyt4MK6rro84GM_9L1-11" value="" style="endArrow=classic;html=1;rounded=0;" edge="1" parent="1">
          <mxGeometry width="50" height="50" relative="1" as="geometry">
            <mxPoint x="440" y="1350" as="sourcePoint" />
            <mxPoint x="580" y="1470" as="targetPoint" />
          </mxGeometry>
        </mxCell>
        <mxCell id="vrRyt4MK6rro84GM_9L1-12" value="" style="shape=image;verticalLabelPosition=bottom;labelBackgroundColor=default;verticalAlign=top;aspect=fixed;imageAspect=0;image=data:image/png,iVBORw0KGgoAAAANSUhEUgAAAtwAAABLCAYAAABDVVC7AAAABHNCSVQICAgIfAhkiAAAIABJREFUeF7tnQtcVNe1/3+izCDDQEaHl4Dy8AEYgShiUOIjmpjE5FbtbbW9/rH1o/HTGNv8Y5rWxibGxpiY6k0b009j8qmVa280vYneJpp/fERRohGJETSCGh4KiOAgwgAyg+B/7TMzPGbOwAAzA8ran898lHPOfn33Ofuss/baaw0YGRN3B5yYABNgAkyACTABJsAEmAATcAkBD5eUyoUyASbABJgAE2ACTIAJMAEmIBFggZtvBCbABJgAE2ACTIAJMAEm4EICLHC7EC4XzQSYABNgAkyACTABJsAEWODme4AJMAEmwASYABNgAkyACbiQAAvcLoTLRTMBJsAEmAATYAJMgAkwARa4+R5gAkyACTABJsAEmAATYAIuJMACtwvhctFMgAkwASbABJgAE2ACTIAFbr4HmAATYAJMgAkwASbABJiACwmwwO1CuFw0E2ACTIAJMAEmwASYABNggZvvASbABJgAE2ACTIAJMAEm4EICLHC7EC4XzQSYABNgAkyACTABJsAEWODme4AJMAEmwASYABNgAkyACbiQAAvcLoTLRTMBJsAEmAATYAJMgAkwARa4+R5gAkyACTABJsAEmAATYAIuJMACtwvhctFMgAkwASbABJgAE2ACTIAFbr4HmAATYAJMgAkwASbABJiACwmwwO1CuFw0E2ACTIAJMAEmwASYABNggZvvASbABJgAE2ACTIAJMAEm4EICLHC7EC4XzQSYABNgAkyACTABJsAEWODme4AJMAEmwASYABNgAkyACbiQAAvcLoTLRTMBJsAEmAATYAJMgAkwARa4+R5gAkyACTABJsAEmAATYAIuJMACtwvhctFMgAkwASbABJgAE2ACTIAFbr4HmAATYAJMgAkwASbABJiACwmwwO1CuFw0E2ACTIAJMAEmwASYABMY5C4ESqWXu6riepgAE2ACTIAJMAEmwASYQJ8hwBruPjMU3BAmwASYABNgAkyACTCBe5EAC9z34qhyn5gAE2ACTIAJMAEmwAT6DAEWuPvMUHBDmAATYAJMgAkwASbABO5FAixw34ujyn1iAkyACTABJsAEmAAT6DME3LZpstd6HLkI7/znjxE1sH0Lij9+Ecu35fVasxytWDN3I/6xNBq4tAPLX/gIxU2O5uTrepuANjQZB2O1Vs0wYHfWfrx6o7dbZ1t/3MgZSIv0ASpOY9KZUhhsL+nWEaVvLD6ZFIWQ5jKsPpyFz5u7VQxnYgJMwEJANQq7J0cjAhXY8OVJ7OrKe2GANx6PisXiIC0iBntCOcBUaN6lQ1hYWM+M70UC3qOwc0o0os1jbeliYcFhzPu+9l7scZ/s070vcN8qR/GlAsAscKuGRSJI1SfHwnmNCk7Gwjkx8GnMx+Ed6cjvymTcxVaoguOQ8EA04qOjETU6ClGhGihEGd++hx/9fi/q7JWn0CAqIRHxMdGIGUP5oizjUo7PfrcCf8kx2st51xw3NFQjp3qgiQc8EeLrA7XVhHfXdIYb2usEtGHB+Nloerp0OryTXee0D6Je75grG+AVjq1TxiHJoxZpXx/GZr1zK7v7xsQDM6OTsSHMWwJhuG2A7rb4XxNqpH+dnHw1eHqCL3wba7E3oxK5Ti6+bxQ3FPdNWY6opCm4TzuUZno9bl07i/KT25CfeRaNfaGRzfUorK4CzO8ftbcGIZ59oWGuakPfHJN7X+AuO4CNLxwwj6oCs9f+D36V6KpBdkG5t6pwrbycXrJ1Dj+4iqA4PDp3DoLqTuD7D10pcCuQsHg1XkrpxhdM8Bw895LtyoMLCPZakXrdeaTqzNUP0GLD1GQ8ruy15nDFdzkB/7BA/OxBetYKG/B3FrgdGs24sAgkkbLFUFmIXU4WtkUDem1M7jSitL6ePuYbUHPHIRSmiwYGY94wIWwbkHEuA6uu1rv0w03p54cfPhiCEON15B4ngfueW90KR+BPNuOBhGFtBkGNwaGTER6aCG3Yepz8+AuH391dGMmuXdpQitWZpeY8HpiXMAevBHStiLvn6r47Jve+wH333CWyLa36YgOWfCF7qo8cNKKOPgi+v5SP3Lw8+KSsxJNkAeNQaqyi1Yd85FO+89VRmL84GUEOZeSLmAATYAKdEBgYgMXDyESKRMovL1+BRdzoJNfdcbq+CM9+VdT1tnqrESJ2bjXdwKFrrhW2u964uy+H8sEXcL8kbOtReWg9zn15BLc8RsN/1q8RN20cfJLofH4Wvj1Tefd17i5tcV8eExa479Kbqm8024hTm5fhR0aL+QetIMQtp6ZJRiUdp5KPsGrBDhgt5i7RS/CU+L+VrX3HhfBZJsAEmIA8gYiQKKSIFaXaK/iw8p5Trcp3upOjSg8P0+x8pxkNXdGMd1JuvzztkYiIqYlkQkKfdGf+iDP7j5g12Rdxfd8rOB+wnUwm1Qic9iP4nPkr2FLaDXdJHx8TNwrcKsx+eTt+laRA1cF1+PnbWZC10rVsckQBdv7yOaRdthokrzBM+fcf48nkOIwM1EDlQRrWyhKcObkXn3x0ALk1zh5UBYISn8CCH0xHfFQohgjriTrSzOZl4Ys9H+GzHLKL6iiRrXL8bGrvQ3GIHREIjZcCxjqyK7+Yg68O78Wn6QXt7ZwHBmLhm+8j1VpL3OGmSQ3mb9yOpbFWDVEl48VP/oUX2x4u24tVK95Drhm+5omXse2ZRCiq0rF+2SZ81SDXGQ2e/MP7eOYBGrsvN+Dnm0+0jJ2xRdiWy9fBsSaj/Ph3kKVfnRrgiTj/4ZgToEU82X5rvbygFUvjRrLFu1mOfUX5SKu22tboEYxNMxIxc0AZtuTUIml0OOIpwKtOdwmvnitEQ1ACfhcVjGjPRhRWXMQr54qQY0cOUQwOwLJRo/H4UD+EDGyCrr4Kx4ov4t3iKlisZKzHQzk4GCtGRWGmlIfqrdfh2OU8vNvRUv4gH8wMDsUsrRbRKm9olUqoPZqhv6VHbmUpdhXm45DsPWldu2N/h8SMxj/m+0NrrMaf/3YOW20UTwrM//d4rBujgKG4CIt2lPbeMvigoXj7/0ZjlvX3a8RIHHlpZLsO67PPY/pnVS41D+iYsAemPvYA/jLBC4byEjzz98s4aW0T7KXBmzRJzfFrRsHX5/Afh/SkF3RRGuCHhWFaKNGMzCuFyHGWcNmLYxI3ijY1RwiNfZt0p7NNk55InfAYnh9qxXlQCDY8Qr82h52zaXIQfrZoEl4YYVWflz/eXE2/tofpvf0fWy8j284cZFWC3T+VvqOwKcITmfS87r5R77p7yroFw6ZDqxEHK1GeedjKbOQq2XAfhyFmNpRBkxHoTwL3desCevC3hzdmDh+FBbTxNYbmTfUAMWdWI7OiENsLS5Fj/ez1oCpLVqV4J0TS/D7ED8O8aLNtcyN0hnpcrdHh6LUr2FVRa5e91nc4loUPR4qG3mUK+kShvQNXq8uxl94P/1VpcN681Ztj4gBjNwrcdcg4mYNfJCVCk5CMeEUWTslI3GGTE00eRQqycLikfQ8UodPw3JqVmB5qfgORsGdsVkAVHIkpc1di4qQ4vP3yJhwpc6DnDl2iQMwPX8a6n8fBYqVsbDBC4RtIGyTm4JkJkzHxvTVYv69YXnjUJmLpS6swf1SrjbPID5E/8RH6xWFIldUGQRJEr5XkIX+guY++oYgKtH7jWjfeiBtFlMfTfN1gDcLE5sWmOlwrKG8n0BvJ/KNFq0zFVGWk49TiREzRJGL6JBW+SpfZ5hg4DVPGirLLkXn4G/m+WjeJ/+4RAaUmGpsTwtHi46SZJlRaAVArfRAdSL+AUKRcOI6VV2ptJyuPQCwbFwzQhAgP2qwZEIvXEwJg0Gihvd0Ig4cSEUHj8Du9jrwSyOhdlMHYkBiMlMHUhaZmGEj41/oEYF5MAJLUJ/H0+Qqb5XmlOgrvJ8YizrwRx0D51CLPWHohXLMnogNx4ROxSXhGMSdDUyP0zZ5Qe/shSfyCg5H2zXFsru7hW9lcfmluAd46q8ab4/yw/KkQHEtrL1CHxEfi1yRsgza8vvNpLwrbor3NRpSU0oeH+bFW+qgQ6Uf2AA0N9DHSfitWzQ2ZybSFqgLxy9/FhqcCpSP5O1Zg5c7ilrPO+U8zjn55ER+Gx+EngaF4adoNK4F6EGbNiiRhmz4ay4rx+3QXCtvUIbV/FJ4Q025DCXZddZa/HSrPaWPSdepCoMqpbjRpqEngilAr6YOi83S9Voe8Qealw4GUz4fyCRvwmvYCUuEt5+yuv15RjdxBZo/DCiUi/RUknN1GadkttNWHGW820Pu78/Z3eoWHF82J4UgJjMKKugrsKyF7/dIK5LlA6GzbFuWIMfAR3TSeReVl2+evuegsbUSdDf9B4bhvhBq47pzPS6VXMNaOH4/Hpcop0bvBcMcDapUGMyM0SCElzdpvsvG5ExUV0vw+keZ3s8RoaDSQcE3z9GA/xNE8HXefJ/KuZyPD5sPWA0nhk7BplLbFYYDhNg36IHoHaYfjWW0wpl48gRVF1XaF9U7Hv80FvTUmjrbRjQI3KYZPnED2skRMJEF0cpwCp7KsbtKBpL2eECm1PT8zvb0LPK84pK42Cdt1BQew/YOPsD+HhEeafjTR05D6zHLMjpyGFSvJJvj3e5ziPk8RuwjPpZqE7Wsn/oY/vbcP2TqqMTAR83+xEqmJGkxcSgJ13nPYSY5Q2qWBkVj44m9J2BYv72Ic2bENHx7IQrGQZ0nTEzNpDub/WG73ZhWOvP0ijpgLa3ELaFV8+z/rcOQvrXkUDyzHX/9AmyYbcpD2mw04YjsXtGavOYEjWVWYMk2DhGmToUo/YONZJGzqZMSIl35ZFvZ/11FhHTayV0+qB7W6v3KkISbBz5ErXXRNcxOu3riCPVdLcbTyBnIMpjeTkjTCKcPHYXWUljTYCVimy8AWGU9ehfmHsbioFsPCkrEzhgTtIVrkFRzFwu+r4RuUiJ1xpOkOCEQECdyF1l3wI2G7UYe009l4V0d2niSgp4wYj7U0aYaEjsfzlYewqryNwEfaxBXjTMK2QV+EN3K+w+66Zig9/bAgJhHPB9nfnWNsqkfetTLsKyvDsRvVKDS/89WDtVgwOh7P0ipW6v3RyDh+Hpk2k7l1wx35+zb27v8ek0Lvx/yQ4Vg3+QYWZdwyfbT4BWLdw0Ohxm2cJOHx750sXjlSW4+uadbjj/+d01JEzOQE/HMGSZFlJfjFf5fbXWnoUZ09yWyk9v5vCSalhiIyaRR++f0ZrL9sum+1YyKxRiy30DXbPy1BtkuFIW8sCA+mcaT9pSW0QuIMoc7CpRfHpLDkNFItSqgWt4CdDVgjPr9wAp+bL1P6kYvOJHLR2VSBLZmn8blTnqm2bRDP1znstdQXFo5/LRKbJqvw57SL2OvMsTDXYagtQdoVb8wLDkCEij7yx9BvZD1ySOu6+0oR9ulJydAZpi6fV2BwwDBTruqrqJPuZwU8aW5VNV3Azeu0dGYoQh3J2P4aulYbTufPdrkWmwweNNcmmIRtfXURtuRexJ4ak4ZYqw7BirHjMI+0yb+LrULe6Su2c7tNgY4c8MTckdGSsK2/eQlrz17EoVvmgaQPuCRtCObRt7ycZBASOB6vjyZhm7ykZHx/Fluu0IeQZDrqjZTQWKwdHYy4UfSOuHkYr97s6c3RS2PiCELzNe4NfFNzHMcld29kZpEcbWvpS+7spgh5u6kAp46118AEPUZmGSNI6is/gLfXvEOmHELYFsmIqrwD+NOGbcimLzrV2Ecwe1QXCNi9VIXJ//YIwoRioGQP3nprjyRsSzWWZ2HnG+/gC3IeAkUknvo3MsmwKkc1bQF+GEtHm8rxxaYXsXGPWdgW1zVUITd9B9avehUfFsndplaFufRPssMm38hCtlDFJWOGtETWJomPIPL3KvpXnEEmO73d3O6wIFOLtdMew8EZjv/eDXNEd9SdxjiWx3CTPJxkZWPLVV2LsC1yGm7X4lDBaaTdoMnJQ2gzTO692pV6R48MWt4TL5nC62W4IF6qd2qRec2kRSjVVSBXHPPyQaSsm8JGZORmYbMQtkXBzeTRoDALm64JIduThO/h5P+3Nam1UZgnlNTN1fivnLOSsC2SobEaaedOY5fMB4Eld17hSSzMyUPa9VZhW5zT39Lhg3PncUhU6R2MmUJ6clYi7fVbe0tR2uyBmCljsDJYTINe+NmccEwinLoLBXj527vxRncWoO6XYyi7jN8f09NH2mD8hHhOJRkbPkOx5jEy46EPmeyjF/GeM5fWZZqq9AvHPLEScLsCO0tlVnBk8vChu5jA7Sqk5Z3EvPT9eJrmks/JrMRAAl1cSDReSX4UBx8kgS5EgwgnSztK2oAqpTqdZE6iTFiHlF9txoPPp+F+st1Gcw0azAvGnmprm57u8Q4ZFosFvtQR2jS7NussdpmFbVGaTl+KV78lxQQJ/+qh5jm5e9W0z0UKlQRRJ/UyoyCvVdgWV5HCJLP8ElbnXLJViAzQYOmoYHrum5FDWuxVhWZh25wv4/Jp/O4KvRzIL/wTI0wfyD1tbm+MSVfa7ORbsLOqTWYl4lUWRGYlkta0TQpLNpuTXLY2JwnE9JQ4SejLJ7vnr+TstMuO49RFuoAExJixpqXTzlrT4XlFDPmWNpmC5MsJmg2k7c0wfRRoxk5AVLu+qJCSMkEyQzF+txe7TsiYaYjKSfCukutLhw1z/kljTjq+EmY4tIowJcWK3QgyJzF/BB0+UuD8yrnEbhAwIE9vWi8M8faWWVY24LpFpWNsNLsNa4DOopQmUxNhngJPT/jKCdyNFdhb0d5kQUy2X14tk5b9lL6kXW+zNhZP9tfSq6emFHutb/XmKuy91k2hp4mWpoWwPsALId7Onar05LXi5a/Jl/UgFX7yVBjmPzgSyyOoUzXX8da+6zYmM90YpD6UxYjaq3nIzsmRfrkVrv2YyP6ahOpieutrgvHSLH/87NFIzKIPMn1+EX5/ssEF2sa2qD3xBNmKhtB9rSvLxx7nqzb70LhyU9oRIMVA5jUS/rIOYdaxE9hcWIY8mibVvsFIHZuC3dNmYGt0OGY6ZS5RkrWe+aXfaCSRkrSrEeOgFNOUB/mAjhhD/6kFWdJIyYNMKHo+gynxONlsC1VQnli5kbMAMpQho5ouGOCDBI3zlEamDbYDMVTYXzuYlJrheEjogxrL8GGJnEecZmSXV0grdUq/IYiXexc5WJfpst4Yky41EG41KRFNazErIbOMKdGklbYEOBGa1ElCspMxJ1FQUJUwU8eCpv0S70yQ76TKLCtqaCeDguyNe/RaIdvp4ZK2lzZIXhSqbNuUX1BC5hdhUA0NxHC6D1u0vwoK5CK08ZSKz+fgmm3WvnXEmIMv6OPhyR/Rx8pD5Jpv3x5cMz/MUdOSJZt64/kjOGJlU9+3OtFBayjC4apDn3ZwQR89NcgP88Kj8Lg/mSB5e0E90HbKVpCpjE260wRjy1KxsO+jK2hTjcGyjG85P4CC8ogirVfy6quRZ32MLjPUkhaayoqjyTxSfE2KiZ2m/0iVaWLX6atx1aYxwIVqoVmnoD8y58QhtSoYi0lrnkKbcSK8yL7Uppse8JVsUGUaZafMzg834+SxS9geEYenadPmupmi+Abs3VeAvR1o5Dsvt29ekf/pJqx21yNAHLd+WoRJS0ZiUvxovCCQ1FfSh0w5bYV3cfIejgX+9EzcqcaeKzoXC/cu7gsX320CYoUs7ZL4mTafzwsdThuzfZBE5nhJ5Js97QQFQeqmHqClUe3mKSNqTn2Kypifwvd2FopOC1MwbbfbL5uRNM0xvqYzISHjsdOOXlFtXvQcShvtlfQE9Pibk54lsXdgHm2UTKKgSZu8i3CwQocMPW1Q7cAkaZivn4mAhxZPT0zBYrlO0V4E6b2g8Ia/ELg7KE8uu80xd4+JTQM6PuB2gRuSWclyTEwKRKIwKyGNiyQYB0zAxEhhgmFrTgKVD3zE0iQlsUEyquM+kZbbSnXe2fVy58kzhFRKUy1u1NgR3c2bTlQDfaARD0KLdk8D2oxLiTYzXpcX1uWq7M1j+UcoQM78RYgaMx3Tg/dgpxCuB0ZjxiTxpWNE7rH0FiG8N9vZX+pWkuCwKTEeKeb7Xn+LbK1JW22ZPJVKIZzS7DLARjptj4iEa9tJjARXSXb1kNGO0+FG2n0uB9qiLaeNmL4tcn7r//WNdrSXIh+VJydwhwTGY+s40kiKbpCrMh0J+4ViU42UxEYg8ngiZilyZ+b0dLsO7+29illLyOaYitd9V4DX8l1qXOz0LvTZAqvKsT7DH/+c5Uf3GNnE0+rYJy5fzfOg/Q3hiKax1FfkY6f1akufhcUNcx2BRuSQNxQvUlb4epGHDbVp4rKEs+9+vQaytBNyAUkJpOkWs1NjyV9x6vW/tinShzTbpj+byStHj9UFA4XSxVSe2CBp7cjMpi9OmzMbsftCNm2OjMc8tR9mRsbTj2oTG2/1VWQrX4itZJtdaNVBf6X5JTGQNkj6daJtJ2FbVvlj06mODvTCmHTUHJlz7he4SSrNOG7yVhKUSNrTbbTESfdt0OTJJrMMGe8kwm7UlKrwxdpl+JP1ZkuZjrnrUCe3kbua0fN6Lqfj8AWK/BhLHl+mR2LnjgIoxk7D5FAqui4HRzJ6ewdZT7pIghs9/GblgEMFiV3Yuh7PkA5VJXMRbfqKHScJ24Ya2oR41rQJse2FSaNnYmu4jP22TGkuP+SAVkL2OSHXZKtjhbDdjNKrZ7E674qVOytvLJ00E8+SZwvXJA8k3D/UJOxTBdoR/pjqQyYwPdV8uaaxd1epZMM9i+xYTeM+CLExQxH5bZlrNdyewVgoRVGsx8GiMvmPxruLIre2BwS06mDMJc32PNq0bQljbiDN95fF+bTPpAcFm7Ma6oWBHdlmq7QmX9zWRXr4wsvsoKxRX2l9tgd/12N35iHaZNiDIrqataEMr57QYbd/iOTCNeE+P4zx8UaIL7Gl38OBeVh26lJ7N7MWE5HKbMz65opbnsfeGxPHgPaCwE3yWyZ5K2kgbyUBZDNMX0q5eYGYTOYkQqNs451E9IP8XtcKk1WVCkPI/Yz8fljHOuzwVaS9lvTapL0e4itaJqPlbqMFb2+LTbbZ4qWtUmCIv1j3cflCqsPdsn9hOQ4fyUFqLNnRp0xHzIclUExLlCI/1n2bjrtb3g7E2hTyT23WDthn0Hom58J+pF7u8WKcI1XZXqMMwCwN6Uxoo+Ouc2ITovUlHl2ypbPO3enfZNstFkPF66RdIvs9yeabNButiz4G1JjNvdWeYglTxk0h5ZMTuNVDgzFRPM7kum3zeRK2rT9wBighrANcldQR4ViXNBjK27fIzZ4nYgL9seaJKpz56F6z4XYVQXvleiD+oTFYLpYtqsmt4UA1Yoj1Hx68iSVfmz3C2Mvag+PRItCNeKNVk0/gHns86EFDOGvvEaDNkjOH0abZkFBM9DW7TRSa2Oul2F1M7gJ19n1Fd63RRtyqEAZ0JHD7DYOK7rta68UxZThU0rIeXasr6lrxclc3NZj23gzygr9kd2c9YcplcuYxWi24TrEb6CeSkkwen4gch+fDNVD7jcazQUV4+mrr3p8ag/n/Sm8Mo+tlV02d2TzB2d1j0sX2i1Fzf7J4KyG77YnCrCQwGRNH2jEnEa1rIh/T0v5EBUY+0OoTu1sNJz+qIon9DpLJiL1UU4IrklKXfFqPljeWiooMNfnnriyH5MDBkozkmtDslzMsLs794cotmymEgNmFEZZ8cgvhLpS8lcRNwPQJot9VOJV+wsZVYJve8n8dJGCJ7ObVyeYQpcJLTOMk2OpRKGdPLHaNSx+eLkrkV1Usy1snpQ+ZsUgCdy0KWtrViII604eJlpYbxcRqncb4+cmak4hgPpIgbsdmHF60kUb4AndFIteca+YES9r13K9yseifRThJfVKPisQ6Ct7iSFKFRiOenm/xi7L27uNIAV28xgmL0l2ssXuXq8PCSLhWke/lW/jk03P4Bdlu68gjTPxDo7A8UObG6l417XORneiCMLEUQp4ULhchzxllOlDG3TImDnTFNZe0Wod16V3UtcZ4IOK+4Xj+/hQcnD4Tm2Low0sI24Zq8q6UjWeP7cecb8/iA6cJ26bWGS5fQK3on2Ichlpig7RpuAfZi/uKD8DmIty8bKO+6FoXxdVkS50rrb55INqyUb3rpZhykPmeSAraxyOnDHGkWMPtauy+eBJbpKVgD0SSArJtWYU11SYhm1YASK/hluT2Melir1w0+3XWCpNZiRB9wxInk4vARJPHEllzErqIXOt9dSJP0jFrksndXrR9UVkVGokg+6dxTWcyjRgSHNZiqCLbWmMusvNMqsWolEdsPKrAKxGPpph2clZ9942VuzzqX8Y3kpCqGDMHC5LN60rWFSlU0Ng5ZX1pV/421tahUfJCocEQyZbcwVSTJfnkBgIxZekipAg1J7lAPPyNjHbfwSL7xGXmTZMJ+z+Foz+na7fv1KNSwqhEiHmToT02BgpOI03P5C4pRGaiCgmmoB6utCbxDKAIl9YCvSceHmZy3WSgSJfC9ZQlZet0pvb6hmCO9f1MrgvnBMnfhDqyFZdE9cFqkyDfDognBXEge9xOPk7aZXH4DwXmPDbSFISl9ApeO05aV4p69vLBSurHIEx6eCSelr54OkoKJCx6BRtef036pSZZd7yjvN07V2P2xQ5vT/h3sYiop1Zhw8aN2LTxNfxqlrwCoYtFyl+u8MOvnyKbeBI0SmmJ+S3yw627VITXztISpUKNxT8IwyQXrKtqg+iZEM9KfSl22njYkW+qM472ZEycUX9fL8PQcNv0jA9SwN+x79gud0l531i8nxSP1GEaisZL99vNUqTlHMWco0fx7KUryGhwkSb46hGYxImhCEyeYSVPDKNjk00C6LXjKL/e5W7JZDDgUJlpI7A2KBqL1fbFN/VgenfYnTvJhI8A4D2oAAAMjElEQVSCZ4mkpf1xHYhLLW2wb/NO+4DM9RgoAE/bZKgqxbFbdITcAy6U3APaS56IGGz9vrF3bSfHr7p7TDppj9Vp+yPWtXK6fLXJrISyjUjG0jkmP8/531gFu2lTavHeHfhMaI3J7/XCl1/DM7NJc2x5gCl8uoj8uPS3b2Pr20uQaPfBNuJ78tMpCcJxc7E0ObCDm60Ox/91wBRAJ/QJ/PrXcxGvNd2aIvDNwt+uxGzx3jIW4Iu9tmHq69J34eM8ai+Fap+9aiNenJuIMMs7WbQ35cd48c31+El7f4Jd5iib4Wo+rohOUvCdGXNpRcBhU4q6Fp/cmhHkfYWKuEYBiLI7krfFRwN5hbH8yBrBlAZ6Ykib42RdY5MUmtZ8QT6e8DS305M2hLSUSUED7o1E/krJP6xIccPHYt7gDh69Bh0yJXd4InBMNGaKzZEiUQCapNB4bIkJpiiiLnqJSBWRr20RsGaoeUlWBL4JH49VQWJwySf3ldJ2ARX0lWQTKTQvFJTh/8RR4AWVqb0i8E3q/eOxwM7Hgb5KhwuiG4OHY9WYYESYx18sVc4bk4y1oRQm3AXdFNEk14jIqRSE5T3yx20JLV16lqJQig0lJDQu/0Eo4l0gGEp4u5n05F6xVPDwD+jivKGAzzDSxsdGIyY2DiPN81g3m9FBNoom+ehIzCdtv+F6CV4+YokmeRsHD36PT+hbXulPHmEeVsuueHRQcCenfLBweAAJN83II/vcDBfcM/Ya0P0xsVfiPXa8ug4FQrbzUGPORGePeysrw22aX4vPY/Xx/ZhFAX02U8yBUgf2lvSIdnMWCo9mmXxwx72AuJnTycyCSlSEw/+xV2nfgrAn0aM8/Z9kaOecVFiah116usEH+mHp+MlYHUSbyi2vEooIHD1EaPqnYvdk2gPUwXs/t9KkJFFSDIWWed5eEz1C8PqUFGwaORwzRZRSy3XSeyEBqUNEA8glYyX5329bRjPFUrhkciWrDRqP7XG0aZWUBZak9vLD47QKsDVlJrYMb68dt9eUTo/3wph02qY2F/TeK6WNt5KwYGqRnHeStj0RURM3vAMVhXafTUu5T658DU8+Q6HdhSmHl6JVcG5qjcwmB6LuxG58fD6RbJXDMPul9zGjzqwNbsrHx2vWYOfl1lzG8zvw9g5aYl5Mwn3yEmygnxTaneqTUhOZW2z7M3ZekqmJ+rPzjTfgI4V2D8P0pS/Tj9orJh+yZ1FID0M5PmuXVUGRK0lbJoVRNydyTyilsDl48Y+TW4835eLjde/hiNzO/4Zv8Fl6MaaQf+Goua/hHw+Xo1wY3Qqtd3k6Nq7/CPkWs5PWEqX/mXxyP4InpTEpxvF0sxcZq+ssfyqmrsK252wD/yBuCd77+xLzZRRc5+2f4pWDbSR38oCSumEj5pu711o8faDQuMy2HKCgQ6tW/A25dtprp1l98nDm5TxkBI9HincIXnkoGL+lZQiJyK0irDqZ1xo4gJYO0y5cwcwHaEPhkFHYNDWKgsgQAHO0TENNPt6/GYhnaZJySSIN0SFlCFInPIpUEdqddrubtBikGSk+gw3WGkRq77tnzyNBhP5Vh+OVKeH4rfggkPI1UiTJCqgDaXONdWNvFWLL5RC8E0GmKsMTsTuMwteT5lxBYaGV5MawtPQ7HFKNQ+p91hl78LeGoknOMkWTFEFYtrfTPBnxyf4CTA2LxixaAfvDQ1X40WHy1S1bnSd5TrK8PKpwo6qtTZlshh4fNJSW4+OyYPySlj3mL5yAR6rJ37o5Nrb+Qj6WULh0+bb2uGqHCgiJMUeTJO8vH+4txsm2Nq1SsKEyTPopmfFMGI01+dn4jZM8woggH3PFjujGcgrpLWeD5VDzu3WRu8ZEGzAOm+k5aXkzkDu1YZJmkSKxJqZgnqX15JUok4KMbHbnhrqOyJHZwYc5tzDrwcGImRyHIwkNKK0zT+Y3yvGb/ylDbkf5HThn0F/E0+lnUdoL7wjD13/E+ah3yaxsKPwffQMzHm3bYPJ/n0nnzzhxwyTFNXj329NQU2j3eT4aLIibigVkHmIQfSdPLC2a6DsVZIJiH55eRy5RbwTjWXLFOo/m+SdoVVVyJUvBy7bTHrsPhGa6TVIOpiBrkRQ6PlJcQ/N0UxPN05bozab3wruVtl+6pddOY5VyIkWbpPk/KBab6IcmsbJJedt8EDjz48jtY2Ifs82Z3hO423grkSYRe+YkbZpsLEnHn54rwPGn5uJJenhH0hKShrTZdeSCqlxXjvy8LGR+mS4vhFrKEYLwa6+idskizE+KRpCvyjSJNdHSis0XIbnD++c6rCyciwU/mEahtAOpPgWMNeXkm5tMLf73I3zybQfeO3RZ+OA3z+HUbGrvtDjEhon8pvYWUyCKUwdJ+Lf4ITe3b8gwcnsowsFbJ7I5jRrVxlCU3BUOsWmvJZMR2dvWYX3dEsyfRj7MKYR3mMVFB2nXpX7am5yM1K6cKhK4qa6SEzgs9zFh3Tb+2zEChlKsOgU8P2Y0ZpKtj9bT7Jbvtu1ymk6XjcWnqrEqKgIT76Nr6UnVk9ByqjwfW/NLgUgXmgUYy7E2pwSFo0fj8aGkQSGhWVdbhWPFeXi3xGyXZ9Vjgz4fy76ux4qRpMUQeege09VWYA99ZLxfG4LtJHDbpmZkXjqBZfXR9PEQjHgytVEPoiVhyrev5CLVVY+5E8fZZuvuEfKc8fRTFE1SeH+hwDeyQVhqK/Ha/7uOhPn+iHxwDF4oaA1P3q5aCowVbV6dMl7ai8/cYnZ1C1s/OgdMH4Eno1QIUQ+W3BmKpL/ai1O5aICvP16Sokk2o+DrS3hHUsW3T/rLRVh/6j78ZdJgzHkiEke3UajvHqv+lBSlLlRari6llb191hvXrBvh9L/dMyZK0gbG+cltFPBESLvjJPz03L+aEymRv/vD5/CcIRw/v5/2htALMNKy4uVBiidx/9reKl2rv8nQi4GqilD2j1TSmSynVfYpGBowFB7Netq8dxblJ7aRE4izkgbcmckgPIZ8fRCHQkdjIQXCiSZvIVqab/XGelxtqEUefcgcLSvF5/be8VJj6vHBtyegHx2L1IAhCCEvXpLm+o4nbPYYNVdg65mzKCAHEMI7ScRgmqfp3WVorEdhTRUOFZPigiIby1up0xx/maIJV5ICh2ItPEQC/jBRF21k1dVRe+m9kllegt0VVU5UFrh/TBwd3wEjY+I6+A5ytJjOr1Mq7dp5dJ6Zr3AfATJDSf3z21g4gjzG7FyBlTuK3Vc318QE7hYC0bSC8+ZchA2swpE3nsHGDBtXMndLT+7udvpEY3fyKETcqcKWrzJsNHN3d+e49UyACdxLBCzWP/dSn7gvPSCgeGCOUKCRbUkeDh9iYbsHKDnrPUwgaGw0Cdv0mFw6gI9PsLDdO0PtgZmkNROec0Sgm11Wy+C90yaulQkwASYgT6CX1yHlG8VHe4mAJhFLU6eZfG9/cwCHy3qpHVwtE+jTBFSIHyuMGWkPx57ddvdD9Oku3BON84Ki/grSCptQeNW0Oeue6BZ3ggkwgXuSAJuU3JPD2pVO0UbN5f+J51KGQCXs2YV9d0Me0l6kDaQFHbkn6UodfC0TYAJMgAkwASbABPovAdZw99+xb+m5wncINMIhuLEO1y5l4bO0v+ITFrb5zmACTIAJMAEmwASYgFMIsIbbKRi5ECbABJgAE2ACTIAJMAEmIE+AN03Kc+GjTIAJMAEmwASYABNgAkzAKQRY4HYKRi6ECTABJsAEmAATYAJMgAnIE3CbDbfBIEIscmICTIAJMAEmwASYABNgAv2LAGu4+9d4c2+ZABNgAkyACTABJsAE3EyABW43A+fqmAATYAJMgAkwASbABPoXARa4+9d4c2+ZABNgAkyACTABJsAE3EyABW43A+fqmAATYAJMgAkwASbABPoXARa4+9d4c2+ZABNgAkyACTABJsAE3EyABW43A+fqmAATYAJMgAkwASbABPoXARa4+9d4c2+ZABNgAkyACTABJsAE3EyABW43A+fqmAATYAJMgAkwASbABPoXARa4+9d4c2+ZABNgAkyACTABJsAE3EyABW43A+fqmAATYAJMgAkwASbABPoXARa4+9d4c2+ZABNgAkyACTABJsAE3EyABW43A+fqmAATYAJMgAkwASbABPoXARa4+9d4c2+ZABNgAkyACTABJsAE3EyABW43A+fqmAATYAJMgAkwASbABPoXARa4+9d4c2+ZABNgAkyACTABJsAE3EyABW43A+fqmAATYAJMgAkwASbABPoXgf8PiaUmGxtjonMAAAAASUVORK5CYII=;" vertex="1" parent="1">
          <mxGeometry x="160" y="1890" width="732" height="75" as="geometry" />
        </mxCell>
        <mxCell id="vrRyt4MK6rro84GM_9L1-13" value="" style="shape=image;verticalLabelPosition=bottom;labelBackgroundColor=default;verticalAlign=top;aspect=fixed;imageAspect=0;image=data:image/png,iVBORw0KGgoAAAANSUhEUgAAATgAAACICAYAAABzwverAAAABHNCSVQICAgIfAhkiAAAIABJREFUeF7tfQ1YVNe57ssMw/A3/A4gzAQZB8FBK6JE0ETkmKA10T6mJieNObU1TRqTNm3jOfnpPUmb8+T2mpjeRG2ak54mtU0TW2/+mkhsItEqMRWIgibqBAERGET+hp8BZGZgvN+aGRGGPTDKDDMDaz3PfmDW3nutb71r73d/61vfWl9Aqmb+ZfDEEeAIcASmIAKiKdgm3iSOAEeAI2BFgBMcfxA4AhyBKYsAJ7gp27W8YRwBjgAnOP4McAQ4AlMWAU5wU7ZrecM4AhwBTnD8GeAIcASmLAKc4KZs1/KGcQQ4Apzg+DPAEeAITFkEAifUsoBEvLDyZqwJ6sW7n+/DU/oJleb85oAwrEnLxH2KeMwKlUAaYLtU+/U+fLuq1/l9/ngm6m7kPvFzJPTuwWfPb4Xe7I+N8HeZ5VDe9z4WzetG7e++gy8rDf7eoGkr/8QIblJgE6Ng3nK8kBJmrc1o7kfbIPtvEF1uePljsl7Dfy6dDZhL8NauJ1DurMzgu/HQ9x9GqtiE6sMb8d+nmq62XpSI1HnfRX76QqREJyKErrnU14Tz9UU49MUeVPeYXERKhoTVDyAhxIjmv73hXnILjsWLP16AtRFA6/FyfPODDnQLSBWhSscH31NCKTJh/56j+NHpAYGrPJuVkbcYH9wqu7ZKenR44NeVOGS5ttuEr26D7pP3kTZvI2Z+63uo/b8vw+CWcoVr47meQ8D3h6iBCtypZOTWj+KKfcj5eC+WFbFjHzadn7j2pq8rRzN7eCVpSJ0R5BTpQOU8KMR02lIHbd0wchPPRf6aV/DQstuhiSdykwADCEJI+ExoMu7HQ3dvR77cebkjKpTfjbSFckC/D9XljU5lua4T/e14sajFSmpxWbPx8AyBUkRh+MHqJCI3oLuyClu9QG4CUnknq3EPaqqMECmoT+ZTn/Dklwj4vgYXGmEjloF27L/QC6O7Ye4sQbXhbiRExiBFQZpcw2mBGoLo3DyEsDOd5dAOjViCoMh+AmtviCHi00Nb8jze+7IE+sEgyBLuwLduuR8Lo+dibcH9qNrzChrH1AKkiPmX7yCGCNJQ/j7anGmSAtK5mqU7WY3Xs+V4dKYM/7YqCW//6QJqht2szk7HD2YQu5k68MrfL0LnasFuvu7MP8ux9JhDoYFy/J8f08ckGDhzsAz3l10aeYHFgu4x8b1WIRvRcPQI5qbfgqT8ddCeeA1911oEv97rCPi8BicViyFlMF0ehNET2wJYTkHbaDMeJigXgqhKIM3E7CTbGX1DCZqvXCHOxU0ZM62/9Geexx8rGLmxXyYYmvfgrY/ewHn2O+Z25KeEC5Q7LEu6AqoFpClYaqE7/uXY11732Ut4/aNa1NCoU6pWY4tm2PctNB5b8qMJawvOFFfiTU/ZU12RfWAArX0OR4+ZULUlo8k4+ny/xe0fP8vpT9FMgwRR8u2YqXBFcH6NryHgmgYXGIENafNxZ6Ics0JEMF0yoKLxDLbXuPDJpGFPgUqDDUnxmBseBploEIa+TpQ0VeMPNfU4MUpTkWBT7jo8HucAlSQZL6yhY1i2eyYZTKiqO4VLGXkIiVmI2dI/o9RRTQwl21oUq1hvvXYoRc5DCmkULF9bXU5DU4fU9RHKL2xEyg3h0KQsROC54tHX2G8RaW5FAhuJN3+G5iEGdSxw4r+NF+vx3LEk/D43BCsLZmJJVQ2ODoiQn5+KlcTB7PwzRzygKU9c9MkvwXwEF6oMUC5QIXHRfPoQeurDM/lNmy41jq/BSeLx9E234ml1IjRsBpO0qKCQKOTNXoo/LUyG0j6jKQSYNFiBF/JWYWeGCrlRNnIzWsSQhceiYHYO/nhzNtZYCWJkajW0QNvRbjsM/bYv82UzdFfy7H9r+qzq0oTTQGM5zjOidWKHC1QQwTGkjKTtXRw2YRAWi1CWb2mHvltoIqEHzV09VvlCEuYh1qmkUsTNXQwancJ4/iS6XPhuOC1q3BMWHDpYif3MGCdPxqOLQyCNp7/ZNAC39OJt0vAqPFr/uAL60AUGtFWdI50WkKXnweVpj/Bv4dcf78eBIjreeRLLXDTB+lDDp4wo42hwNIOpycGGCLKum9qxu6IU21t6YRAFI0+dg1/NScYCZ1CIovDTG3OwRiaGoaMa209p8W6njazkEcn4WeZCrI9S4ReZRGSlNGwaKseMwtOHUWj/LY3OROFNaVAONGHH56Uo9MQw1VgCbYsJGkW41dYGmni4msj+pkwDA2qgqRzVozROZwA45IclIobI0Dqh4ZhE6YhJtr0+hvqTjmfd/5smHLYeaEfuHbHIytPgZY0MGdTA1uOVeKlOSED3i+AvJZrrv0avJROy+PmIIQ3bMPF5LX9p+pSQc2wNTpqMDQqmYg2iRPtPPMvIjTXbQjOaVf/E87p+pyAolZnYEEXE2FuN/yypwG47ubEb2rrr8VTZSZQQWcji0rDe5U+j0+omeKKJZkbrrGXEkLY20g43G7NnsBwTzteVYIRpu6fJZtgWxSI+SugzHYuEaHtpknCw74RgkmpAcxyU2mBomRyfK11FJV5nZBYajfyZxG49F7G1SNh1RFDm6ZLZcg7WgYJkFiKTrNZgnvwIgTEJThabiCyr6nIRhU2OZGZGUYOOXkmhFIw15JTLHgdt3VkUjTJO0QmjDsWd9DcgAlmxAuNUoWI9mKdvsLuLxM7F7OHihC9EKrO/kXtIVcMw9xAmS9cp6KxTazHImJ1r1fJGJJpcyBlyx5AikI1BhVKMAqFWF5Q29HU4GgCFbnBH3iW8WdY2ZJjXnajHfj5NOBpYcxv6rV81GUJjhD5io2/B4EVUnziBCnZo62EzUghcx7M8jsCod3J4jUqaFLB+s/q6cUZgaGbs6kQ1DRnljna4gGhkRNpKUibn4L1E4XbIbL67kAcHUz12W5vwpZ7P1ZO7SC+5i8hs/nCl5202tRAasjK/MOjJPaTLQQxLOQ6frsKinNlko3kUD/QG4cOvitFoDEeC8ttYu/y7UAz0YEAcPpr8hhcVKoPYasszwuzg/eCxhjOft2VyW/9SJcoFyVh55DT2cpJzgNwAs/VRkEISwvzhXNCwL5Xh1SfLPNZ1vGDXERiT4OKC7CqHqV+4WwfJHYJpZ46aSWAwZPaS2YSCZjx5yBXE64m5i+j0uElD/nDk1IvzzA5n839jTdHrSjDa9daE5vLn8WHCNnw7JQap2U9jS/awlgzW4fOjp5C69HYkXDZiQOAjYb2ayM2GAGlvk2QCy8jV2Hze+jpwtCMSSxQzsGWFDocLuwRXOHi9f7wmQD8sV+ayxhzveE1AXvEYCIxJcGPc5+IpD69RdVEK1y4jd5F6chfR5CEmkdnhyqEXzaPVDcx/jdxD6JxgslTh849+gEbNRutSLUVkLCSXDWhvLUHZF2/gePijeIa9GLR0q93ZpK/RhEErsUkhYiqzp7W4qCQ8mR9JtQ2g4pAWDzQk4YMHUqBemI6Hj5XhuYuCLZ2mmcEQ2T/glgGhmfJpCoufNHtMgms12VWOoGAw5Vzn2CgxeewLlTBAGp9VswtGXDDTTZy92Y4Fevf3ANnhzpvzoLHb4Uolc5HChtrMPeTCWA+3Hue12/FH7Wj5FakzbSsgOuqEZ1DZLd2tNEAnez8iEMyG7cw26bEUiLtWqbGE7IzGxjpspRUBRrIv/varJLyYSSscVivx9i7diBUOHhPFHwoWx9r6hKyV/Z3CFmd/aMZ0lXFMpVvXbXf4pOVSasdhKCEmjYxCqqP9jSF5uQNnrKYKMTLi4133H/J2L9jdRSAmO1xSOEJoZQOzv123e4h4IRbOsq10aCTydGq9MdTCwLQ2URJC4zw7UxeRPhuPashYznzePq63+7wNYO8B8n8jDpeq1HgycxxjetAMpC5YgCx2aGbQQH4KJxlNALFn33IBhtbJmgCawnhOctPGJDiDvgkVTBMLnIE1iY4znRIU3KC0anajUz+KGlusM3TyxHm4z6l/BM1NhYaN6Sw8umxP5pC7SANzF2H+cDR7qmD+byboaHnWtY8aqYzsh3FzNBVnLkcpLV53msxfo+sCQ0sKWaLK6WUTPhEYiSdpMX0c9XrrV1V4ZbjPW6cOL5UxJ69A5N+ixsqxWCvpm3jsuW349Qt0PHknUse6dsJCe7cAUaKGVt+QDJeoj1xV4EIWY/ML2/Gbl+h4dgOypjA+3u2d8Wsfk+BgqsfuRvbQi5GrWYrH4+2zqnZH3yeUjqR3tcIaslnt7qahaWAUNucux9OKKNtsJLskQAKNXIXHswqwb3kW8oSGuePL7pErruwuEqMkFw/S4kbtHuJYqygPq1c/Tva3PKTIZyOGdhFRKG7HrStph5Hs2VaCbDz5GkrH9BVoRHN1rbVkWYptRYNjNRP/LUJWfjruYv52fS145ZN2tDoUerS4CvuZnGSj25IvG5phnXjd/loCfXDUc6xzaJaaMrQ6myRybJ6YNNxvZCBjHh2aZPpc8uQtBMahlkEUaY9hd/TNtJohFptybsOmAVr0zhbA09C0rZnWksbQagaB4StbvrSjtBQRuTnkyBuLDQsLsIEtmLdqhLb7rY2+TLqRJ1YnXC+iV9xFYnJts78dAu4hw8sOoD3cZt6Ob8y6XaBGmmVltrnS007XoF65qe/LI+haNQeRRHAJIW9Ad+0qo0D9V7Ok8Uo8s5R5VFtQUVyNN4UIl22pVNyB5bdFQ72YdhYpP4ZXhLSW8CAE2Se+TfqL6PEPE+uY+AifVCEhXUGnaH++rz6brAluYVF47nUhMLYGx4o0t+DZzz/FszVNqOkzE7mRT/+lThSf/Se+X14P3RjkZOxvxFPF+/DgqWoU67vRxnaxIEo1mXpR09GEwqoKPHa4FLuFHIGvqzluuMnqLnL17WcOwKPdQ4bVM1iOI0ffx1dNddD3kxGLZkMHjHo01n2Kv3/0MF48+BHNwbqQmj6Crp6GqdJMJNHSKfemEJo8UFmXY7HF9FtLnLNnTVkV3makFhRp2xtOQJAZGRlItubr8dn7H6N+qhJcwq1IYj6cvUfQcEqI6QXA4Vk+hUBAqmb+GBTlU7JOeWEkN76Mgntvhli7Fft/t8ft2/+4B8BwrH72r/iP3CCYzv4Rj/xkN6qnJMFJEfmt95C/QoG+4h+i6D3uuOue52dySxlfg5tceaZ1bebjb6CWtkoSpX8HM52s/vA6QEEZmJvGrOakvb3z4RQlN2qe9Gaosml4aixD9SFObl5/7q5TAE5w1wmcR26z0Mv0yRGYRSrMWrGaLXDwvaRegLnkG2g6+zH+X7GQIc/3RL4eiUKXbMQNFL/CcPQ11LlkY7ieWvg9nkaAD1E9jfA1l0+G7RV3IEZKO/tS4BMe7OSaAXTDDXLE3LSRdoJpQ/MBCv7j3GTphrp4EZ5EgBOcJ9HlZXMEOAJeRcAnR0FeRYRXzhHgCEwZBDjBTZmu5A3hCHAEHBHgBOeICP/NEeAITBkEnBJcmCwSIl/Yp23KQM0bwhHgCEw2Ak4JbrIF4fVxBDgCHAF3I8AJzt2I8vI4AhwBn0GAE5zPdAUXhCPAEXA3Apzg3I0oL48jwBHwGQTG2S7JZ+ScXEEC4vG/b12O9cEUhLr0b3is5VqqF1MA6Xn42SwFsiLCbJslsttbjmEZBbjme1JcC5b8Wo7AxBDgBDcx/EbdrUzKwZ8WKmzbtFMYrTaTbauNfvo70Q2vpTNn4+NNyVc3Dh1Vu0AGbU3++qslfhxIRgqp5gFoaG3ujGQFpBIKraivRfOJPThbREvZJgqqAGQ8a+ogwAlOsC9NaO3phW7QjO5r2quOAl6rbOSmO38Em041jblfnmDVPHMYArSjbt5vcNO6xZBeMaZYKD6pfA6Ut/6SNqNUoeTlF6HnJMefGicIcIITAuZyJ3Yc3YcdQufGygug4DzWYNb9KG1yP7kZG2rwr9tsW5tfFUOCu+5eikdZKIeqSnzz3Yuj4pp2+2sw58QHsGitjdz6vnwZx9/5M/Q9MsgW/QiL7rwDkTdsxKJ1ZTiw5wjfbXes53Ian+ME59bOp63YmabBtmb3xCaQFgta+0ZHhu6+kmUZgK5vYMJDYbdCct2F0VbwK9Yhkm2H3/Y+jv/5NeitMRGMMHzxXyiTaXDLt+YgdCFta/T3I6jrvu6K+I1TGAFOcPbOlcZl47NclUOIw/EnGTRpBXgvPcrhEQnDhpvvwobhuf46yRCQiKcXJ1MM1WrsvtAO3Wh+9czrIVmMxAxbzLauL/bYye1qVX2l76N11c+RQFu8J86Vo+4on77xTEf4d6mc4K70n7kbFfp2xFnjvEoQFxUBuVDMV4f+NvV14ETHoD0ClQRKuk8WMIg2Qydah9nvjIZ+/9SsAkSIo8BCBfHJ2DSXYnE01OKd87Uo6vOEijoMXHkmYkLY7zbozzkOyym7twxtTUBCihQxszKBowccesb+U5yMe3e+hvvS2O+L+OCx+7HzxFhBvIWL4bn+iQAnOHu/GTvP4sHPz9p+DbmJjN+pNbpjuEdnv460nZ2rbkZBYD/2nzyIZzvGv9/nr6DoaHvP1iJuJkVPC4tCnprCPM6aD11rLd49X4N3mimYkAcaIYpTIJgN9y2NQwGXRVHzERVlQCcRrAUUiJnNLhDBSWJV1g8Mn2vwQEf4eZGc4Py8Az0vPgXxrjlGRwXUpMmtT1FhbWIslPGp+Ckdm/vaSauj4WtdPUrcyDBimdwajxSDBvSz0LzyjVjy71sgDyEb3MFHcOjDkzD3MGqluAlhcVYyNE7W8NnzoPMa3IQAJzg3ATn1ixlEDfmfbWOHJAIFSjXuTJ6JPIqXW5BOR1omtE31eKe2Gu/qeyesTYmkTCejNGCEhUbDIuVi+5CVXEdIg5TgJAZN9qGmJIhCkztJRJAXK0+gwjqTrEedgQ9PnSA1JbM5wU3JbvVwo8heWVRbYT2UUaTVJauwJikemqQ0PJ2kxtqv9uGe8/1uFcJS+VdUn89EakIbGooPWAk02KUaOnBg5+NwYqFzqQR+kf8iwAnOf/vOJyTXdTaiMFCMCGkw1s+IIFsY6VJuWOFsMdrHu4FS2peQmnrpCLTbl0E71GqqKYiFL6RkNsHDUx4+gTUX4toR4AR37ZjxOwgBqTQWa0hzu/MGNvlgHyCSZleiqyF3kolrb4O9bWBubxKxDMHMebpzNOyScJsbCXpb0c/tb6MB4jngBMcfAtcRCJBgQQKRGhHbynjmDmO71dDdiL1ke9uta0GNm4jG0txoJS2JiJa+xZE9rtNxBiMJshibnc7cXjthm5/rIPAr/QkBTnD+1FteklUWlog7Z9LsqXIGNFK7tmbph7axFm8RsRV2esDHr+2kNR6pLIxilM6idWhVX49sfchiyBNZlhH68ye9hAyv1tcR4ATn6z3kbflIg/pV3lLy7bMJYuxtQVFdNd6qb8QJ69IpDyVzGZrOtGHmjXJE3kiBsA9uHbGaITTnNjDFDsaTaDo9lideNG559OdYl0z2uoGL+PTV5/BBjYdk5sX6HAKc4HyuS3xQoMtm1DSTYy9pa++09sIwKSIa0Hzwb+hacD8i5Xdj0XcbabE9LdnqDoLsxi1YtDrTOpfRV/4GGgTsc0Mikg1vRuoCZFhXMsSgSsYmJriryKR0oQ9UwgmOdUKoCjuzVFAOLc2ipVpW844Ey+euwHvWl8OWWhuP4cHaabSy29KCbf/YC51Hdg+4iqvgf02/x/G9863bJYXO34JldFi3DbHP0loa3sDxD/lOIoLY8UwrApzgGAriMMyKjoVaYO2pLDwWmmEPS1ynZJotCzITuXnrbaFVC8WP4B+toze8bCvfAy3f8NJbHeM39QakauZfFpKWxUW91NdDXuTcw0gIH57HEeAI+D4CbnDJ9P1Gcgk5AhyB6YkAJ7jp2e+81RyBaYEAJ7hp0c28kRyB6YkAJ7jp2e+81RyBaYEAJ7hp0c28kRyB6YkAJ7jp2e+81RyBaYEAJ7hp0c28kRyB6YkAJ7jp2e+81RyBaYHAtCc45tAsEjvd8HpaPAS8kRyBqYrAtCe4qdqxvF0cAY6AWzaX5jByBDgCHAHfRIBrcL7ZL1wqjgBHwA0IcIJzA4i8CI4AR8A3EeAE55v9wqXiCHAE3IAA3w/ODSDyIlxDQB6TivviKZppjw47dJ08UExwLF788QKsjQBaj5fjmx90QGgr1QhVOj74nhJKkQn79xzFj04PuAb49V4VnIpd/5KFXHE3dhV/gm1CQrlatigWv31yAVa6FsR2qNSKfZ/hX0smvvMy1+Bc7Sh+3YQRiItVYdNsDTYpoiGbcGlToID+drxY1GIltbis2Xh4hkCbRGH4weokIjegu7IKWz1NbiTCghQ1ckn1MbZRCMiJkJtAcyY7i2twk404r48jMAwB3clqvJ4tx6MzZfi3VUl4+08XMDwmjjo7HT+YQexm6sArf78InafRC0zEfcmkUqIfRedqJ16fpR0/334Yz4yQW4TUpQvwRh595vou4n+9UolDDkqp0eQeLZVrcJ5+YHj5HIExEbiE1z+qRQ29z1K1Gls0w3SO0HhsyY+mLfItOFNciTf1YxbklpPqG9KQx+KRGCgkZKt7dvPu7htA64jDhK6h0acFXT2O5wfQ7R5+4zEZ3PJU+Fkh0rhsfJargqy/Fg9+egwVMhV+NicVK2OiIA8chOGSAaebK7HtdD20Dhvay6NUeIjilObJIxAXJAHM/dB1NqHw3CnsanWIj0ohB3euuhpycAimeKp/bfYI1AwNR7DsRNMwu5wEm3LX4fE4QHtmH75d0zsS5YAoPJ1fgA3hgyg+/gEevDD6Zbzmdl6RV9yL3Uc+wX8HqPDEHDWWR1GQaxHFpqB2vqstx6t698ZLNF6sx3PHkvD73BCsLJiJJVU1ODogQn4+9Uk4DRXp/DNHej1vsyRMN6TEE6EOouRcNU4IBjPwr4edD1H9q7/cLm2EPBN/yU6DeuhJEEMWGoXclGRkVRLBDb3LYuSqb8ZOTfxQRHujmUhFEgx1vAo/jVdi+ZlD+GFN59WwgpeJ/DraobWXHSSNgjqUlsWZe6Ht6R/Rli4DRXn2YHK9nTYhIuKy8Jc0irTGxjjsRQ+QQBmTjJ/mREB6pAg73Bo70YJDByuxP4OM8fJkPLr4AsqrE/BodghFEevF26ThVbBoYh5OsoR0rCVCRX89dutG9o+Hq/ZY8ZzgPAatHxQsisZ986OgNDZh11dnsV/fjTZLEL3IM7BeFT2iAcqkHLyQQeRGL1xxZQW21zZBy4YRgWHIS87ErzIUWKBZiic6PsFTers2dbkd20oODpWjmV2A9+ZEAR1a/LC0FmOFa3YretfQTmu9AcEoSEuGjkJEbjpTixKTmDBR49nsTOQSSd+bmog/VDS5Nz4sTThsPdCO3DtikZWnwcsaGTLo7Ww9XomX6iaB3RCGe9UK6+RPTd1ZFE1GlW7tZOHCOMEJ4zI9coOioDHX4rEjx1A4ZBMhretCN0ouDIMgIBab5yggp6HLiTOH8ZPaYcOlASK8c6V4LGQVds0KwxqVAs/r69378k+0N1xt51A9pGV2ncRjJ2qhteYNQqc/i6fPJqLwG0Ty9AGYG9CEEjcP4XQVlXh9YS5NOEQjfyZV23MRW4uEXUcmConj/dLoVKyPZtp1E3bX+fnU6bDG8UkGx56eVr/J1lJ1ahi5CTdeSu4dy8PonKkRb9UJ2YIGUdHUZNXIpDGkgQjElxUuebJyXWvncGm0OhqeO4in07dDx0gtOAwKj7TxEt4saxuytelO1GN/32RgJMEasquywOdtjWfxrtfi4Lq/rVyDcz+m/lPi5U6Utoxva1FGRpP2RkkUj81LV+A+oRZS8Gyrb1tQGOLYy+9m7UaoSpfzXGzn1fL6UeNgI7SeGzDBqugGiBHB3pyJ+6GObALzeVsmtwYWZ0m5IBkrj5zGXk+TXJgK986gCSPC6Z3aFs9PZoxstUd/cYLzKLw+XjgZ+3UuvKRxwfTwsxRIEwrR47ikE7lJ2fZ6vmTDcbGdQ711eRBGITeF4W3ygAaXkaux+bz1deBoRySWKGZgywodDhd2Ca5wcM/TJUaeKhUaGssZLlbirR73lOorpXCC85We8IYclkHXXpwrL3PrMSwrmcTJAXdh4mo73VXf9ZQTlYQn8yNJextAxSEtHmhIwgcPpEC9MB0PHyvDcxevp1AX7glS4F4lsz/0Yn9N4+RN/Lggmjsu4TY4d6A4xcvoMtp9Rcj2pPSZtgZBOmWe3kDctUqNJaQcGxvrsLXskvXvb78i9TqQVjisVkLtIdw1N6QjjynoHeTYe2X220N1eaPYKfOIeAO86VLnuc4O25c9PB65odffatOVIZ5LwzsLugdt7iYyiWTILjVUu4QM/eOMlq9f0sm9MyJ9Nh7VBNl83j6ut/u8DWDvAfJ/I46TqtR4MpPOuzuRTfXeFHLbgRnFtdWjJlXcXZ03yuME5w3U/axOY3s9DjNDN7mL3Gt1F3GWJOTIa7fXCVzSZbYb/KTBoAUK46RBNPbZJkDiouWjNEe1QoWsqfD0BkbiSVpMH0dtaf2qCq8M93nr1OGlMraCIxD5t6ix0s0cJ09Kwxr2weqtw1tN7l2dMU7nTtrpqfCITBpY07YiSwte/brR6tsmV+TgLwvTUBB2lchkwVHk/5aFXStux6sq8vR3ApShu9PmZiFLxr1s26Rx0unWdmudUrkGT6ljbasKaEXBAmU2djCHYV+ayBinLcKnRcjKT8ddMXS2rwWvfNKOVocLjxZXYT8z/JONbku+zCm2wuWPlRuBe1WJ1mVZ2vNnUez3WAq3lU8yCOPCcx0Q0DWW4ifSJbSaIRFKRSZ20oEBM7kU0PBx2FNk9RNzkoydtXi3Q42fxkRgfc5tWNnXixbrbKUFhqZyfP9s+wgXBUOrFm91KLCZZm5zM1agKONKweR4e16LIvk8rGFLi/w0SWl52zNLmXOeKwNIAAAKtklEQVSNBRXF1XhTaAaTbalU3IHlt0VDvZh2Fik/hlfcsAREFpeGO9no1HQRbzU4rPP1UzyFxOYanBAqPE8AAbYA+wjuOFyKXQ0tqOkjchMx25gZbT2dOHGhGq+WH8Smr0eS1MiCuvHqF4exo47u77cgKCQC6gh2sDWqAuOvy93YUUbX68jB1kT2OHLfMPS0oPDUYdxzusm1GWCBlvhGVghNHqisy7HYYvqtJc7X4taUVeFtRmpBkba94SbcgGCsnZVsNTXodJUonJqjUytKAama+YLfXBYv9FJfDyx2Q++EMfXRAqZLO30Ufi6WNxCQzUPhcg3UtFZ4xz8O4lVPOxJ7o432OrkG50XwedUcgclHQIwCtQpqmsk2NJFj7xQmN4Ytt8FN/hPGa+QIeBGBYEh7a7GrahA1OtvEkReF8XjVnOA8DjGvgCPgSwj0opBtsOBLInlQFj5E9SC4vGiOAEfAuwhwgvMu/rx2jgBHwIMIcILzILi8aI4AR8C7CHCC8y7+vHaOAEfAgwhM+0mGXkOXB+HlRXMEOALeRIBrcN5En9fNEeAIeBQBTnAehZcXzhHgCHgTAU5w3kSf180R4Ah4FAFOcB6FlxfOEeAIeBMBTnDeRJ/XzRHgCHgUgWk/i+pRdF0tPDgRm2fGIsLSgb1VjVNy62hXoRh9nRRSzQPQrFiNGckKSCVGmPW1aD6xB2eL3odhCsXwHN12njNRBDjBTRRBN9wvDYnH+tlpUA7U40w1EZzgBlZuqMjvipBClvcb3LRu8dUAMxYpJPI5UN76SySkq1Dy8ovQc5Lzu56dLIH5EHWykOb1XDsCiQ9g0VobufV9+TI++0UOPviPW3HwrffRRaQmuWEjFq27GfwhvnZop8sd/NmYLj3td+2UIWHFOkSy0A9t7+P4n1+DvptYzdIGwxf/hbJPvraGZAhduBE3RPhd47jAk4QAH6IOB1qUjN/dloM82gx71+FPsM0Yi81zaN//GbFQB4lhpAjp59rq8QctbTfjsFGgVBqPDbNTsTY+FrNCaM8tixm6njaU1mmxvb7dIaCuBJty1+Fxx9BSkmS8sIaO4TL1nMU9h07ixLBhqyatAO+l04b6zcewuKzWGphleCpYsA47b5Cg7fxh3PpVy4g4B+w6aVw2PstVQdZfiwc/PYYKmQo/m5OKlTFRkAfStuCXDDjdXIltp+vtw+Wr8mrP7MM9jRHYnKHBmrgoKImADL3tFDT4JJ6v7xwli4Norv+ULEZihi1+V9cXe6B32Fa7r/R9tK76ORKkmUicK0fdUTcEKnBdOn6lnyDACc5ZR4UQ0dyYgzUs6Lc9SYPCoEkiItCNJDg5BT/5n2wNNPZAU0YWjIXiFSijKEALHcsTjuGHx2pH2NZaDS3QBoptJQeGYZaMSPEykWJn9wiSMPb2wuhBm1yEPBN/yU6DeuhJEEMWGoXclGRkVRLBOe7XH5yMncvmIY8FxWJy0c6wMoqXuj4zHwoUYVO9mwKYkFwxIQyeNujP1Q71wdA/vWVoawISUqSImUUBcI4eGH0Nz5n2CHCCE3wExMhNXwhNUDeKvtbinYvtOEcvujw8FiuTUxExnHDCUvEbK7mxHVK/xLbKWhT3sYDFYmgSNPhFpgYLZmThV6ntuKeq265NmVF4+vDQpoPS6EwU3sQmGZqw4/NSFHqQ0EY0VxSN++aTFmZswq6vzmK/vhttliAoY2ZgvSpaEJlZKRoou87iqZIzKDSYERSaiIeycrApRoLc1FTkNpxEiRvkF8UpEMwMKBbadbbVNosgipqPqCgDOs/X0vD0AgxsdoEIThKrsobT43MNgl02rTM5wQl1fwBpahGd2P3Pg3i2wxZdnV2m6+/FCRqiXo37Kcaa9HlYwIZpF45hc0U9dEPlUbzJ5lP44ckw7FucDE2KGjnVFSh2w8svJPJ15QVFQWOuxWNHjqHQHpMZ6IfuQjdKLgiXKB1swbYvTuJdO5sY+5qw7ctq5LEgJqHxyKFAwiVuUOLEMjkFJKQ0aADBTl+XjVjy71sgDzHCcPARHPrwJMxkAgDpjQiLs5KhcYrG9hTuCZ7rCgJ8ksEJSoYLp7B9GLkNv2xIUwhUkM2NXsPLvdh7bji5Xb3a0KpDBRvmkY0u1+dieFIoQLZ99RC5OQFjWLaxtRZ7HVUlCuWnZWXQh0HJIqW7IYmk9s/IgJEiuwEi5WL7kJVcR2bNt5LfoMkuuCSI9GWeOAKjEeAa3GhM2KuDiuaWcQ3mUlk0ZjEEA4KQN3cF3hMsS4I49vYFhCCO2ZQcZwQE75mkzMudKG3pv6bKdAaDQBNM6LaSuAhSMWvsVa33mgof42JL5V9RfT4TqQltaCg+YB2OMjMgTxyBsRDgBCeEzmUapl1y4SUNCkYcGdnJIwvK6FihkkbkSa3X+lCiWWHdNWhvTHLTOHFyiePckixGu5oYKIWIcealI9BuXzZslYcU4iB7sGizyQOU6pZm8EK8jAAnOMEOGIRxQPCEcKa5Ho/tp8kBf7MB0divW7hFXs8d7G0DUwolYhmC2Ux252iRJOE2NxL0tqLf37Af3Rye4wEE3PS99YBk/lCkqR+tbNKA3Dzi7C4ikyL2lYkKQY1QTCNF/+9WS3OjjbRECsjirk7rXMU3CbIYW765vZbPoE7Kg+d/lfj/m+BFzI2GDpxjI9kA8hubCMMNn1kVJK2RjTQM2IfPgRLEj2p/GNSyKWBybzsJ/SXWODn5ualGtRIhiyFPZNlG6M+fHH2e53AECAFOcBN5DMhvbX8zG0iJkTebnF+dDvjFUIaFQeakLuOAyaaBBJJNz2kZV29u7eu1GfrJlYK5qAxP0ohkFDiryEn9PpltLkPTGdvqhMgb7wC52Y1IoTm3warYGU+i6TRfxeCTfegDQnGCm1AnkMNu5RmcYBwXnoqdS7LJ4fUqkUklYchN0uCFJatQmJUsoG3ZK+/rtDoSIyAWa1WxTonwiqjGjhacZjZCiQKbv6GykxyRaHQqXqBVCUpf8rW7bnwNaD74N3QxXOR3Y9F3NyImgjGaDLIbf4nFqzOtX+e+8jfQIGCfu+5q+Y1TCgEX9IUp1V63N8bYexaPHAvC/yyi1QxRKjx+Ex1kvDfSKFIqGTZUdOJTZxXI0oLdDd0oUEdAk7YCn81ks5tUACOqvho89kX1yD3iTPXYVZeGXLpeqcjGX+i4smzK2KHFrs5UbFZMplHQ7bDaCmz6PY7vnW/dLil0/hYso8O6wt7+WbY0vIHjHx6xZvHEERBCgBOcECrXmNfWdooWxDdhvZotto+Hmhbby8RmGGgoqevtREWLDkWNjahxWi453GoP4yfmTNynjIeGhrPqK3Z1URis7iUjtLJBFLPrBxbioZnxmCUlMjN1o+LCWez4uh5x81Kd1uRfJ2jVQvEj+Efr6A0v28r3QMs3vPSv7vSCtAGpmvmCA5owWSQu9fWQF7kL/mBeEJxXyRHgCHAExkOA2+DGQ4if5whwBPwWAU5wftt1XHCOAEdgPAQ4wY2HED/PEeAI+C0CnOD8tuu44BwBjsB4CHCCGw8hfp4jwBHwWwQ4wflt13HBOQIcgfEQ4AQ3HkL8PEeAI+C3CHCC89uu44JzBDgC4yHgdCVDr6FrvHv5eY4AR4Aj4NMIcA3Op7uHC8cR4AhMBIH/D3WfHquDaFaeAAAAAElFTkSuQmCC;" vertex="1" parent="1">
          <mxGeometry x="240" y="2130" width="312" height="136" as="geometry" />
        </mxCell>
        <mxCell id="vrRyt4MK6rro84GM_9L1-14" value="" style="endArrow=classic;html=1;rounded=0;" edge="1" parent="1">
          <mxGeometry width="50" height="50" relative="1" as="geometry">
            <mxPoint x="320" y="2120" as="sourcePoint" />
            <mxPoint x="280" y="1970" as="targetPoint" />
          </mxGeometry>
        </mxCell>
        <mxCell id="vrRyt4MK6rro84GM_9L1-15" value="" style="endArrow=classic;html=1;rounded=0;" edge="1" parent="1">
          <mxGeometry width="50" height="50" relative="1" as="geometry">
            <mxPoint x="400" y="2110" as="sourcePoint" />
            <mxPoint x="500" y="1980" as="targetPoint" />
          </mxGeometry>
        </mxCell>
        <mxCell id="vrRyt4MK6rro84GM_9L1-16" value="" style="endArrow=classic;html=1;rounded=0;fillColor=#f8cecc;strokeColor=#16B804;strokeWidth=7;" edge="1" parent="1">
          <mxGeometry width="50" height="50" relative="1" as="geometry">
            <mxPoint x="390" y="2180" as="sourcePoint" />
            <mxPoint x="700" y="1990" as="targetPoint" />
          </mxGeometry>
        </mxCell>
        <mxCell id="vrRyt4MK6rro84GM_9L1-17" value="" style="labelPosition=right;align=left;strokeWidth=9;shape=mxgraph.mockup.markup.curlyBrace;html=1;shadow=0;dashed=0;strokeColor=#289917;direction=north;rotation=-90;" vertex="1" parent="1">
          <mxGeometry x="693.87" y="1920" width="20" height="106" as="geometry" />
        </mxCell>
        <mxCell id="vrRyt4MK6rro84GM_9L1-18" value="" style="endArrow=classic;html=1;rounded=0;fillColor=#f8cecc;strokeColor=#0000FF;strokeWidth=7;" edge="1" parent="1">
          <mxGeometry width="50" height="50" relative="1" as="geometry">
            <mxPoint x="490" y="2206" as="sourcePoint" />
            <mxPoint x="590" y="1980" as="targetPoint" />
          </mxGeometry>
        </mxCell>
        <mxCell id="vrRyt4MK6rro84GM_9L1-19" value="" style="labelPosition=right;align=left;strokeWidth=9;shape=mxgraph.mockup.markup.curlyBrace;html=1;shadow=0;dashed=0;strokeColor=#0000FF;direction=north;rotation=-90;" vertex="1" parent="1">
          <mxGeometry x="580" y="1920" width="20" height="106" as="geometry" />
        </mxCell>
        <mxCell id="vrRyt4MK6rro84GM_9L1-20" value="" style="endArrow=classic;html=1;rounded=0;fillColor=#f8cecc;strokeColor=#FF0000;strokeWidth=7;" edge="1" parent="1">
          <mxGeometry width="50" height="50" relative="1" as="geometry">
            <mxPoint x="400" y="2260" as="sourcePoint" />
            <mxPoint x="840" y="1970" as="targetPoint" />
          </mxGeometry>
        </mxCell>
        <mxCell id="vrRyt4MK6rro84GM_9L1-21" value="" style="labelPosition=right;align=left;strokeWidth=9;shape=mxgraph.mockup.markup.curlyBrace;html=1;shadow=0;dashed=0;strokeColor=#FF0000;direction=north;rotation=-90;" vertex="1" parent="1">
          <mxGeometry x="817" y="1920" width="20" height="106" as="geometry" />
        </mxCell>
        <mxCell id="vrRyt4MK6rro84GM_9L1-22" value="" style="image;points=[];aspect=fixed;html=1;align=center;shadow=0;dashed=0;image=img/lib/allied_telesis/buildings/Medium_Business_Building.svg;" vertex="1" parent="1">
          <mxGeometry x="186" y="2530" width="54.6" height="70.19999999999999" as="geometry" />
        </mxCell>
        <mxCell id="vrRyt4MK6rro84GM_9L1-23" value="" style="image;points=[];aspect=fixed;html=1;align=center;shadow=0;dashed=0;image=img/lib/allied_telesis/buildings/Medium_Business_Building.svg;" vertex="1" parent="1">
          <mxGeometry x="470" y="2550" width="54.6" height="70.19999999999999" as="geometry" />
        </mxCell>
        <mxCell id="vrRyt4MK6rro84GM_9L1-24" value="" style="image;points=[];aspect=fixed;html=1;align=center;shadow=0;dashed=0;image=img/lib/allied_telesis/buildings/Medium_Business_Building.svg;" vertex="1" parent="1">
          <mxGeometry x="685.4" y="2520" width="54.6" height="70.19999999999999" as="geometry" />
        </mxCell>
        <mxCell id="vrRyt4MK6rro84GM_9L1-25" value="" style="image;points=[];aspect=fixed;html=1;align=center;shadow=0;dashed=0;image=img/lib/allied_telesis/buildings/Medium_Business_Building.svg;" vertex="1" parent="1">
          <mxGeometry x="880" y="2530" width="54.6" height="70.19999999999999" as="geometry" />
        </mxCell>
        <mxCell id="vrRyt4MK6rro84GM_9L1-26" value="" style="image;points=[];aspect=fixed;html=1;align=center;shadow=0;dashed=0;image=img/lib/allied_telesis/buildings/Medium_Business_Building.svg;" vertex="1" parent="1">
          <mxGeometry x="880" y="2730" width="54.6" height="70.19999999999999" as="geometry" />
        </mxCell>
        <mxCell id="vrRyt4MK6rro84GM_9L1-27" value="" style="image;points=[];aspect=fixed;html=1;align=center;shadow=0;dashed=0;image=img/lib/allied_telesis/buildings/Medium_Business_Building.svg;" vertex="1" parent="1">
          <mxGeometry x="659.27" y="2740" width="54.6" height="70.19999999999999" as="geometry" />
        </mxCell>
        <mxCell id="vrRyt4MK6rro84GM_9L1-28" value="" style="image;points=[];aspect=fixed;html=1;align=center;shadow=0;dashed=0;image=img/lib/allied_telesis/buildings/Medium_Business_Building.svg;" vertex="1" parent="1">
          <mxGeometry x="450" y="2750" width="54.6" height="70.19999999999999" as="geometry" />
        </mxCell>
        <mxCell id="vrRyt4MK6rro84GM_9L1-29" value="" style="image;points=[];aspect=fixed;html=1;align=center;shadow=0;dashed=0;image=img/lib/allied_telesis/buildings/Medium_Business_Building.svg;" vertex="1" parent="1">
          <mxGeometry x="220" y="2740" width="54.6" height="70.19999999999999" as="geometry" />
        </mxCell>
        <mxCell id="vrRyt4MK6rro84GM_9L1-30" value="" style="image;points=[];aspect=fixed;html=1;align=center;shadow=0;dashed=0;image=img/lib/allied_telesis/buildings/Medium_Business_Building.svg;" vertex="1" parent="1">
          <mxGeometry x="360" y="2910" width="54.6" height="70.19999999999999" as="geometry" />
        </mxCell>
        <mxCell id="vrRyt4MK6rro84GM_9L1-31" value="" style="image;points=[];aspect=fixed;html=1;align=center;shadow=0;dashed=0;image=img/lib/allied_telesis/buildings/Medium_Business_Building.svg;" vertex="1" parent="1">
          <mxGeometry x="645.2" y="2930" width="54.6" height="70.19999999999999" as="geometry" />
        </mxCell>
      </root>
    </mxGraphModel>
  </diagram>
</mxfile>
